<svg width="500" height="500" viewBox="0 0 500 500" fill="none" xmlns="http://www.w3.org/2000/svg">
<g clip-path="url(#clip0_7_50)">
<rect x="171.875" y="171.875" width="156.25" height="156.25" rx="10" fill="#4B68FF"/>
<rect x="171.875" y="343.75" width="328.125" height="156.25" rx="10" fill="#83F589"/>
<path d="M0 10C0 4.47715 4.47715 0 10 0H318.125C323.648 0 328.125 4.47715 328.125 10V146.25C328.125 151.773 323.648 156.25 318.125 156.25H10C4.47716 156.25 0 151.773 0 146.25V10Z" fill="#FF41A1"/>
<path d="M0 181.875C0 176.352 4.47715 171.875 10 171.875H146.25C151.773 171.875 156.25 176.352 156.25 181.875V490C156.25 495.523 151.773 500 146.25 500H10C4.47715 500 0 495.523 0 490V181.875Z" fill="#FF4B4B"/>
<path d="M343.75 10C343.75 4.47716 348.227 0 353.75 0H490C495.523 0 500 4.47715 500 10V318.125C500 323.648 495.523 328.125 490 328.125H353.75C348.227 328.125 343.75 323.648 343.75 318.125V10Z" fill="#FFB551"/>
</g>
<defs>
<clipPath id="clip0_7_50">
<rect width="500" height="500" fill="white"/>
</clipPath>
</defs>
</svg>
