<svg width="520" height="520" viewBox="0 0 520 520" xmlns="http://www.w3.org/2000/svg"><path d="M323.058 255.447C309.592 240.876 290.7 232.234 270.803 232.234H249.197C242.766 232.234 236.234 229.521 231.913 224.697C227.592 219.874 225.482 213.342 225.984 206.408C227.089 194.55 238.344 185.405 250.805 185.405H275.626C282.661 185.405 288.59 190.229 290.198 197.263C291.303 201.584 295.021 204.8 299.945 204.8H327.982C330.695 204.8 333.409 203.695 335.519 201.584C337.127 199.474 338.232 196.761 338.232 194.048C335.519 164.905 312.908 142.295 284.369 138.577V114.861C284.369 109.434 280.048 105.113 274.621 105.113H247.087C241.661 105.113 237.339 109.434 237.339 114.861V139.079C201.263 145.51 176.442 178.974 180.261 215.653C183.476 251.227 215.834 279.264 253.518 279.264H270.803C277.234 279.264 283.766 281.977 288.087 286.8C292.408 291.624 294.519 298.156 294.016 305.09C292.911 316.948 282.158 326.092 269.195 326.092H244.374C237.339 326.092 231.41 321.269 229.803 314.234C228.697 309.913 224.979 306.698 220.055 306.698H192.018C189.305 306.698 186.592 307.803 184.481 309.913C182.873 312.024 181.768 314.737 182.371 317.45C185.084 346.592 207.695 369.203 236.234 372.921V396.637C236.234 402.063 240.555 406.384 245.982 406.384H273.516C278.943 406.384 283.264 402.063 283.264 396.637V371.816C314.516 365.384 338.232 340.06 340.945 309.813C342.955 289.916 336.524 270.521 323.058 255.447Z"/><path d="M260.05 0C118.76 0 4 114.76 4 256.05C4 397.34 118.76 512 260.05 512C401.34 512 516 397.24 516 256.05C516 114.861 401.24 0 260.05 0ZM50.3262 256.05C50.3262 206.508 67.6106 161.187 96.1499 125.111L156.545 185.506C160.363 169.327 168.403 154.756 179.758 143.501L129.111 92.8534C164.685 64.314 210.508 47.0296 259.548 47.0296C374.911 47.0296 469.171 140.787 469.171 256.653C469.171 306.195 451.887 351.516 423.348 387.09L363.556 326.695C359.737 342.874 351.698 356.842 339.84 368.7L390.487 419.951C354.913 448.49 309.09 465.774 260.05 465.774C144.687 465.674 50.3262 371.313 50.3262 256.05Z"/></svg>