<?xml version="1.0" encoding="utf-8"?>
<svg version="1.1" id="Layer_1" xmlns="http://www.w3.org/2000/svg" xmlns:xlink="http://www.w3.org/1999/xlink" x="0px" y="0px"
	 viewBox="0 0 1440 1440" style="enable-background:new 0 0 1440 1440;" xml:space="preserve">
<style type="text/css">
	.st0{fill:#ED8322;}
	.st1{fill:#D87328;}
	.st2{fill:#F28968;}
	.st3{fill:#2A3540;}
	.st4{fill:#FFFFFF;}
	.st5{fill:#F9AF90;}
	.st6{fill:#9E9E9E;}
	.st7{fill:#D2D2D2;}
	.st8{fill:#898989;}
	.st9{fill:#575757;}
	.st10{fill:#D8D9D8;}
	.st11{fill:#B5B6B6;}
	.st12{fill:#F0EFEF;}
	.st13{fill:#C7C6C5;}
	.st14{fill:#919191;}
	.st15{fill:#767676;}
	.st16{fill:#646464;}
	.st17{fill:url(#SVGID_1_);}
	.st18{fill:url(#SVGID_2_);}
	.st19{fill:#525252;}
	.st20{fill:#7C7B7B;}
	.st21{fill:#B7B7B8;}
	.st22{fill:#C0BFBF;}
	.st23{fill:#CFCFCE;}
	.st24{fill:#ACABAB;}
	.st25{fill:#E9E8E8;}
	.st26{fill:#E2E2E2;}
	.st27{fill:#D3D3D3;}
	.st28{fill:#E5E5E5;}
	.st29{fill:#F9F9FA;}
	.st30{fill:#264DA1;}
	.st31{fill:#F16990;}
	.st32{fill:#91B6E0;}
	.st33{opacity:0.6;fill:#CCCCCC;}
	.st34{fill:#F4F4F4;}
	.st35{fill:#FDB518;}
	.st36{fill:#ED2A8E;}
	.st37{fill:#EF5DA2;}
	.st38{fill:#1569B3;}
	.st39{fill:#EF4983;}
	.st40{fill:url(#SVGID_3_);}
	.st41{fill:#64615B;}
	.st42{fill:#7C7870;}
	.st43{fill:#633718;}
	.st44{fill:#F8A283;}
	.st45{fill:#A04923;}
	.st46{fill:#4070B7;}
	.st47{fill:#1F519A;}
	.st48{fill:#4BB85C;}
	.st49{font-family:'Bebas';}
	.st50{font-size:43.3903px;}
	.st51{fill:#5B82C2;}
	.st52{font-size:31.5494px;}
	.st53{fill:#A0BEE4;}
	.st54{fill:#FED609;}
	.st55{fill:#FAA31B;}
	.st56{fill:#C2C1C1;}
	.st57{fill:#FEEA35;}
	.st58{opacity:0.4;fill:#FCF6B3;}
	.st59{fill:#FCF6B3;}
	.st60{fill:url(#SVGID_4_);}
	.st61{fill:#A5A5A5;}
	.st62{fill:#606161;}
	.st63{fill:#DCDBDB;}
</style>
<g>
	<g>
		<g>
			<g>
				<path class="st0" d="M1238.7,974.3l7.2,5.1c0,0,8.5-4.1,8.6-3.7c-22.3-108.3-44.7-216.6-67-324.9c-14.5-3.6-21.7-5.4-36.1-9.1
					C1181.2,751.8,1208.9,864.1,1238.7,974.3z"/>
			</g>
			<path class="st1" d="M1171.9,657.6c-9.7-2.4-12.7-4.7-18.1-7.1c-0.8-3-1.6-6-2.4-9c14.5,3.6,21.7,5.4,36.1,9.1
				c22.3,108.3,44.7,216.6,67,324.9c-0.1-0.4-8.4,3.7-8.4,3.7C1223.8,871.6,1194.1,765.3,1171.9,657.6z"/>
		</g>
		<g>
			<g>
				<g>
					<path class="st0" d="M579.6,1337.6l-6.9,5.5c0,0-8.7-3.6-8.8-3.2c15.8-109.4,31.7-218.9,47.5-328.3
						c14.2-4.5,21.3-6.7,35.5-11.2C623.8,1112.1,602.8,1225.9,579.6,1337.6z"/>
				</g>
				<path class="st1" d="M627.5,1017.5c9.6-3,12.4-5.5,17.6-8.1c0.6-3,1.3-6.1,1.9-9.1c-14.2,4.5-21.3,6.7-35.5,11.2
					c-15.8,109.4-31.7,218.9-47.5,328.3c0.1-0.4,8.6,3.2,8.6,3.2C588.4,1234.3,611.7,1126.4,627.5,1017.5z"/>
			</g>
			<g>
				<g>
					<path class="st0" d="M209.3,1171l-6.9,5.5c0,0-8.7-3.6-8.8-3.2c15.8-109.4,31.7-218.9,47.5-328.3c14.2-4.5,21.3-6.7,35.5-11.2
						C253.5,945.5,232.5,1059.3,209.3,1171z"/>
				</g>
				<path class="st1" d="M257.2,846.1c9.6-3,12.4-5.5,17.6-8.1c0.6-3,1.3-6.1,1.9-9.1c-14.2,4.5-21.3,6.7-35.5,11.2
					c-15.8,109.4-31.7,218.9-47.5,328.3c0.1-0.4,8.6,3.2,8.6,3.2C218.1,1062.9,241.4,955,257.2,846.1z"/>
			</g>
		</g>
	</g>
	<g>
		<g>
			<path class="st2" d="M912.2,896.5c0,0-39.8-12.5-57.7-9.4c-17.9,3.1-33.5,14.8-28.1,88.1c5.5,73.3,18.7,192.2,18.7,199.2
				c0,7-15.6,33.5-25,39c7,10.1,76.1-1.7,76.1-1.7s-16.1-54.1-12.2-81.6c3.9-27.5,7.1-98,2.2-132.5c-3.2-22.7,40.6,39.8,42.2,30.8
				C934.9,993.8,912.2,896.5,912.2,896.5z"/>
			<path class="st3" d="M894,1201.7c0,0-22.8,26-60,8.3c-7.9-3.8,4-18.5,4-18.5s-50.3-9.1-55.6-3.4c-26.9,28.7,11.2,52.2,31.5,55.3
				c20.3,3.1,48.4,21.1,65.5,20.3c8.9-0.4,31.8-15.7,31.8-15.7L894,1201.7z"/>
			<g>
				<path class="st4" d="M879.4,1255.4c-17.1,0.8-45.2-17.2-65.5-20.3c-14.2-2.2-37.1-14.4-40.4-31.3c-4.1,21.2,24,37,40.4,39.6
					c20.3,3.1,48.4,21.1,65.5,20.3c8.9-0.4,31.8-15.7,31.8-15.7l-2.5-6.6C902.6,1245.2,886.5,1255.1,879.4,1255.4z"/>
			</g>
			<path class="st4" d="M667.3,1303.2c174.2,26.8,207.7,13.5,65.5,20.3"/>
			<path class="st3" d="M1050.8,953.5l-10.3,2.8l-114.7-63.2c-69.4,4.2-57.6,105-47.4,116.7c10.1,11.7,83,86.8,159.4,100.9
				c4.3,0.8,8.7,1.4,13,1.8V953.5z"/>
		</g>
		<g>
			<path class="st5" d="M798.6,967.1c0,0-39.8-12.5-57.7-9.4c-17.9,3.1-33.5,14.8-28.1,88.1c5.5,73.3,18.7,192.2,18.7,199.2
				c0,7-15.6,33.5-25,39c7,10.1,76.1-1.7,76.1-1.7s-16.1-54.1-12.2-81.6c3.9-27.5,7.1-98,2.2-132.5c-3.2-22.7,40.6,39.8,42.2,30.8
				C821.2,1064.4,798.6,967.1,798.6,967.1z"/>
			<path class="st3" d="M780.4,1272.2c0,0-22.8,26-60,8.3c-7.9-3.8,4-18.5,4-18.5s-50.3-9.1-55.6-3.4
				c-26.9,28.7,11.2,52.2,31.5,55.3c20.3,3.1,48.4,21.1,65.5,20.3c8.9-0.4,31.8-15.7,31.8-15.7L780.4,1272.2z"/>
			<g>
				<path class="st4" d="M765.8,1326c-17.1,0.8-45.2-17.2-65.5-20.3c-14.2-2.2-37.1-14.4-40.4-31.3c-4.1,21.1,24,37,40.4,39.6
					c20.3,3.1,48.4,21.1,65.5,20.3c8.9-0.4,31.8-15.7,31.8-15.7l-2.5-6.6C789,1315.8,772.9,1325.6,765.8,1326z"/>
			</g>
		</g>
		<g>
			<g>
				<path class="st6" d="M868.5,1440c0,0,84.8-80.2,95.9-86.1c13-6.9,123,41.6,139.5,52.7c16.5-9,18.3-22,18.3-22
					s-88.5-52.7-118.7-67.4c-6.6-3.2,47.5-49.5,58.1-57.5c-5.9-2.6-30-10.2-30-10.2s-67.1,42-78.3,45.9
					c-17.1-2.6-119.5-24.6-119.5-24.6l-27.1,18.8c0,0,100.1,36.8,103.2,40.9c3.2,4.1-74.5,95.2-74.5,95.2L868.5,1440z"/>
				<path class="st7" d="M868.5,1440c0,0,82.2-89.3,93.3-95.2c13-6.9,125.6,50.8,142.1,61.8c16.5-9,18.3-22,18.3-22
					s-93.4-56.6-123.6-71.3c-6.6-3.2,52.4-45.6,63-53.6c-5.9-2.6-30-10.2-30-10.2s-67.1,42-78.3,45.9
					c-17.1-2.6-119.5-24.6-119.5-24.6l-27.1,18.8c0,0,101.4,29.7,104.6,33.8s-75.9,102.3-75.9,102.3L868.5,1440z"/>
			</g>
			<g>
				<path class="st6" d="M933.2,1314.3v-67.9h45.4v67.9c0.2,3.5-1.9,7.1-6.6,9.8c-8.9,5.1-23.3,5.1-32.2,0
					C935.1,1321.4,933,1317.9,933.2,1314.3z"/>
			</g>
		</g>
		<g>
			<path class="st8" d="M746.9,1151.9c0,0,155,124.9,196.3,112.4c41.3-12.5,182.4-121.1,182.4-121.1l-91.5-83.8
				c0,0-100.6-56.2-178.4-22C777.9,1071.5,704.4,1104.8,746.9,1151.9z"/>
			<path class="st9" d="M747.8,1123.9c0,0,165.5,134.3,206.8,121.7c41.3-12.5,182.4-121.1,182.4-121.1l-91.5-83.8
				c0,0-84.6-49.6-162.5-15.4C805.3,1059.6,707.6,1095.7,747.8,1123.9z"/>
		</g>
	</g>
	<path class="st3" d="M926.8,1026.9l-114.7-63.2c-69.4,4.2-57.6,105-47.4,116.7c10.1,11.7,83,86.8,159.4,100.9
		c76.4,14,164.5-32.7,168.4-82.7c3.9-49.9-32.9-107.9-32.9-107.9L926.8,1026.9z"/>
	<polygon class="st10" points="571.7,1077 1250,685.4 1250,663.6 863.9,462.5 571.7,1055.1 	"/>
	<g>
		<polygon class="st11" points="571.7,1077 1250,685.4 1250,663.6 863.9,462.5 185.6,832.2 185.6,854.1 		"/>
		<polygon class="st12" points="571.7,1055.1 1250,663.6 863.9,440.6 185.6,832.2 		"/>
	</g>
	<g>
		<g>
			<g>
				<polygon class="st13" points="789.7,516.5 1027.5,653.7 1060.1,527.2 1027.5,422.7 789.7,285.5 				"/>
				<polygon class="st11" points="1102.4,610.4 1027.5,653.7 1027.5,422.7 1102.4,379.4 				"/>
				<polygon class="st14" points="1098.6,571 1032.2,609.4 1032.2,627.2 1098.6,588.9 				"/>
				<polygon class="st14" points="1098.6,548 1032.2,586.4 1032.2,604.2 1098.6,565.9 				"/>
				<polygon class="st14" points="1098.6,525 1032.2,563.4 1032.2,581.2 1098.6,542.9 				"/>
				<g>
					<polygon class="st15" points="1052.5,479.1 1036.2,488.5 1036.2,496.1 1052.5,486.7 					"/>
					<polygon class="st14" points="1045.8,483 1036.2,488.5 1036.2,496.1 1052.5,486.7 					"/>
				</g>
				<g>
					<polygon class="st15" points="1073.5,467.3 1057.2,476.7 1057.2,484.2 1073.5,474.8 					"/>
					<polygon class="st14" points="1066.8,471.1 1057.2,476.7 1057.2,484.2 1073.5,474.8 					"/>
				</g>
				<g>
					<polygon class="st15" points="1094.6,455.4 1078.3,464.9 1078.3,472.4 1094.6,463 					"/>
					<polygon class="st14" points="1087.9,459.3 1078.3,464.9 1078.3,472.4 1094.6,463 					"/>
				</g>
				<polygon class="st16" points="1102.4,463 1027.5,506.3 1027.5,510.2 1102.4,466.9 				"/>
				<polygon class="st12" points="864.6,242.2 1102.4,379.4 1027.5,422.7 789.7,285.5 				"/>
			</g>
			<g>
				<path class="st14" d="M901.1,390.4c0,1.3,0.9,2.9,2.1,3.6c1.1,0.7,2.1,0.1,2.1-1.2c0-1.3-0.9-2.9-2.1-3.6
					C902,388.5,901.1,389.1,901.1,390.4z"/>
				<path class="st14" d="M893.5,386c0,1.3,0.9,2.9,2.1,3.6c1.2,0.7,2.1,0.1,2.1-1.2c0-1.3-0.9-2.9-2.1-3.6
					C894.4,384.1,893.5,384.7,893.5,386z"/>
				<path class="st14" d="M885.9,381.6c0,1.3,0.9,2.9,2.1,3.6c1.1,0.7,2.1,0.1,2.1-1.2c0-1.3-0.9-2.9-2.1-3.6
					C886.8,379.7,885.9,380.3,885.9,381.6z"/>
				<path class="st14" d="M878.2,377.2c0,1.3,0.9,2.9,2.1,3.6c1.1,0.7,2.1,0.1,2.1-1.2c0-1.3-0.9-2.9-2.1-3.6
					C879.2,375.3,878.2,375.9,878.2,377.2z"/>
				<path class="st14" d="M870.6,372.8c0,1.3,0.9,2.9,2.1,3.6c1.1,0.7,2.1,0.1,2.1-1.2c0-1.3-0.9-2.9-2.1-3.6
					C871.6,370.9,870.6,371.5,870.6,372.8z"/>
				<path class="st14" d="M863,368.4c0,1.3,0.9,2.9,2.1,3.6c1.1,0.7,2.1,0.1,2.1-1.2c0-1.3-0.9-2.9-2.1-3.6
					C863.9,366.5,863,367.1,863,368.4z"/>
				<path class="st14" d="M855.4,364c0,1.3,0.9,2.9,2.1,3.6c1.1,0.7,2.1,0.1,2.1-1.2c0-1.3-0.9-2.9-2.1-3.6
					C856.3,362.1,855.4,362.7,855.4,364z"/>
				<path class="st14" d="M847.8,359.6c0,1.3,0.9,2.9,2.1,3.6c1.1,0.7,2.1,0.1,2.1-1.2c0-1.3-0.9-2.9-2.1-3.6
					C848.7,357.7,847.8,358.3,847.8,359.6z"/>
				<path class="st14" d="M840.2,355.2c0,1.3,0.9,2.9,2.1,3.6c1.1,0.7,2.1,0.1,2.1-1.2c0-1.3-0.9-2.9-2.1-3.6
					C841.1,353.3,840.2,353.9,840.2,355.2z"/>
				<path class="st14" d="M832.5,350.8c0,1.3,0.9,2.9,2.1,3.6c1.1,0.7,2.1,0.1,2.1-1.2c0-1.3-0.9-2.9-2.1-3.6
					C833.5,348.9,832.5,349.5,832.5,350.8z"/>
				<path class="st14" d="M897.3,393.7c0,1.3,0.9,2.9,2.1,3.6c1.2,0.7,2.1,0.1,2.1-1.2c0-1.3-0.9-2.9-2.1-3.6
					C898.2,391.8,897.3,392.4,897.3,393.7z"/>
				<path class="st14" d="M889.7,389.3c0,1.3,0.9,2.9,2.1,3.6c1.1,0.7,2.1,0.1,2.1-1.2c0-1.3-0.9-2.9-2.1-3.6
					C890.6,387.4,889.7,388,889.7,389.3z"/>
				<path class="st14" d="M882,384.9c0,1.3,0.9,2.9,2.1,3.6c1.1,0.7,2.1,0.1,2.1-1.2c0-1.3-0.9-2.9-2.1-3.6
					C883,383,882,383.6,882,384.9z"/>
				<path class="st14" d="M874.4,380.5c0,1.3,0.9,2.9,2.1,3.6c1.1,0.7,2.1,0.1,2.1-1.2c0-1.3-0.9-2.9-2.1-3.6
					C875.4,378.7,874.4,379.2,874.4,380.5z"/>
				<path class="st14" d="M866.8,376.1c0,1.3,0.9,2.9,2.1,3.6c1.1,0.7,2.1,0.1,2.1-1.2c0-1.3-0.9-2.9-2.1-3.6
					C867.7,374.3,866.8,374.8,866.8,376.1z"/>
				<path class="st14" d="M859.2,371.7c0,1.3,0.9,2.9,2.1,3.6c1.1,0.7,2.1,0.1,2.1-1.2c0-1.3-0.9-2.9-2.1-3.6
					C860.1,369.9,859.2,370.4,859.2,371.7z"/>
				<path class="st14" d="M851.6,367.3c0,1.3,0.9,2.9,2.1,3.6c1.1,0.7,2.1,0.1,2.1-1.2c0-1.3-0.9-2.9-2.1-3.6
					C852.5,365.5,851.6,366,851.6,367.3z"/>
				<path class="st14" d="M844,362.9c0,1.3,0.9,2.9,2.1,3.6c1.1,0.7,2.1,0.1,2.1-1.2c0-1.3-0.9-2.9-2.1-3.6
					C844.9,361.1,844,361.6,844,362.9z"/>
				<path class="st14" d="M836.3,358.5c0,1.3,0.9,2.9,2.1,3.6c1.1,0.7,2.1,0.1,2.1-1.2c0-1.3-0.9-2.9-2.1-3.6
					C837.3,356.7,836.3,357.2,836.3,358.5z"/>
				<path class="st14" d="M901.1,401.4c0,1.3,0.9,2.9,2.1,3.6c1.2,0.7,2.1,0.1,2.1-1.2c0-1.3-0.9-2.9-2.1-3.6
					C902,399.6,901.1,400.1,901.1,401.4z"/>
				<path class="st14" d="M893.5,397c0,1.3,0.9,2.9,2.1,3.6c1.2,0.7,2.1,0.1,2.1-1.2c0-1.3-0.9-2.9-2.1-3.6
					C894.4,395.2,893.5,395.7,893.5,397z"/>
				<path class="st14" d="M885.9,392.6c0,1.3,0.9,2.9,2.1,3.6c1.1,0.7,2.1,0.1,2.1-1.2c0-1.3-0.9-2.9-2.1-3.6
					C886.8,390.8,885.9,391.3,885.9,392.6z"/>
				<path class="st14" d="M878.2,388.2c0,1.3,0.9,2.9,2.1,3.6c1.1,0.7,2.1,0.1,2.1-1.2c0-1.3-0.9-2.9-2.1-3.6
					C879.2,386.4,878.2,386.9,878.2,388.2z"/>
				<path class="st14" d="M870.6,383.8c0,1.3,0.9,2.9,2.1,3.6c1.1,0.7,2.1,0.1,2.1-1.2c0-1.3-0.9-2.9-2.1-3.6
					C871.6,382,870.6,382.5,870.6,383.8z"/>
				<path class="st14" d="M863,379.4c0,1.3,0.9,2.9,2.1,3.6c1.1,0.7,2.1,0.1,2.1-1.2c0-1.3-0.9-2.9-2.1-3.6
					C863.9,377.6,863,378.1,863,379.4z"/>
				<path class="st14" d="M855.4,375c0,1.3,0.9,2.9,2.1,3.6c1.1,0.7,2.1,0.1,2.1-1.2c0-1.3-0.9-2.9-2.1-3.6
					C856.3,373.2,855.4,373.7,855.4,375z"/>
				<path class="st14" d="M847.8,370.6c0,1.3,0.9,2.9,2.1,3.6c1.1,0.7,2.1,0.1,2.1-1.2c0-1.3-0.9-2.9-2.1-3.6
					C848.7,368.8,847.8,369.3,847.8,370.6z"/>
				<path class="st14" d="M840.2,366.2c0,1.3,0.9,2.9,2.1,3.6c1.1,0.7,2.1,0.1,2.1-1.2c0-1.3-0.9-2.9-2.1-3.6
					C841.1,364.4,840.2,364.9,840.2,366.2z"/>
				<path class="st14" d="M832.5,361.9c0,1.3,0.9,2.9,2.1,3.6c1.1,0.7,2.1,0.1,2.1-1.2c0-1.3-0.9-2.9-2.1-3.6
					C833.5,360,832.5,360.5,832.5,361.9z"/>
				<path class="st14" d="M897.3,404.8c0,1.3,0.9,2.9,2.1,3.6c1.2,0.7,2.1,0.1,2.1-1.2c0-1.3-0.9-2.9-2.1-3.6
					C898.2,402.9,897.3,403.4,897.3,404.8z"/>
				<path class="st14" d="M889.7,400.4c0,1.3,0.9,2.9,2.1,3.6c1.1,0.7,2.1,0.1,2.1-1.2c0-1.3-0.9-2.9-2.1-3.6
					C890.6,398.5,889.7,399,889.7,400.4z"/>
				<path class="st14" d="M882,396c0,1.3,0.9,2.9,2.1,3.6c1.1,0.7,2.1,0.1,2.1-1.2c0-1.3-0.9-2.9-2.1-3.6
					C883,394.1,882,394.6,882,396z"/>
				<path class="st14" d="M874.4,391.6c0,1.3,0.9,2.9,2.1,3.6c1.1,0.7,2.1,0.1,2.1-1.2c0-1.3-0.9-2.9-2.1-3.6
					C875.4,389.7,874.4,390.2,874.4,391.6z"/>
				<path class="st14" d="M866.8,387.2c0,1.3,0.9,2.9,2.1,3.6c1.1,0.7,2.1,0.1,2.1-1.2c0-1.3-0.9-2.9-2.1-3.6
					C867.7,385.3,866.8,385.8,866.8,387.2z"/>
				<path class="st14" d="M859.2,382.8c0,1.3,0.9,2.9,2.1,3.6c1.1,0.7,2.1,0.1,2.1-1.2c0-1.3-0.9-2.9-2.1-3.6
					C860.1,380.9,859.2,381.4,859.2,382.8z"/>
				<path class="st14" d="M851.6,378.4c0,1.3,0.9,2.9,2.1,3.6c1.1,0.7,2.1,0.1,2.1-1.2c0-1.3-0.9-2.9-2.1-3.6
					C852.5,376.5,851.6,377,851.6,378.4z"/>
				<path class="st14" d="M844,374c0,1.3,0.9,2.9,2.1,3.6c1.1,0.7,2.1,0.1,2.1-1.2c0-1.3-0.9-2.9-2.1-3.6
					C844.9,372.1,844,372.6,844,374z"/>
				<path class="st14" d="M836.3,369.6c0,1.3,0.9,2.9,2.1,3.6c1.1,0.7,2.1,0.1,2.1-1.2c0-1.3-0.9-2.9-2.1-3.6
					C837.3,367.7,836.3,368.2,836.3,369.6z"/>
				<path class="st14" d="M901.1,412.5c0,1.3,0.9,2.9,2.1,3.6c1.2,0.7,2.1,0.1,2.1-1.2c0-1.3-0.9-2.9-2.1-3.6
					C902,410.6,901.1,411.1,901.1,412.5z"/>
				<path class="st14" d="M893.5,408.1c0,1.3,0.9,2.9,2.1,3.6c1.2,0.7,2.1,0.1,2.1-1.2c0-1.3-0.9-2.9-2.1-3.6
					C894.4,406.2,893.5,406.7,893.5,408.1z"/>
				<path class="st14" d="M885.9,403.7c0,1.3,0.9,2.9,2.1,3.6c1.2,0.7,2.1,0.1,2.1-1.2c0-1.3-0.9-2.9-2.1-3.6
					C886.8,401.8,885.9,402.3,885.9,403.7z"/>
				<path class="st14" d="M878.2,399.3c0,1.3,0.9,2.9,2.1,3.6c1.1,0.7,2.1,0.1,2.1-1.2c0-1.3-0.9-2.9-2.1-3.6
					C879.2,397.4,878.2,398,878.2,399.3z"/>
				<path class="st14" d="M870.6,394.9c0,1.3,0.9,2.9,2.1,3.6c1.1,0.7,2.1,0.1,2.1-1.2c0-1.3-0.9-2.9-2.1-3.6
					C871.6,393,870.6,393.6,870.6,394.9z"/>
				<path class="st14" d="M863,390.5c0,1.3,0.9,2.9,2.1,3.6c1.1,0.7,2.1,0.1,2.1-1.2c0-1.3-0.9-2.9-2.1-3.6
					C863.9,388.6,863,389.2,863,390.5z"/>
				<path class="st14" d="M855.4,386.1c0,1.3,0.9,2.9,2.1,3.6c1.1,0.7,2.1,0.1,2.1-1.2c0-1.3-0.9-2.9-2.1-3.6
					C856.3,384.2,855.4,384.8,855.4,386.1z"/>
				<path class="st14" d="M847.8,381.7c0,1.3,0.9,2.9,2.1,3.6c1.1,0.7,2.1,0.1,2.1-1.2c0-1.3-0.9-2.9-2.1-3.6
					C848.7,379.8,847.8,380.4,847.8,381.7z"/>
				<path class="st14" d="M840.2,377.3c0,1.3,0.9,2.9,2.1,3.6c1.1,0.7,2.1,0.1,2.1-1.2c0-1.3-0.9-2.9-2.1-3.6
					C841.1,375.4,840.2,376,840.2,377.3z"/>
				<path class="st14" d="M832.5,372.9c0,1.3,0.9,2.9,2.1,3.6c1.1,0.7,2.1,0.1,2.1-1.2c0-1.3-0.9-2.9-2.1-3.6
					C833.5,371,832.5,371.6,832.5,372.9z"/>
				<path class="st14" d="M897.3,415.8c0,1.3,0.9,2.9,2.1,3.6c1.2,0.7,2.1,0.1,2.1-1.2c0-1.3-0.9-2.9-2.1-3.6
					C898.2,413.9,897.3,414.5,897.3,415.8z"/>
				<path class="st14" d="M889.7,411.4c0,1.3,0.9,2.9,2.1,3.6c1.1,0.7,2.1,0.1,2.1-1.2c0-1.3-0.9-2.9-2.1-3.6
					C890.6,409.5,889.7,410.1,889.7,411.4z"/>
				<path class="st14" d="M882,407c0,1.3,0.9,2.9,2.1,3.6c1.1,0.7,2.1,0.1,2.1-1.2c0-1.3-0.9-2.9-2.1-3.6
					C883,405.1,882,405.7,882,407z"/>
				<path class="st14" d="M874.4,402.6c0,1.3,0.9,2.9,2.1,3.6c1.1,0.7,2.1,0.1,2.1-1.2c0-1.3-0.9-2.9-2.1-3.6
					C875.4,400.7,874.4,401.3,874.4,402.6z"/>
				<path class="st14" d="M866.8,398.2c0,1.3,0.9,2.9,2.1,3.6c1.1,0.7,2.1,0.1,2.1-1.2c0-1.3-0.9-2.9-2.1-3.6
					C867.7,396.3,866.8,396.9,866.8,398.2z"/>
				<path class="st14" d="M859.2,393.8c0,1.3,0.9,2.9,2.1,3.6c1.1,0.7,2.1,0.1,2.1-1.2c0-1.3-0.9-2.9-2.1-3.6
					C860.1,391.9,859.2,392.5,859.2,393.8z"/>
				<path class="st14" d="M851.6,389.4c0,1.3,0.9,2.9,2.1,3.6c1.1,0.7,2.1,0.1,2.1-1.2c0-1.3-0.9-2.9-2.1-3.6
					C852.5,387.5,851.6,388.1,851.6,389.4z"/>
				<path class="st14" d="M844,385c0,1.3,0.9,2.9,2.1,3.6c1.1,0.7,2.1,0.1,2.1-1.2s-0.9-2.9-2.1-3.6C844.9,383.1,844,383.7,844,385z
					"/>
				<path class="st14" d="M836.3,380.6c0,1.3,0.9,2.9,2.1,3.6c1.2,0.7,2.1,0.1,2.1-1.2c0-1.3-0.9-2.9-2.1-3.6
					C837.3,378.8,836.3,379.3,836.3,380.6z"/>
				<path class="st14" d="M901.1,423.5c0,1.3,0.9,2.9,2.1,3.6c1.2,0.7,2.1,0.1,2.1-1.2c0-1.3-0.9-2.9-2.1-3.6
					C902,421.6,901.1,422.2,901.1,423.5z"/>
				<path class="st14" d="M893.5,419.1c0,1.3,0.9,2.9,2.1,3.6c1.2,0.7,2.1,0.1,2.1-1.2c0-1.3-0.9-2.9-2.1-3.6
					C894.4,417.3,893.5,417.8,893.5,419.1z"/>
				<path class="st14" d="M885.9,414.7c0,1.3,0.9,2.9,2.1,3.6c1.2,0.7,2.1,0.1,2.1-1.2c0-1.3-0.9-2.9-2.1-3.6
					C886.8,412.9,885.9,413.4,885.9,414.7z"/>
				<path class="st14" d="M878.2,410.3c0,1.3,0.9,2.9,2.1,3.6c1.1,0.7,2.1,0.1,2.1-1.2c0-1.3-0.9-2.9-2.1-3.6
					C879.2,408.5,878.2,409,878.2,410.3z"/>
				<path class="st14" d="M870.6,405.9c0,1.3,0.9,2.9,2.1,3.6c1.2,0.7,2.1,0.1,2.1-1.2c0-1.3-0.9-2.9-2.1-3.6
					C871.6,404.1,870.6,404.6,870.6,405.9z"/>
				<path class="st14" d="M863,401.5c0,1.3,0.9,2.9,2.1,3.6c1.1,0.7,2.1,0.1,2.1-1.2c0-1.3-0.9-2.9-2.1-3.6
					C863.9,399.7,863,400.2,863,401.5z"/>
				<path class="st14" d="M855.4,397.1c0,1.3,0.9,2.9,2.1,3.6c1.1,0.7,2.1,0.1,2.1-1.2c0-1.3-0.9-2.9-2.1-3.6
					C856.3,395.3,855.4,395.8,855.4,397.1z"/>
				<path class="st14" d="M847.8,392.7c0,1.3,0.9,2.9,2.1,3.6c1.1,0.7,2.1,0.1,2.1-1.2c0-1.3-0.9-2.9-2.1-3.6
					C848.7,390.9,847.8,391.4,847.8,392.7z"/>
				<path class="st14" d="M840.2,388.3c0,1.3,0.9,2.9,2.1,3.6c1.1,0.7,2.1,0.1,2.1-1.2c0-1.3-0.9-2.9-2.1-3.6
					C841.1,386.5,840.2,387,840.2,388.3z"/>
				<path class="st14" d="M832.5,383.9c0,1.3,0.9,2.9,2.1,3.6c1.1,0.7,2.1,0.1,2.1-1.2c0-1.3-0.9-2.9-2.1-3.6
					C833.5,382.1,832.5,382.6,832.5,383.9z"/>
				<path class="st14" d="M897.3,426.8c0,1.3,0.9,2.9,2.1,3.6c1.2,0.7,2.1,0.1,2.1-1.2c0-1.3-0.9-2.9-2.1-3.6
					C898.2,425,897.3,425.5,897.3,426.8z"/>
				<path class="st14" d="M889.7,422.4c0,1.3,0.9,2.9,2.1,3.6c1.1,0.7,2.1,0.1,2.1-1.2c0-1.3-0.9-2.9-2.1-3.6
					C890.6,420.6,889.7,421.1,889.7,422.4z"/>
				<path class="st14" d="M882,418c0,1.3,0.9,2.9,2.1,3.6c1.1,0.7,2.1,0.1,2.1-1.2c0-1.3-0.9-2.9-2.1-3.6
					C883,416.2,882,416.7,882,418z"/>
				<path class="st14" d="M874.4,413.6c0,1.3,0.9,2.9,2.1,3.6c1.1,0.7,2.1,0.1,2.1-1.2c0-1.3-0.9-2.9-2.1-3.6
					C875.4,411.8,874.4,412.3,874.4,413.6z"/>
				<path class="st14" d="M866.8,409.2c0,1.3,0.9,2.9,2.1,3.6c1.1,0.7,2.1,0.1,2.1-1.2c0-1.3-0.9-2.9-2.1-3.6
					C867.7,407.4,866.8,407.9,866.8,409.2z"/>
				<path class="st14" d="M859.2,404.9c0,1.3,0.9,2.9,2.1,3.6c1.1,0.7,2.1,0.1,2.1-1.2c0-1.3-0.9-2.9-2.1-3.6
					C860.1,403,859.2,403.5,859.2,404.9z"/>
				<path class="st14" d="M851.6,400.5c0,1.3,0.9,2.9,2.1,3.6c1.1,0.7,2.1,0.1,2.1-1.2c0-1.3-0.9-2.9-2.1-3.6
					C852.5,398.6,851.6,399.1,851.6,400.5z"/>
				<path class="st14" d="M844,396.1c0,1.3,0.9,2.9,2.1,3.6c1.1,0.7,2.1,0.1,2.1-1.2c0-1.3-0.9-2.9-2.1-3.6
					C844.9,394.2,844,394.7,844,396.1z"/>
				<path class="st14" d="M836.3,391.7c0,1.3,0.9,2.9,2.1,3.6c1.2,0.7,2.1,0.1,2.1-1.2c0-1.3-0.9-2.9-2.1-3.6
					C837.3,389.8,836.3,390.3,836.3,391.7z"/>
				<path class="st14" d="M901.1,434.6c0,1.3,0.9,2.9,2.1,3.6c1.2,0.7,2.1,0.1,2.1-1.2c0-1.3-0.9-2.9-2.1-3.6
					C902,432.7,901.1,433.2,901.1,434.6z"/>
				<path class="st14" d="M893.5,430.2c0,1.3,0.9,2.9,2.1,3.6c1.2,0.7,2.1,0.1,2.1-1.2c0-1.3-0.9-2.9-2.1-3.6
					C894.4,428.3,893.5,428.8,893.5,430.2z"/>
				<path class="st14" d="M885.9,425.8c0,1.3,0.9,2.9,2.1,3.6c1.2,0.7,2.1,0.1,2.1-1.2c0-1.3-0.9-2.9-2.1-3.6
					C886.8,423.9,885.9,424.4,885.9,425.8z"/>
				<path class="st14" d="M878.2,421.4c0,1.3,0.9,2.9,2.1,3.6c1.1,0.7,2.1,0.1,2.1-1.2c0-1.3-0.9-2.9-2.1-3.6
					C879.2,419.5,878.2,420,878.2,421.4z"/>
				<path class="st14" d="M870.6,417c0,1.3,0.9,2.9,2.1,3.6c1.2,0.7,2.1,0.1,2.1-1.2c0-1.3-0.9-2.9-2.1-3.6
					C871.6,415.1,870.6,415.6,870.6,417z"/>
				<path class="st14" d="M863,412.6c0,1.3,0.9,2.9,2.1,3.6c1.1,0.7,2.1,0.1,2.1-1.2c0-1.3-0.9-2.9-2.1-3.6
					C863.9,410.7,863,411.2,863,412.6z"/>
				<path class="st14" d="M855.4,408.2c0,1.3,0.9,2.9,2.1,3.6c1.1,0.7,2.1,0.1,2.1-1.2c0-1.3-0.9-2.9-2.1-3.6
					C856.3,406.3,855.4,406.8,855.4,408.2z"/>
				<path class="st14" d="M847.8,403.8c0,1.3,0.9,2.9,2.1,3.6c1.1,0.7,2.1,0.1,2.1-1.2c0-1.3-0.9-2.9-2.1-3.6
					C848.7,401.9,847.8,402.5,847.8,403.8z"/>
				<path class="st14" d="M840.2,399.4c0,1.3,0.9,2.9,2.1,3.6c1.1,0.7,2.1,0.1,2.1-1.2c0-1.3-0.9-2.9-2.1-3.6
					C841.1,397.5,840.2,398.1,840.2,399.4z"/>
				<path class="st14" d="M832.5,395c0,1.3,0.9,2.9,2.1,3.6c1.1,0.7,2.1,0.1,2.1-1.2c0-1.3-0.9-2.9-2.1-3.6
					C833.5,393.1,832.5,393.7,832.5,395z"/>
				<path class="st14" d="M897.3,437.9c0,1.3,0.9,2.9,2.1,3.6c1.2,0.7,2.1,0.1,2.1-1.2c0-1.3-0.9-2.9-2.1-3.6
					C898.2,436,897.3,436.6,897.3,437.9z"/>
				<path class="st14" d="M889.7,433.5c0,1.3,0.9,2.9,2.1,3.6c1.1,0.7,2.1,0.1,2.1-1.2c0-1.3-0.9-2.9-2.1-3.6
					C890.6,431.6,889.7,432.2,889.7,433.5z"/>
				<path class="st14" d="M882,429.1c0,1.3,0.9,2.9,2.1,3.6c1.1,0.7,2.1,0.1,2.1-1.2c0-1.3-0.9-2.9-2.1-3.6
					C883,427.2,882,427.8,882,429.1z"/>
				<path class="st14" d="M874.4,424.7c0,1.3,0.9,2.9,2.1,3.6c1.1,0.7,2.1,0.1,2.1-1.2c0-1.3-0.9-2.9-2.1-3.6
					C875.4,422.8,874.4,423.4,874.4,424.7z"/>
				<path class="st14" d="M866.8,420.3c0,1.3,0.9,2.9,2.1,3.6c1.1,0.7,2.1,0.1,2.1-1.2c0-1.3-0.9-2.9-2.1-3.6
					C867.7,418.4,866.8,419,866.8,420.3z"/>
				<path class="st14" d="M859.2,415.9c0,1.3,0.9,2.9,2.1,3.6c1.1,0.7,2.1,0.1,2.1-1.2c0-1.3-0.9-2.9-2.1-3.6
					C860.1,414,859.2,414.6,859.2,415.9z"/>
				<path class="st14" d="M851.6,411.5c0,1.3,0.9,2.9,2.1,3.6c1.1,0.7,2.1,0.1,2.1-1.2c0-1.3-0.9-2.9-2.1-3.6
					C852.5,409.6,851.6,410.2,851.6,411.5z"/>
				<path class="st14" d="M844,407.1c0,1.3,0.9,2.9,2.1,3.6c1.1,0.7,2.1,0.1,2.1-1.2c0-1.3-0.9-2.9-2.1-3.6
					C844.9,405.2,844,405.8,844,407.1z"/>
				<path class="st14" d="M836.3,402.7c0,1.3,0.9,2.9,2.1,3.6c1.2,0.7,2.1,0.1,2.1-1.2c0-1.3-0.9-2.9-2.1-3.6
					C837.3,400.8,836.3,401.4,836.3,402.7z"/>
				<path class="st14" d="M901.1,445.6c0,1.3,0.9,2.9,2.1,3.6c1.2,0.7,2.1,0.1,2.1-1.2c0-1.3-0.9-2.9-2.1-3.6
					C902,443.7,901.1,444.3,901.1,445.6z"/>
				<path class="st14" d="M893.5,441.2c0,1.3,0.9,2.9,2.1,3.6c1.2,0.7,2.1,0.1,2.1-1.2c0-1.3-0.9-2.9-2.1-3.6
					C894.4,439.3,893.5,439.9,893.5,441.2z"/>
				<path class="st14" d="M885.9,436.8c0,1.3,0.9,2.9,2.1,3.6c1.2,0.7,2.1,0.1,2.1-1.2c0-1.3-0.9-2.9-2.1-3.6
					C886.8,434.9,885.9,435.5,885.9,436.8z"/>
				<path class="st14" d="M878.2,432.4c0,1.3,0.9,2.9,2.1,3.6c1.1,0.7,2.1,0.1,2.1-1.2c0-1.3-0.9-2.9-2.1-3.6
					C879.2,430.5,878.2,431.1,878.2,432.4z"/>
				<path class="st14" d="M870.6,428c0,1.3,0.9,2.9,2.1,3.6c1.2,0.7,2.1,0.1,2.1-1.2c0-1.3-0.9-2.9-2.1-3.6
					C871.6,426.1,870.6,426.7,870.6,428z"/>
				<path class="st14" d="M863,423.6c0,1.3,0.9,2.9,2.1,3.6c1.1,0.7,2.1,0.1,2.1-1.2c0-1.3-0.9-2.9-2.1-3.6
					C863.9,421.8,863,422.3,863,423.6z"/>
				<path class="st14" d="M855.4,419.2c0,1.3,0.9,2.9,2.1,3.6c1.1,0.7,2.1,0.1,2.1-1.2c0-1.3-0.9-2.9-2.1-3.6
					C856.3,417.4,855.4,417.9,855.4,419.2z"/>
				<path class="st14" d="M847.8,414.8c0,1.3,0.9,2.9,2.1,3.6c1.1,0.7,2.1,0.1,2.1-1.2c0-1.3-0.9-2.9-2.1-3.6
					C848.7,413,847.8,413.5,847.8,414.8z"/>
				<path class="st14" d="M840.2,410.4c0,1.3,0.9,2.9,2.1,3.6c1.1,0.7,2.1,0.1,2.1-1.2c0-1.3-0.9-2.9-2.1-3.6
					C841.1,408.6,840.2,409.1,840.2,410.4z"/>
				<path class="st14" d="M832.5,406c0,1.3,0.9,2.9,2.1,3.6c1.1,0.7,2.1,0.1,2.1-1.2c0-1.3-0.9-2.9-2.1-3.6
					C833.5,404.2,832.5,404.7,832.5,406z"/>
				<path class="st14" d="M897.3,448.9c0,1.3,0.9,2.9,2.1,3.6c1.2,0.7,2.1,0.1,2.1-1.2c0-1.3-0.9-2.9-2.1-3.6
					C898.2,447.1,897.3,447.6,897.3,448.9z"/>
				<path class="st14" d="M889.7,444.5c0,1.3,0.9,2.9,2.1,3.6c1.1,0.7,2.1,0.1,2.1-1.2c0-1.3-0.9-2.9-2.1-3.6
					C890.6,442.7,889.7,443.2,889.7,444.5z"/>
				<path class="st14" d="M882,440.1c0,1.3,0.9,2.9,2.1,3.6c1.1,0.7,2.1,0.1,2.1-1.2c0-1.3-0.9-2.9-2.1-3.6
					C883,438.3,882,438.8,882,440.1z"/>
				<path class="st14" d="M874.4,435.7c0,1.3,0.9,2.9,2.1,3.6c1.1,0.7,2.1,0.1,2.1-1.2c0-1.3-0.9-2.9-2.1-3.6
					C875.4,433.9,874.4,434.4,874.4,435.7z"/>
				<path class="st14" d="M866.8,431.3c0,1.3,0.9,2.9,2.1,3.6c1.1,0.7,2.1,0.1,2.1-1.2c0-1.3-0.9-2.9-2.1-3.6
					C867.7,429.5,866.8,430,866.8,431.3z"/>
				<path class="st14" d="M859.2,426.9c0,1.3,0.9,2.9,2.1,3.6c1.1,0.7,2.1,0.1,2.1-1.2c0-1.3-0.9-2.9-2.1-3.6
					C860.1,425.1,859.2,425.6,859.2,426.9z"/>
				<path class="st14" d="M851.6,422.5c0,1.3,0.9,2.9,2.1,3.6c1.1,0.7,2.1,0.1,2.1-1.2c0-1.3-0.9-2.9-2.1-3.6
					C852.5,420.7,851.6,421.2,851.6,422.5z"/>
				<path class="st14" d="M844,418.1c0,1.3,0.9,2.9,2.1,3.6c1.1,0.7,2.1,0.1,2.1-1.2c0-1.3-0.9-2.9-2.1-3.6
					C844.9,416.3,844,416.8,844,418.1z"/>
				<path class="st14" d="M836.3,413.8c0,1.3,0.9,2.9,2.1,3.6c1.2,0.7,2.1,0.1,2.1-1.2c0-1.3-0.9-2.9-2.1-3.6
					C837.3,411.9,836.3,412.4,836.3,413.8z"/>
				<path class="st14" d="M901.1,456.6c0,1.3,0.9,2.9,2.1,3.6c1.2,0.7,2.1,0.1,2.1-1.2c0-1.3-0.9-2.9-2.1-3.6
					C902,454.8,901.1,455.3,901.1,456.6z"/>
				<path class="st14" d="M893.5,452.3c0,1.3,0.9,2.9,2.1,3.6c1.2,0.7,2.1,0.1,2.1-1.2c0-1.3-0.9-2.9-2.1-3.6
					C894.4,450.4,893.5,450.9,893.5,452.3z"/>
				<path class="st14" d="M885.9,447.9c0,1.3,0.9,2.9,2.1,3.6c1.2,0.7,2.1,0.1,2.1-1.2c0-1.3-0.9-2.9-2.1-3.6
					C886.8,446,885.9,446.5,885.9,447.9z"/>
				<path class="st14" d="M878.2,443.5c0,1.3,0.9,2.9,2.1,3.6c1.1,0.7,2.1,0.1,2.1-1.2c0-1.3-0.9-2.9-2.1-3.6
					C879.2,441.6,878.2,442.1,878.2,443.5z"/>
				<path class="st14" d="M870.6,439.1c0,1.3,0.9,2.9,2.1,3.6c1.2,0.7,2.1,0.1,2.1-1.2c0-1.3-0.9-2.9-2.1-3.6
					C871.6,437.2,870.6,437.7,870.6,439.1z"/>
				<path class="st14" d="M863,434.7c0,1.3,0.9,2.9,2.1,3.6c1.1,0.7,2.1,0.1,2.1-1.2c0-1.3-0.9-2.9-2.1-3.6
					C863.9,432.8,863,433.3,863,434.7z"/>
				<path class="st14" d="M855.4,430.3c0,1.3,0.9,2.9,2.1,3.6c1.1,0.7,2.1,0.1,2.1-1.2c0-1.3-0.9-2.9-2.1-3.6
					C856.3,428.4,855.4,428.9,855.4,430.3z"/>
				<path class="st14" d="M847.8,425.9c0,1.3,0.9,2.9,2.1,3.6c1.1,0.7,2.1,0.1,2.1-1.2c0-1.3-0.9-2.9-2.1-3.6
					C848.7,424,847.8,424.5,847.8,425.9z"/>
				<path class="st14" d="M840.2,421.5c0,1.3,0.9,2.9,2.1,3.6c1.1,0.7,2.1,0.1,2.1-1.2c0-1.3-0.9-2.9-2.1-3.6
					C841.1,419.6,840.2,420.1,840.2,421.5z"/>
				<path class="st14" d="M832.5,417.1c0,1.3,0.9,2.9,2.1,3.6c1.1,0.7,2.1,0.1,2.1-1.2c0-1.3-0.9-2.9-2.1-3.6
					C833.5,415.2,832.5,415.7,832.5,417.1z"/>
			</g>
			<g>
				<path class="st14" d="M981.4,519.7c0,1.3,0.9,2.9,2.1,3.6c1.2,0.7,2.1,0.1,2.1-1.2c0-1.3-0.9-2.9-2.1-3.6
					C982.3,517.9,981.4,518.4,981.4,519.7z"/>
				<path class="st14" d="M973.8,515.3c0,1.3,0.9,2.9,2.1,3.6c1.1,0.7,2.1,0.1,2.1-1.2c0-1.3-0.9-2.9-2.1-3.6
					C974.7,513.5,973.8,514,973.8,515.3z"/>
				<path class="st14" d="M966.2,510.9c0,1.3,0.9,2.9,2.1,3.6c1.1,0.7,2.1,0.1,2.1-1.2c0-1.3-0.9-2.9-2.1-3.6
					C967.1,509.1,966.2,509.6,966.2,510.9z"/>
				<path class="st14" d="M958.6,506.5c0,1.3,0.9,2.9,2.1,3.6c1.1,0.7,2.1,0.1,2.1-1.2c0-1.3-0.9-2.9-2.1-3.6
					C959.5,504.7,958.6,505.2,958.6,506.5z"/>
				<path class="st14" d="M950.9,502.1c0,1.3,0.9,2.9,2.1,3.6c1.1,0.7,2.1,0.1,2.1-1.2c0-1.3-0.9-2.9-2.1-3.6
					C951.9,500.3,950.9,500.8,950.9,502.1z"/>
				<path class="st14" d="M943.3,497.7c0,1.3,0.9,2.9,2.1,3.6c1.1,0.7,2.1,0.1,2.1-1.2c0-1.3-0.9-2.9-2.1-3.6
					C944.3,495.9,943.3,496.4,943.3,497.7z"/>
				<path class="st14" d="M935.7,493.3c0,1.3,0.9,2.9,2.1,3.6c1.1,0.7,2.1,0.1,2.1-1.2c0-1.3-0.9-2.9-2.1-3.6
					C936.7,491.5,935.7,492,935.7,493.3z"/>
				<path class="st14" d="M928.1,489c0,1.3,0.9,2.9,2.1,3.6c1.1,0.7,2.1,0.1,2.1-1.2c0-1.3-0.9-2.9-2.1-3.6
					C929,487.1,928.1,487.6,928.1,489z"/>
				<path class="st14" d="M920.5,484.6c0,1.3,0.9,2.9,2.1,3.6c1.2,0.7,2.1,0.1,2.1-1.2c0-1.3-0.9-2.9-2.1-3.6
					C921.4,482.7,920.5,483.2,920.5,484.6z"/>
				<path class="st14" d="M912.9,480.2c0,1.3,0.9,2.9,2.1,3.6c1.2,0.7,2.1,0.1,2.1-1.2c0-1.3-0.9-2.9-2.1-3.6
					C913.8,478.3,912.9,478.8,912.9,480.2z"/>
				<path class="st14" d="M977.6,523.1c0,1.3,0.9,2.9,2.1,3.6c1.1,0.7,2.1,0.1,2.1-1.2c0-1.3-0.9-2.9-2.1-3.6
					C978.5,521.2,977.6,521.7,977.6,523.1z"/>
				<path class="st14" d="M970,518.7c0,1.3,0.9,2.9,2.1,3.6c1.1,0.7,2.1,0.1,2.1-1.2c0-1.3-0.9-2.9-2.1-3.6
					C970.9,516.8,970,517.3,970,518.7z"/>
				<path class="st14" d="M962.4,514.3c0,1.3,0.9,2.9,2.1,3.6c1.1,0.7,2.1,0.1,2.1-1.2c0-1.3-0.9-2.9-2.1-3.6
					C963.3,512.4,962.4,512.9,962.4,514.3z"/>
				<path class="st14" d="M954.8,509.9c0,1.3,0.9,2.9,2.1,3.6c1.1,0.7,2.1,0.1,2.1-1.2c0-1.3-0.9-2.9-2.1-3.6
					C955.7,508,954.8,508.5,954.8,509.9z"/>
				<path class="st14" d="M947.1,505.5c0,1.3,0.9,2.9,2.1,3.6c1.1,0.7,2.1,0.1,2.1-1.2s-0.9-2.9-2.1-3.6
					C948.1,503.6,947.1,504.1,947.1,505.5z"/>
				<path class="st14" d="M939.5,501.1c0,1.3,0.9,2.9,2.1,3.6c1.2,0.7,2.1,0.1,2.1-1.2c0-1.3-0.9-2.9-2.1-3.6
					C940.5,499.2,939.5,499.7,939.5,501.1z"/>
				<path class="st14" d="M931.9,496.7c0,1.3,0.9,2.9,2.1,3.6c1.1,0.7,2.1,0.1,2.1-1.2c0-1.3-0.9-2.9-2.1-3.6
					C932.8,494.8,931.9,495.3,931.9,496.7z"/>
				<path class="st14" d="M924.3,492.3c0,1.3,0.9,2.9,2.1,3.6c1.1,0.7,2.1,0.1,2.1-1.2c0-1.3-0.9-2.9-2.1-3.6
					C925.2,490.4,924.3,490.9,924.3,492.3z"/>
				<path class="st14" d="M916.7,487.9c0,1.3,0.9,2.9,2.1,3.6c1.1,0.7,2.1,0.1,2.1-1.2c0-1.3-0.9-2.9-2.1-3.6
					C917.6,486,916.7,486.6,916.7,487.9z"/>
				<path class="st14" d="M981.4,530.8c0,1.3,0.9,2.9,2.1,3.6c1.1,0.7,2.1,0.1,2.1-1.2c0-1.3-0.9-2.9-2.1-3.6
					C982.3,528.9,981.4,529.4,981.4,530.8z"/>
				<path class="st14" d="M973.8,526.4c0,1.3,0.9,2.9,2.1,3.6c1.1,0.7,2.1,0.1,2.1-1.2c0-1.3-0.9-2.9-2.1-3.6
					C974.7,524.5,973.8,525.1,973.8,526.4z"/>
				<path class="st14" d="M966.2,522c0,1.3,0.9,2.9,2.1,3.6c1.1,0.7,2.1,0.1,2.1-1.2c0-1.3-0.9-2.9-2.1-3.6
					C967.1,520.1,966.2,520.7,966.2,522z"/>
				<path class="st14" d="M958.6,517.6c0,1.3,0.9,2.9,2.1,3.6c1.1,0.7,2.1,0.1,2.1-1.2c0-1.3-0.9-2.9-2.1-3.6
					C959.5,515.7,958.6,516.3,958.6,517.6z"/>
				<path class="st14" d="M950.9,513.2c0,1.3,0.9,2.9,2.1,3.6c1.1,0.7,2.1,0.1,2.1-1.2c0-1.3-0.9-2.9-2.1-3.6
					C951.9,511.3,950.9,511.9,950.9,513.2z"/>
				<path class="st14" d="M943.3,508.8c0,1.3,0.9,2.9,2.1,3.6c1.1,0.7,2.1,0.1,2.1-1.2c0-1.3-0.9-2.9-2.1-3.6
					C944.3,506.9,943.3,507.5,943.3,508.8z"/>
				<path class="st14" d="M935.7,504.4c0,1.3,0.9,2.9,2.1,3.6c1.1,0.7,2.1,0.1,2.1-1.2c0-1.3-0.9-2.9-2.1-3.6
					C936.7,502.5,935.7,503.1,935.7,504.4z"/>
				<path class="st14" d="M928.1,500c0,1.3,0.9,2.9,2.1,3.6c1.1,0.7,2.1,0.1,2.1-1.2c0-1.3-0.9-2.9-2.1-3.6
					C929,498.1,928.1,498.7,928.1,500z"/>
				<path class="st14" d="M920.5,495.6c0,1.3,0.9,2.9,2.1,3.6c1.2,0.7,2.1,0.1,2.1-1.2c0-1.3-0.9-2.9-2.1-3.6
					C921.4,493.7,920.5,494.3,920.5,495.6z"/>
				<path class="st14" d="M912.9,491.2c0,1.3,0.9,2.9,2.1,3.6c1.2,0.7,2.1,0.1,2.1-1.2c0-1.3-0.9-2.9-2.1-3.6
					C913.8,489.3,912.9,489.9,912.9,491.2z"/>
				<path class="st14" d="M977.6,534.1c0,1.3,0.9,2.9,2.1,3.6c1.1,0.7,2.1,0.1,2.1-1.2c0-1.3-0.9-2.9-2.1-3.6
					C978.5,532.2,977.6,532.8,977.6,534.1z"/>
				<path class="st14" d="M970,529.7c0,1.3,0.9,2.9,2.1,3.6c1.1,0.7,2.1,0.1,2.1-1.2c0-1.3-0.9-2.9-2.1-3.6
					C970.9,527.8,970,528.4,970,529.7z"/>
				<path class="st14" d="M962.4,525.3c0,1.3,0.9,2.9,2.1,3.6c1.1,0.7,2.1,0.1,2.1-1.2c0-1.3-0.9-2.9-2.1-3.6
					C963.3,523.4,962.4,524,962.4,525.3z"/>
				<path class="st14" d="M954.8,520.9c0,1.3,0.9,2.9,2.1,3.6c1.1,0.7,2.1,0.1,2.1-1.2c0-1.3-0.9-2.9-2.1-3.6
					C955.7,519,954.8,519.6,954.8,520.9z"/>
				<path class="st14" d="M947.1,516.5c0,1.3,0.9,2.9,2.1,3.6c1.1,0.7,2.1,0.1,2.1-1.2c0-1.3-0.9-2.9-2.1-3.6
					C948.1,514.6,947.1,515.2,947.1,516.5z"/>
				<path class="st14" d="M939.5,512.1c0,1.3,0.9,2.9,2.1,3.6c1.2,0.7,2.1,0.1,2.1-1.2c0-1.3-0.9-2.9-2.1-3.6
					C940.5,510.2,939.5,510.8,939.5,512.1z"/>
				<path class="st14" d="M931.9,507.7c0,1.3,0.9,2.9,2.1,3.6c1.1,0.7,2.1,0.1,2.1-1.2c0-1.3-0.9-2.9-2.1-3.6
					C932.8,505.8,931.9,506.4,931.9,507.7z"/>
				<path class="st14" d="M924.3,503.3c0,1.3,0.9,2.9,2.1,3.6c1.1,0.7,2.1,0.1,2.1-1.2c0-1.3-0.9-2.9-2.1-3.6
					C925.2,501.5,924.3,502,924.3,503.3z"/>
				<path class="st14" d="M916.7,498.9c0,1.3,0.9,2.9,2.1,3.6c1.1,0.7,2.1,0.1,2.1-1.2c0-1.3-0.9-2.9-2.1-3.6
					C917.6,497.1,916.7,497.6,916.7,498.9z"/>
				<path class="st14" d="M981.4,541.8c0,1.3,0.9,2.9,2.1,3.6c1.1,0.7,2.1,0.1,2.1-1.2c0-1.3-0.9-2.9-2.1-3.6
					C982.3,540,981.4,540.5,981.4,541.8z"/>
				<path class="st14" d="M973.8,537.4c0,1.3,0.9,2.9,2.1,3.6c1.1,0.7,2.1,0.1,2.1-1.2c0-1.3-0.9-2.9-2.1-3.6
					C974.7,535.6,973.8,536.1,973.8,537.4z"/>
				<path class="st14" d="M966.2,533c0,1.3,0.9,2.9,2.1,3.6c1.1,0.7,2.1,0.1,2.1-1.2c0-1.3-0.9-2.9-2.1-3.6
					C967.1,531.2,966.2,531.7,966.2,533z"/>
				<path class="st14" d="M958.6,528.6c0,1.3,0.9,2.9,2.1,3.6c1.1,0.7,2.1,0.1,2.1-1.2c0-1.3-0.9-2.9-2.1-3.6
					C959.5,526.8,958.6,527.3,958.6,528.6z"/>
				<path class="st14" d="M950.9,524.2c0,1.3,0.9,2.9,2.1,3.6c1.1,0.7,2.1,0.1,2.1-1.2c0-1.3-0.9-2.9-2.1-3.6
					C951.9,522.4,950.9,522.9,950.9,524.2z"/>
				<path class="st14" d="M943.3,519.8c0,1.3,0.9,2.9,2.1,3.6c1.1,0.7,2.1,0.1,2.1-1.2c0-1.3-0.9-2.9-2.1-3.6
					C944.3,518,943.3,518.5,943.3,519.8z"/>
				<path class="st14" d="M935.7,515.4c0,1.3,0.9,2.9,2.1,3.6c1.1,0.7,2.1,0.1,2.1-1.2c0-1.3-0.9-2.9-2.1-3.6
					C936.7,513.6,935.7,514.1,935.7,515.4z"/>
				<path class="st14" d="M928.1,511c0,1.3,0.9,2.9,2.1,3.6c1.1,0.7,2.1,0.1,2.1-1.2c0-1.3-0.9-2.9-2.1-3.6
					C929,509.2,928.1,509.7,928.1,511z"/>
				<path class="st14" d="M920.5,506.6c0,1.3,0.9,2.9,2.1,3.6c1.2,0.7,2.1,0.1,2.1-1.2c0-1.3-0.9-2.9-2.1-3.6
					C921.4,504.8,920.5,505.3,920.5,506.6z"/>
				<path class="st14" d="M912.9,502.2c0,1.3,0.9,2.9,2.1,3.6c1.2,0.7,2.1,0.1,2.1-1.2c0-1.3-0.9-2.9-2.1-3.6
					C913.8,500.4,912.9,500.9,912.9,502.2z"/>
				<path class="st14" d="M977.6,545.1c0,1.3,0.9,2.9,2.1,3.6c1.1,0.7,2.1,0.1,2.1-1.2c0-1.3-0.9-2.9-2.1-3.6
					C978.5,543.3,977.6,543.8,977.6,545.1z"/>
				<path class="st14" d="M970,540.7c0,1.3,0.9,2.9,2.1,3.6c1.1,0.7,2.1,0.1,2.1-1.2c0-1.3-0.9-2.9-2.1-3.6
					C970.9,538.9,970,539.4,970,540.7z"/>
				<path class="st14" d="M962.4,536.3c0,1.3,0.9,2.9,2.1,3.6c1.1,0.7,2.1,0.1,2.1-1.2c0-1.3-0.9-2.9-2.1-3.6
					C963.3,534.5,962.4,535,962.4,536.3z"/>
				<path class="st14" d="M954.8,532c0,1.3,0.9,2.9,2.1,3.6c1.1,0.7,2.1,0.1,2.1-1.2c0-1.3-0.9-2.9-2.1-3.6
					C955.7,530.1,954.8,530.6,954.8,532z"/>
				<path class="st14" d="M947.1,527.6c0,1.3,0.9,2.9,2.1,3.6c1.1,0.7,2.1,0.1,2.1-1.2c0-1.3-0.9-2.9-2.1-3.6
					C948.1,525.7,947.1,526.2,947.1,527.6z"/>
				<path class="st14" d="M939.5,523.2c0,1.3,0.9,2.9,2.1,3.6c1.2,0.7,2.1,0.1,2.1-1.2c0-1.3-0.9-2.9-2.1-3.6
					C940.5,521.3,939.5,521.8,939.5,523.2z"/>
				<path class="st14" d="M931.9,518.8c0,1.3,0.9,2.9,2.1,3.6c1.1,0.7,2.1,0.1,2.1-1.2c0-1.3-0.9-2.9-2.1-3.6
					C932.8,516.9,931.9,517.4,931.9,518.8z"/>
				<path class="st14" d="M924.3,514.4c0,1.3,0.9,2.9,2.1,3.6c1.1,0.7,2.1,0.1,2.1-1.2c0-1.3-0.9-2.9-2.1-3.6
					C925.2,512.5,924.3,513,924.3,514.4z"/>
				<path class="st14" d="M916.7,510c0,1.3,0.9,2.9,2.1,3.6c1.1,0.7,2.1,0.1,2.1-1.2c0-1.3-0.9-2.9-2.1-3.6
					C917.6,508.1,916.7,508.6,916.7,510z"/>
				<path class="st14" d="M981.4,552.9c0,1.3,0.9,2.9,2.1,3.6c1.1,0.7,2.1,0.1,2.1-1.2c0-1.3-0.9-2.9-2.1-3.6
					C982.3,551,981.4,551.5,981.4,552.9z"/>
				<path class="st14" d="M973.8,548.5c0,1.3,0.9,2.9,2.1,3.6c1.1,0.7,2.1,0.1,2.1-1.2c0-1.3-0.9-2.9-2.1-3.6
					C974.7,546.6,973.8,547.1,973.8,548.5z"/>
				<path class="st14" d="M966.2,544.1c0,1.3,0.9,2.9,2.1,3.6c1.1,0.7,2.1,0.1,2.1-1.2c0-1.3-0.9-2.9-2.1-3.6
					C967.1,542.2,966.2,542.7,966.2,544.1z"/>
				<path class="st14" d="M958.6,539.7c0,1.3,0.9,2.9,2.1,3.6c1.1,0.7,2.1,0.1,2.1-1.2s-0.9-2.9-2.1-3.6
					C959.5,537.8,958.6,538.3,958.6,539.7z"/>
				<path class="st14" d="M950.9,535.3c0,1.3,0.9,2.9,2.1,3.6c1.1,0.7,2.1,0.1,2.1-1.2c0-1.3-0.9-2.9-2.1-3.6
					C951.9,533.4,950.9,533.9,950.9,535.3z"/>
				<path class="st14" d="M943.3,530.9c0,1.3,0.9,2.9,2.1,3.6c1.1,0.7,2.1,0.1,2.1-1.2s-0.9-2.9-2.1-3.6
					C944.3,529,943.3,529.5,943.3,530.9z"/>
				<path class="st14" d="M935.7,526.5c0,1.3,0.9,2.9,2.1,3.6c1.1,0.7,2.1,0.1,2.1-1.2c0-1.3-0.9-2.9-2.1-3.6
					C936.7,524.6,935.7,525.2,935.7,526.5z"/>
				<path class="st14" d="M928.1,522.1c0,1.3,0.9,2.9,2.1,3.6c1.1,0.7,2.1,0.1,2.1-1.2c0-1.3-0.9-2.9-2.1-3.6
					C929,520.2,928.1,520.8,928.1,522.1z"/>
				<path class="st14" d="M920.5,517.7c0,1.3,0.9,2.9,2.1,3.6c1.2,0.7,2.1,0.1,2.1-1.2c0-1.3-0.9-2.9-2.1-3.6
					C921.4,515.8,920.5,516.4,920.5,517.7z"/>
				<path class="st14" d="M912.9,513.3c0,1.3,0.9,2.9,2.1,3.6c1.2,0.7,2.1,0.1,2.1-1.2c0-1.3-0.9-2.9-2.1-3.6
					C913.8,511.4,912.9,512,912.9,513.3z"/>
				<path class="st14" d="M977.6,556.2c0,1.3,0.9,2.9,2.1,3.6c1.1,0.7,2.1,0.1,2.1-1.2c0-1.3-0.9-2.9-2.1-3.6
					C978.5,554.3,977.6,554.9,977.6,556.2z"/>
				<path class="st14" d="M970,551.8c0,1.3,0.9,2.9,2.1,3.6c1.1,0.7,2.1,0.1,2.1-1.2c0-1.3-0.9-2.9-2.1-3.6
					C970.9,549.9,970,550.5,970,551.8z"/>
				<path class="st14" d="M962.4,547.4c0,1.3,0.9,2.9,2.1,3.6c1.1,0.7,2.1,0.1,2.1-1.2c0-1.3-0.9-2.9-2.1-3.6
					C963.3,545.5,962.4,546.1,962.4,547.4z"/>
				<path class="st14" d="M954.8,543c0,1.3,0.9,2.9,2.1,3.6c1.1,0.7,2.1,0.1,2.1-1.2c0-1.3-0.9-2.9-2.1-3.6
					C955.7,541.1,954.8,541.7,954.8,543z"/>
				<path class="st14" d="M947.1,538.6c0,1.3,0.9,2.9,2.1,3.6c1.1,0.7,2.1,0.1,2.1-1.2c0-1.3-0.9-2.9-2.1-3.6
					C948.1,536.7,947.1,537.3,947.1,538.6z"/>
				<path class="st14" d="M939.5,534.2c0,1.3,0.9,2.9,2.1,3.6c1.2,0.7,2.1,0.1,2.1-1.2c0-1.3-0.9-2.9-2.1-3.6
					C940.5,532.3,939.5,532.9,939.5,534.2z"/>
				<path class="st14" d="M931.9,529.8c0,1.3,0.9,2.9,2.1,3.6c1.1,0.7,2.1,0.1,2.1-1.2s-0.9-2.9-2.1-3.6
					C932.8,527.9,931.9,528.5,931.9,529.8z"/>
				<path class="st14" d="M924.3,525.4c0,1.3,0.9,2.9,2.1,3.6c1.1,0.7,2.1,0.1,2.1-1.2c0-1.3-0.9-2.9-2.1-3.6
					C925.2,523.5,924.3,524.1,924.3,525.4z"/>
				<path class="st14" d="M916.7,521c0,1.3,0.9,2.9,2.1,3.6c1.1,0.7,2.1,0.1,2.1-1.2c0-1.3-0.9-2.9-2.1-3.6
					C917.6,519.1,916.7,519.7,916.7,521z"/>
				<path class="st14" d="M981.4,563.9c0,1.3,0.9,2.9,2.1,3.6c1.1,0.7,2.1,0.1,2.1-1.2c0-1.3-0.9-2.9-2.1-3.6
					C982.3,562,981.4,562.6,981.4,563.9z"/>
				<path class="st14" d="M973.8,559.5c0,1.3,0.9,2.9,2.1,3.6c1.1,0.7,2.1,0.1,2.1-1.2c0-1.3-0.9-2.9-2.1-3.6
					C974.7,557.6,973.8,558.2,973.8,559.5z"/>
				<path class="st14" d="M966.2,555.1c0,1.3,0.9,2.9,2.1,3.6c1.1,0.7,2.1,0.1,2.1-1.2c0-1.3-0.9-2.9-2.1-3.6
					C967.1,553.2,966.2,553.8,966.2,555.1z"/>
				<path class="st14" d="M958.6,550.7c0,1.3,0.9,2.9,2.1,3.6c1.1,0.7,2.1,0.1,2.1-1.2c0-1.3-0.9-2.9-2.1-3.6
					C959.5,548.8,958.6,549.4,958.6,550.7z"/>
				<path class="st14" d="M950.9,546.3c0,1.3,0.9,2.9,2.1,3.6c1.1,0.7,2.1,0.1,2.1-1.2c0-1.3-0.9-2.9-2.1-3.6
					C951.9,544.4,950.9,545,950.9,546.3z"/>
				<path class="st14" d="M943.3,541.9c0,1.3,0.9,2.9,2.1,3.6c1.1,0.7,2.1,0.1,2.1-1.2c0-1.3-0.9-2.9-2.1-3.6
					C944.3,540.1,943.3,540.6,943.3,541.9z"/>
				<path class="st14" d="M935.7,537.5c0,1.3,0.9,2.9,2.1,3.6c1.1,0.7,2.1,0.1,2.1-1.2c0-1.3-0.9-2.9-2.1-3.6
					C936.7,535.7,935.7,536.2,935.7,537.5z"/>
				<path class="st14" d="M928.1,533.1c0,1.3,0.9,2.9,2.1,3.6c1.1,0.7,2.1,0.1,2.1-1.2c0-1.3-0.9-2.9-2.1-3.6
					C929,531.3,928.1,531.8,928.1,533.1z"/>
				<path class="st14" d="M920.5,528.7c0,1.3,0.9,2.9,2.1,3.6c1.2,0.7,2.1,0.1,2.1-1.2c0-1.3-0.9-2.9-2.1-3.6
					C921.4,526.9,920.5,527.4,920.5,528.7z"/>
				<path class="st14" d="M912.9,524.3c0,1.3,0.9,2.9,2.1,3.6c1.2,0.7,2.1,0.1,2.1-1.2s-0.9-2.9-2.1-3.6
					C913.8,522.5,912.9,523,912.9,524.3z"/>
				<path class="st14" d="M977.6,567.2c0,1.3,0.9,2.9,2.1,3.6c1.1,0.7,2.1,0.1,2.1-1.2c0-1.3-0.9-2.9-2.1-3.6
					C978.5,565.4,977.6,565.9,977.6,567.2z"/>
				<path class="st14" d="M970,562.8c0,1.3,0.9,2.9,2.1,3.6c1.1,0.7,2.1,0.1,2.1-1.2c0-1.3-0.9-2.9-2.1-3.6
					C970.9,561,970,561.5,970,562.8z"/>
				<path class="st14" d="M962.4,558.4c0,1.3,0.9,2.9,2.1,3.6c1.1,0.7,2.1,0.1,2.1-1.2c0-1.3-0.9-2.9-2.1-3.6
					C963.3,556.6,962.4,557.1,962.4,558.4z"/>
				<path class="st14" d="M954.8,554c0,1.3,0.9,2.9,2.1,3.6c1.1,0.7,2.1,0.1,2.1-1.2c0-1.3-0.9-2.9-2.1-3.6
					C955.7,552.2,954.8,552.7,954.8,554z"/>
				<path class="st14" d="M947.1,549.6c0,1.3,0.9,2.9,2.1,3.6c1.1,0.7,2.1,0.1,2.1-1.2c0-1.3-0.9-2.9-2.1-3.6
					C948.1,547.8,947.1,548.3,947.1,549.6z"/>
				<path class="st14" d="M939.5,545.2c0,1.3,0.9,2.9,2.1,3.6c1.2,0.7,2.1,0.1,2.1-1.2c0-1.3-0.9-2.9-2.1-3.6
					C940.5,543.4,939.5,543.9,939.5,545.2z"/>
				<path class="st14" d="M931.9,540.8c0,1.3,0.9,2.9,2.1,3.6c1.1,0.7,2.1,0.1,2.1-1.2c0-1.3-0.9-2.9-2.1-3.6
					C932.8,539,931.9,539.5,931.9,540.8z"/>
				<path class="st14" d="M924.3,536.4c0,1.3,0.9,2.9,2.1,3.6c1.1,0.7,2.1,0.1,2.1-1.2c0-1.3-0.9-2.9-2.1-3.6
					C925.2,534.6,924.3,535.1,924.3,536.4z"/>
				<path class="st14" d="M916.7,532.1c0,1.3,0.9,2.9,2.1,3.6c1.1,0.7,2.1,0.1,2.1-1.2c0-1.3-0.9-2.9-2.1-3.6
					C917.6,530.2,916.7,530.7,916.7,532.1z"/>
				<path class="st14" d="M981.4,574.9c0,1.3,0.9,2.9,2.1,3.6c1.1,0.7,2.1,0.1,2.1-1.2s-0.9-2.9-2.1-3.6
					C982.3,573.1,981.4,573.6,981.4,574.9z"/>
				<path class="st14" d="M973.8,570.6c0,1.3,0.9,2.9,2.1,3.6c1.1,0.7,2.1,0.1,2.1-1.2c0-1.3-0.9-2.9-2.1-3.6
					C974.7,568.7,973.8,569.2,973.8,570.6z"/>
				<path class="st14" d="M966.2,566.2c0,1.3,0.9,2.9,2.1,3.6c1.1,0.7,2.1,0.1,2.1-1.2c0-1.3-0.9-2.9-2.1-3.6
					C967.1,564.3,966.2,564.8,966.2,566.2z"/>
				<path class="st14" d="M958.6,561.8c0,1.3,0.9,2.9,2.1,3.6c1.1,0.7,2.1,0.1,2.1-1.2c0-1.3-0.9-2.9-2.1-3.6
					C959.5,559.9,958.6,560.4,958.6,561.8z"/>
				<path class="st14" d="M950.9,557.4c0,1.3,0.9,2.9,2.1,3.6c1.1,0.7,2.1,0.1,2.1-1.2c0-1.3-0.9-2.9-2.1-3.6
					C951.9,555.5,950.9,556,950.9,557.4z"/>
				<path class="st14" d="M943.3,553c0,1.3,0.9,2.9,2.1,3.6c1.1,0.7,2.1,0.1,2.1-1.2c0-1.3-0.9-2.9-2.1-3.6
					C944.3,551.1,943.3,551.6,943.3,553z"/>
				<path class="st14" d="M935.7,548.6c0,1.3,0.9,2.9,2.1,3.6c1.1,0.7,2.1,0.1,2.1-1.2c0-1.3-0.9-2.9-2.1-3.6
					C936.7,546.7,935.7,547.2,935.7,548.6z"/>
				<path class="st14" d="M928.1,544.2c0,1.3,0.9,2.9,2.1,3.6c1.1,0.7,2.1,0.1,2.1-1.2c0-1.3-0.9-2.9-2.1-3.6
					C929,542.3,928.1,542.8,928.1,544.2z"/>
				<path class="st14" d="M920.5,539.8c0,1.3,0.9,2.9,2.1,3.6c1.2,0.7,2.1,0.1,2.1-1.2c0-1.3-0.9-2.9-2.1-3.6
					C921.4,537.9,920.5,538.4,920.5,539.8z"/>
				<path class="st14" d="M912.9,535.4c0,1.3,0.9,2.9,2.1,3.6c1.2,0.7,2.1,0.1,2.1-1.2c0-1.3-0.9-2.9-2.1-3.6
					C913.8,533.5,912.9,534,912.9,535.4z"/>
				<path class="st14" d="M977.6,578.3c0,1.3,0.9,2.9,2.1,3.6c1.1,0.7,2.1,0.1,2.1-1.2c0-1.3-0.9-2.9-2.1-3.6
					C978.5,576.4,977.6,576.9,977.6,578.3z"/>
				<path class="st14" d="M970,573.9c0,1.3,0.9,2.9,2.1,3.6c1.1,0.7,2.1,0.1,2.1-1.2c0-1.3-0.9-2.9-2.1-3.6
					C970.9,572,970,572.6,970,573.9z"/>
				<path class="st14" d="M962.4,569.5c0,1.3,0.9,2.9,2.1,3.6c1.1,0.7,2.1,0.1,2.1-1.2c0-1.3-0.9-2.9-2.1-3.6
					C963.3,567.6,962.4,568.2,962.4,569.5z"/>
				<path class="st14" d="M954.8,565.1c0,1.3,0.9,2.9,2.1,3.6c1.1,0.7,2.1,0.1,2.1-1.2c0-1.3-0.9-2.9-2.1-3.6
					C955.7,563.2,954.8,563.8,954.8,565.1z"/>
				<path class="st14" d="M947.1,560.7c0,1.3,0.9,2.9,2.1,3.6c1.1,0.7,2.1,0.1,2.1-1.2c0-1.3-0.9-2.9-2.1-3.6
					C948.1,558.8,947.1,559.4,947.1,560.7z"/>
				<path class="st14" d="M939.5,556.3c0,1.3,0.9,2.9,2.1,3.6c1.2,0.7,2.1,0.1,2.1-1.2c0-1.3-0.9-2.9-2.1-3.6
					C940.5,554.4,939.5,555,939.5,556.3z"/>
				<path class="st14" d="M931.9,551.9c0,1.3,0.9,2.9,2.1,3.6c1.1,0.7,2.1,0.1,2.1-1.2s-0.9-2.9-2.1-3.6
					C932.8,550,931.9,550.6,931.9,551.9z"/>
				<path class="st14" d="M924.3,547.5c0,1.3,0.9,2.9,2.1,3.6c1.1,0.7,2.1,0.1,2.1-1.2s-0.9-2.9-2.1-3.6
					C925.2,545.6,924.3,546.2,924.3,547.5z"/>
				<path class="st14" d="M916.7,543.1c0,1.3,0.9,2.9,2.1,3.6c1.1,0.7,2.1,0.1,2.1-1.2s-0.9-2.9-2.1-3.6
					C917.6,541.2,916.7,541.8,916.7,543.1z"/>
				<path class="st14" d="M981.4,586c0,1.3,0.9,2.9,2.1,3.6c1.1,0.7,2.1,0.1,2.1-1.2c0-1.3-0.9-2.9-2.1-3.6
					C982.3,584.1,981.4,584.7,981.4,586z"/>
				<path class="st14" d="M973.8,581.6c0,1.3,0.9,2.9,2.1,3.6c1.1,0.7,2.1,0.1,2.1-1.2c0-1.3-0.9-2.9-2.1-3.6
					C974.7,579.7,973.8,580.3,973.8,581.6z"/>
				<path class="st14" d="M966.2,577.2c0,1.3,0.9,2.9,2.1,3.6c1.1,0.7,2.1,0.1,2.1-1.2c0-1.3-0.9-2.9-2.1-3.6
					C967.1,575.3,966.2,575.9,966.2,577.2z"/>
				<path class="st14" d="M958.6,572.8c0,1.3,0.9,2.9,2.1,3.6c1.1,0.7,2.1,0.1,2.1-1.2c0-1.3-0.9-2.9-2.1-3.6
					C959.5,570.9,958.6,571.5,958.6,572.8z"/>
				<path class="st14" d="M950.9,568.4c0,1.3,0.9,2.9,2.1,3.6c1.1,0.7,2.1,0.1,2.1-1.2s-0.9-2.9-2.1-3.6
					C951.9,566.5,950.9,567.1,950.9,568.4z"/>
				<path class="st14" d="M943.3,564c0,1.3,0.9,2.9,2.1,3.6c1.1,0.7,2.1,0.1,2.1-1.2c0-1.3-0.9-2.9-2.1-3.6
					C944.3,562.1,943.3,562.7,943.3,564z"/>
				<path class="st14" d="M935.7,559.6c0,1.3,0.9,2.9,2.1,3.6c1.1,0.7,2.1,0.1,2.1-1.2s-0.9-2.9-2.1-3.6
					C936.7,557.7,935.7,558.3,935.7,559.6z"/>
				<path class="st14" d="M928.1,555.2c0,1.3,0.9,2.9,2.1,3.6c1.1,0.7,2.1,0.1,2.1-1.2c0-1.3-0.9-2.9-2.1-3.6
					C929,553.3,928.1,553.9,928.1,555.2z"/>
				<path class="st14" d="M920.5,550.8c0,1.3,0.9,2.9,2.1,3.6c1.2,0.7,2.1,0.1,2.1-1.2c0-1.3-0.9-2.9-2.1-3.6
					C921.4,548.9,920.5,549.5,920.5,550.8z"/>
				<path class="st14" d="M912.9,546.4c0,1.3,0.9,2.9,2.1,3.6c1.2,0.7,2.1,0.1,2.1-1.2c0-1.3-0.9-2.9-2.1-3.6
					C913.8,544.6,912.9,545.1,912.9,546.4z"/>
			</g>
		</g>
		<g>
			
				<linearGradient id="SVGID_1_" gradientUnits="userSpaceOnUse" x1="1106.3237" y1="662.5036" x2="1140.1637" y2="662.5036" gradientTransform="matrix(0.866 -0.5 0 1.1547 109.9414 301.5918)">
				<stop  offset="0" style="stop-color:#FFFFFF"/>
				<stop  offset="1" style="stop-color:#919191"/>
			</linearGradient>
			<path class="st17" d="M1097.3,496.5c0,9.4-6.6,20.7-14.7,25.4c-8.1,4.7-14.7,0.9-14.7-8.5c0-9.4,6.6-20.7,14.7-25.4
				C1090.8,483.4,1097.3,487.2,1097.3,496.5z"/>
			
				<linearGradient id="SVGID_2_" gradientUnits="userSpaceOnUse" x1="1109.3546" y1="662.5057" x2="1137.1322" y2="662.5057" gradientTransform="matrix(0.866 -0.5 0 1.1547 109.9414 301.5918)">
				<stop  offset="0" style="stop-color:#919191"/>
				<stop  offset="1" style="stop-color:#FFFFFF"/>
			</linearGradient>
			<path class="st18" d="M1094.7,498c0,7.7-5.4,17-12,20.8c-6.6,3.8-12,0.7-12-7c0-7.7,5.4-17,12-20.8
				C1089.3,487.2,1094.7,490.3,1094.7,498z"/>
			<path class="st16" d="M1044.3,432.4c0,3.8-2.6,8.3-5.9,10.2c-3.3,1.9-5.9,0.4-5.9-3.4s2.6-8.3,5.9-10.2
				C1041.7,427.1,1044.3,428.6,1044.3,432.4z"/>
		</g>
	</g>
	<polygon class="st19" points="707.3,950.4 867.2,858 776.2,805.5 616.3,897.8 	"/>
	<polygon class="st20" points="712.9,938.5 846.6,861.3 770.5,817.4 636.8,894.6 	"/>
	<g>
		<g>
			<g>
				<polygon class="st21" points="650.8,859.9 880.6,727.2 880.6,718.5 576,808 576,816.7 				"/>
				<polygon class="st22" points="650.8,859.9 880.6,727.2 880.6,718.5 650.7,850.3 650.7,859 				"/>
				<polygon class="st23" points="650.8,851.2 880.6,718.5 805.8,675.3 576,808 				"/>
				<g>
					<g>
						<g>
							<g>
								<g>
									<polygon class="st24" points="799.2,699.6 814.3,690.9 814.3,689 789.4,692.1 789.4,694 									"/>
									<polygon class="st25" points="799.2,697.7 814.3,689 804.5,683.4 789.4,692.1 									"/>
								</g>
								<g>
									<polygon class="st24" points="782.9,709 798.1,700.2 798.1,698.4 773.2,701.5 773.2,703.3 									"/>
									<polygon class="st25" points="782.9,707.1 798.1,698.4 788.3,692.7 773.2,701.5 									"/>
								</g>
								<g>
									<polygon class="st24" points="766.7,718.4 781.9,709.6 781.9,707.8 756.9,710.9 756.9,712.7 									"/>
									<polygon class="st25" points="766.7,716.5 781.9,707.8 772.1,702.1 756.9,710.9 									"/>
								</g>
								<g>
									<polygon class="st24" points="750.5,727.7 765.7,719 765.7,717.1 740.7,720.2 740.7,722.1 									"/>
									<polygon class="st25" points="750.5,725.9 765.7,717.1 755.9,711.5 740.7,720.2 									"/>
								</g>
								<g>
									<polygon class="st24" points="734.3,737.1 749.4,728.4 749.4,726.5 724.5,729.6 724.5,731.5 									"/>
									<polygon class="st25" points="734.3,735.3 749.4,726.5 739.7,720.9 724.5,729.6 									"/>
								</g>
								<g>
									<polygon class="st24" points="718.1,746.5 733.2,737.7 733.2,735.9 708.3,739 708.3,740.9 									"/>
									<polygon class="st25" points="718.1,744.6 733.2,735.9 723.4,730.3 708.3,739 									"/>
								</g>
								<g>
									<polygon class="st24" points="701.8,755.9 717,747.1 717,745.3 692.1,748.4 692.1,750.2 									"/>
									<polygon class="st25" points="701.8,754 717,745.3 707.2,739.6 692.1,748.4 									"/>
								</g>
								<g>
									<polygon class="st24" points="685.6,765.3 700.8,756.5 700.8,754.7 675.8,757.8 675.8,759.6 									"/>
									<polygon class="st25" points="685.6,763.4 700.8,754.7 691,749 675.8,757.8 									"/>
								</g>
								<g>
									<polygon class="st24" points="669.4,774.6 684.5,765.9 684.5,764 659.6,767.1 659.6,769 									"/>
									<polygon class="st25" points="669.4,772.8 684.5,764 674.8,758.4 659.6,767.1 									"/>
								</g>
								<g>
									<polygon class="st24" points="653.2,784 668.3,775.3 668.3,773.4 643.4,776.5 643.4,778.4 									"/>
									<polygon class="st25" points="653.2,782.2 668.3,773.4 658.6,767.8 643.4,776.5 									"/>
								</g>
								<g>
									<polygon class="st24" points="637,793.4 652.1,784.6 652.1,782.8 627.2,785.9 627.2,787.7 									"/>
									<polygon class="st25" points="637,791.5 652.1,782.8 642.3,777.1 627.2,785.9 									"/>
								</g>
								<g>
									<polygon class="st24" points="620.7,802.8 635.9,794 635.9,792.2 611,795.3 611,797.1 									"/>
									<polygon class="st25" points="620.7,800.9 635.9,792.2 626.1,786.5 611,795.3 									"/>
								</g>
								<g>
									<polygon class="st24" points="604.5,812.1 619.7,803.4 619.7,801.5 594.7,804.7 594.7,806.5 									"/>
									<polygon class="st25" points="604.5,810.3 619.7,801.5 609.9,795.9 594.7,804.7 									"/>
								</g>
							</g>
						</g>
						<g>
							<g>
								<polygon class="st24" points="803,712.2 826.9,698.1 826.9,696.3 793.2,704.7 793.2,706.5 								"/>
								<polygon class="st25" points="803,710.3 826.9,696.3 817.2,690.6 793.2,704.7 								"/>
							</g>
							<g>
								<polygon class="st24" points="786.8,721.6 801.9,712.8 801.9,711 777,714.1 777,715.9 								"/>
								<polygon class="st25" points="786.8,719.7 801.9,711 792.1,705.3 777,714.1 								"/>
							</g>
							<g>
								<polygon class="st24" points="770.5,730.9 785.7,722.2 785.7,720.3 760.8,723.4 760.8,725.3 								"/>
								<polygon class="st25" points="770.5,729.1 785.7,720.3 775.9,714.7 760.8,723.4 								"/>
							</g>
							<g>
								<polygon class="st24" points="754.3,740.3 769.5,731.6 769.5,729.7 744.5,732.8 744.5,734.7 								"/>
								<polygon class="st25" points="754.3,738.5 769.5,729.7 759.7,724.1 744.5,732.8 								"/>
							</g>
							<g>
								<polygon class="st24" points="738.1,749.7 753.2,740.9 753.2,739.1 728.3,742.2 728.3,744 								"/>
								<polygon class="st25" points="738.1,747.8 753.2,739.1 743.5,733.4 728.3,742.2 								"/>
							</g>
							<g>
								<polygon class="st24" points="721.9,759.1 737,750.3 737,748.5 712.1,751.6 712.1,753.4 								"/>
								<polygon class="st25" points="721.9,757.2 737,748.5 727.3,742.8 712.1,751.6 								"/>
							</g>
							<g>
								<polygon class="st24" points="705.6,768.4 720.8,759.7 720.8,757.8 695.9,761 695.9,762.8 								"/>
								<polygon class="st25" points="705.6,766.6 720.8,757.8 711,752.2 695.9,761 								"/>
							</g>
							<g>
								<polygon class="st24" points="689.4,777.8 704.6,769.1 704.6,767.2 679.7,770.3 679.7,772.2 								"/>
								<polygon class="st25" points="689.4,776 704.6,767.2 694.8,761.6 679.7,770.3 								"/>
							</g>
							<g>
								<polygon class="st24" points="673.2,787.2 688.4,778.4 688.4,776.6 663.4,779.7 663.4,781.6 								"/>
								<polygon class="st25" points="673.2,785.3 688.4,776.6 678.6,771 663.4,779.7 								"/>
							</g>
							<g>
								<polygon class="st24" points="657,796.6 672.1,787.8 672.1,786 647.2,789.1 647.2,790.9 								"/>
								<polygon class="st25" points="657,794.7 672.1,786 662.4,780.3 647.2,789.1 								"/>
							</g>
							<g>
								<polygon class="st24" points="640.8,806 655.9,797.2 655.9,795.4 631,798.5 631,800.3 								"/>
								<polygon class="st25" points="640.8,804.1 655.9,795.4 646.1,789.7 631,798.5 								"/>
							</g>
							<g>
								<polygon class="st24" points="617.2,819.7 639.7,806.6 639.7,804.7 607.4,812.1 607.4,814 								"/>
								<polygon class="st25" points="617.2,817.8 639.7,804.7 629.9,799.1 607.4,812.1 								"/>
							</g>
						</g>
						<g>
							<g>
								<polygon class="st24" points="821.7,716.1 839.8,705.6 839.8,703.7 813.3,707.8 813.3,709.7 								"/>
								<polygon class="st25" points="821.2,714.5 839.8,703.7 830,698.1 811.4,708.9 								"/>
							</g>
							<g>
								<polygon class="st24" points="806.8,724.7 822,715.9 822,714.1 797,717.2 797,719.1 								"/>
								<polygon class="st25" points="806.8,722.8 822,714.1 812.2,708.4 797,717.2 								"/>
							</g>
							<g>
								<polygon class="st24" points="790.6,734.1 805.8,725.3 805.8,723.5 780.8,726.6 780.8,728.4 								"/>
								<polygon class="st25" points="790.6,732.2 805.8,723.5 796,717.8 780.8,726.6 								"/>
							</g>
							<g>
								<polygon class="st24" points="774.4,743.4 789.5,734.7 789.5,732.8 764.6,735.9 764.6,737.8 								"/>
								<polygon class="st25" points="774.4,741.6 789.5,732.8 779.8,727.2 764.6,735.9 								"/>
							</g>
							<g>
								<polygon class="st24" points="758.2,752.8 773.3,744.1 773.3,742.2 748.4,745.3 748.4,747.2 								"/>
								<polygon class="st25" points="758.2,751 773.3,742.2 763.5,736.6 748.4,745.3 								"/>
							</g>
							<g>
								<polygon class="st24" points="741.9,762.2 757.1,753.5 757.1,751.6 732.2,754.7 732.2,756.6 								"/>
								<polygon class="st25" points="741.9,760.3 757.1,751.6 747.3,746 732.2,754.7 								"/>
							</g>
							<g>
								<polygon class="st24" points="725.7,771.6 740.9,762.8 740.9,761 715.9,764.1 715.9,765.9 								"/>
								<polygon class="st25" points="725.7,769.7 740.9,761 731.1,755.3 715.9,764.1 								"/>
							</g>
							<g>
								<polygon class="st24" points="709.5,781 724.7,772.2 724.7,770.3 699.7,773.5 699.7,775.3 								"/>
								<polygon class="st25" points="709.5,779.1 724.7,770.3 714.9,764.7 699.7,773.5 								"/>
							</g>
							<g>
								<polygon class="st24" points="693.3,790.3 708.4,781.6 708.4,779.7 683.5,782.8 683.5,784.7 								"/>
								<polygon class="st25" points="693.3,788.5 708.4,779.7 698.7,774.1 683.5,782.8 								"/>
							</g>
							<g>
								<polygon class="st24" points="677.1,799.7 692.2,791 692.2,789.1 667.3,792.2 667.3,794.1 								"/>
								<polygon class="st25" points="677.1,797.9 692.2,789.1 682.4,783.5 667.3,792.2 								"/>
							</g>
							<g>
								<polygon class="st24" points="660.8,809.1 676,800.4 676,798.5 651.1,801.6 651.1,803.5 								"/>
								<polygon class="st25" points="660.8,807.2 676,798.5 666.2,792.9 651.1,801.6 								"/>
							</g>
							<g>
								<polygon class="st24" points="644.6,818.5 659.8,809.7 659.8,807.9 634.8,811 634.8,812.8 								"/>
								<polygon class="st25" points="644.6,816.6 659.8,807.9 650,802.2 634.8,811 								"/>
							</g>
							<g>
								<polygon class="st24" points="630,826.9 643.6,819.1 643.6,817.3 620.3,819.4 620.3,821.3 								"/>
								<polygon class="st25" points="630,825 643.6,817.3 633.8,811.6 620.3,819.4 								"/>
							</g>
						</g>
						<g>
							<g>
								<polygon class="st24" points="826.9,727.9 852.7,713 852.7,711.1 817.1,720.4 817.1,722.2 								"/>
								<polygon class="st25" points="826.9,726 852.7,711.1 842.9,705.5 817.1,720.4 								"/>
							</g>
							<g>
								<polygon class="st24" points="810.6,737.3 825.8,728.5 825.8,726.7 800.9,729.8 800.9,731.6 								"/>
								<polygon class="st25" points="810.6,735.4 825.8,726.7 816,721 800.9,729.8 								"/>
							</g>
							<g>
								<polygon class="st24" points="794.4,746.6 809.6,737.9 809.6,736 784.6,739.1 784.6,741 								"/>
								<polygon class="st25" points="794.4,744.8 809.6,736 799.8,730.4 784.6,739.1 								"/>
							</g>
							<g>
								<polygon class="st24" points="778.2,756 793.4,747.3 793.4,745.4 768.4,748.5 768.4,750.4 								"/>
								<polygon class="st25" points="778.2,754.2 793.4,745.4 783.6,739.8 768.4,748.5 								"/>
							</g>
							<g>
								<polygon class="st24" points="762,765.4 777.1,756.6 777.1,754.8 752.2,757.9 752.2,759.8 								"/>
								<polygon class="st25" points="762,763.5 777.1,754.8 767.4,749.1 752.2,757.9 								"/>
							</g>
							<g>
								<polygon class="st24" points="745.7,774.8 760.9,766 760.9,764.2 736,767.3 736,769.1 								"/>
								<polygon class="st25" points="745.7,772.9 760.9,764.2 751.1,758.5 736,767.3 								"/>
							</g>
							<g>
								<polygon class="st24" points="729.5,784.2 744.7,775.4 744.7,773.5 719.8,776.7 719.8,778.5 								"/>
								<polygon class="st25" points="729.5,782.3 744.7,773.5 734.9,767.9 719.8,776.7 								"/>
							</g>
							<g>
								<polygon class="st24" points="713.3,793.5 728.5,784.8 728.5,782.9 703.5,786 703.5,787.9 								"/>
								<polygon class="st25" points="713.3,791.7 728.5,782.9 718.7,777.3 703.5,786 								"/>
							</g>
							<g>
								<polygon class="st24" points="697.1,802.9 712.2,794.2 712.2,792.3 687.3,795.4 687.3,797.3 								"/>
								<polygon class="st25" points="697.1,801.1 712.2,792.3 702.5,786.7 687.3,795.4 								"/>
							</g>
							<g>
								<polygon class="st24" points="680.9,812.3 696,803.5 696,801.7 671.1,804.8 671.1,806.6 								"/>
								<polygon class="st25" points="680.9,810.4 696,801.7 686.3,796 671.1,804.8 								"/>
							</g>
							<g>
								<polygon class="st24" points="664.7,821.7 679.8,812.9 679.8,811.1 654.9,814.2 654.9,816 								"/>
								<polygon class="st25" points="664.7,819.8 679.8,811.1 670,805.4 654.9,814.2 								"/>
							</g>
							<g>
								<polygon class="st24" points="642.7,834.2 663.6,822.3 663.6,820.4 632.9,826.7 632.9,828.5 								"/>
								<polygon class="st25" points="642.7,832.3 663.6,820.4 653.8,814.8 632.9,826.7 								"/>
							</g>
						</g>
						<g>
							<g>
								<polygon class="st24" points="846.9,731 865.3,720.2 865.3,718.4 837.1,723.5 837.1,725.4 								"/>
								<polygon class="st25" points="846.9,729.2 865.3,718.4 855.5,712.7 837.1,723.5 								"/>
							</g>
							<g>
								<polygon class="st24" points="830.7,740.4 845.9,731.6 845.9,729.8 820.9,732.9 820.9,734.7 								"/>
								<polygon class="st25" points="830.7,738.5 845.9,729.8 836.1,724.1 820.9,732.9 								"/>
							</g>
							<g>
								<polygon class="st24" points="814.5,749.8 829.6,741 829.6,739.2 804.7,742.3 804.7,744.1 								"/>
								<polygon class="st25" points="814.5,747.9 829.6,739.2 819.9,733.5 804.7,742.3 								"/>
							</g>
							<g>
								<polygon class="st24" points="717.5,806 813.4,750.4 813.4,748.5 707.7,798.5 707.7,800.4 								"/>
								<polygon class="st25" points="717.5,804.1 813.4,748.5 803.6,742.9 707.7,798.5 								"/>
							</g>
							<g>
								<polygon class="st24" points="700.9,815.4 716.1,806.7 716.1,804.8 691.2,807.9 691.2,809.8 								"/>
								<polygon class="st25" points="700.9,813.6 716.1,804.8 706.3,799.2 691.2,807.9 								"/>
							</g>
							<g>
								<polygon class="st24" points="684.7,824.8 699.9,816 699.9,814.2 674.9,817.3 674.9,819.2 								"/>
								<polygon class="st25" points="684.7,822.9 699.9,814.2 690.1,808.5 674.9,817.3 								"/>
							</g>
							<g>
								<polygon class="st24" points="668.5,834.2 683.7,825.4 683.7,823.6 658.7,826.7 658.7,828.5 								"/>
								<polygon class="st25" points="668.5,832.3 683.7,823.6 673.9,817.9 658.7,826.7 								"/>
							</g>
							<g>
								<polygon class="st24" points="655.4,841.7 667.4,834.8 667.4,832.9 645.7,834.2 645.7,836 								"/>
								<polygon class="st25" points="655.4,839.8 667.4,832.9 657.7,827.3 645.7,834.2 								"/>
							</g>
						</g>
					</g>
				</g>
			</g>
			<g>
				<g>
					<path class="st23" d="M774.2,674L774.2,674l0-14.7l-10.6,5.3l-18.5-10.7c-6-3.5-15.8-3.5-21.9,0L536.9,761.5l-10.6-5.2v14.5
						l0,0c-0.2,2.5,1.2,4.9,4.5,6.8l24.6,14.2c6,3.5,15.8,3.5,21.9,0l192.5-111.1C773,678.9,774.4,676.4,774.2,674z"/>
					<path class="st21" d="M536.9,761.5l-10.6-5.2v14.5l0,0c-0.2,2.5,1.2,4.9,4.5,6.8l24.6,14.2c2.9,1.7,6.8,2.5,10.6,2.6v-49.8
						L536.9,761.5z"/>
					<path class="st26" d="M555.4,776.3c6,3.5,15.8,3.5,21.9,0l192.5-111.1c6-3.5,6-9.1,0-12.6l-24.6-14.2c-6-3.5-15.8-3.5-21.9,0
						L530.8,749.5c-6,3.5-6,9.1,0,12.6L555.4,776.3z"/>
				</g>
				<g>
					<polygon class="st21" points="613.7,738 600.3,730.4 600.3,661.7 686.9,611.8 					"/>
					<polygon class="st27" points="700.3,688 613.7,738 613.7,669.3 700.3,619.4 					"/>
				</g>
				<path class="st21" d="M842.8,256.8l-12.6-7.2c-0.3-0.2-0.6-0.4-0.9-0.5v0l0,0c-1.2-0.5-2.8-0.3-4.5,0.7L462.7,459
					c-3.9,2.2-7,7.7-7,12.2v278.2c0,2.2,0.8,3.8,2.1,4.6c0.2,0.1,0.4,0.2,0.6,0.3l12.5,7.2l2.6-13.6l-3.7,1.6l355.2-205.1
					c3.9-2.2,7-7.7,7-12.2V264.4L842.8,256.8z"/>
				<path class="st28" d="M830.3,249.7c-0.3-0.2-0.6-0.4-0.9-0.5v0l0,0c-1.2-0.5-2.8-0.3-4.5,0.7L462.7,459c-1.7,1-3.2,2.6-4.4,4.4
					l242.1,152.7l124.5-71.9c3.9-2.2,7-7.7,7-12.2V264.4l10.9-7.6L830.3,249.7z"/>
				<path class="st29" d="M844.9,539.5c0,4.5-3.1,9.9-7,12.2L475.7,760.9c-3.9,2.2-7,0.4-7-4.1V478.6c0-4.5,3.2-9.9,7-12.2
					l362.2-209.1c3.9-2.2,7-0.4,7,4.1V539.5z"/>
				<polygon class="st30" points="838.1,519.2 475.5,728.5 475.5,478.1 838.1,268.8 				"/>
				<g>
					<g>
						<g>
							<polygon class="st31" points="501.8,507.4 498.9,509 498.9,506.8 501.8,505.2 							"/>
						</g>
						<g>
							<path class="st31" d="M662.6,414.5l-5.7,3.3v-2.2l5.8-3.3L662.6,414.5z M651.1,421.1l-5.7,3.3v-2.2l5.7-3.3V421.1z
								 M639.6,427.8l-5.7,3.3v-2.2l5.7-3.3V427.8z M628.2,434.4l-5.7,3.3v-2.2l5.7-3.3V434.4z M616.7,441l-5.7,3.3v-2.2l5.7-3.3
								V441z M605.2,447.7l-5.7,3.3v-2.2l5.7-3.3V447.7z M593.7,454.3l-5.7,3.3v-2.2l5.7-3.3V454.3z M582.2,460.9l-5.7,3.3v-2.2
								l5.7-3.3V460.9z M570.7,467.6l-5.7,3.3l0-2.2l5.7-3.3V467.6z M559.2,474.2l-5.7,3.3v-2.2l5.7-3.3V474.2z M547.7,480.8
								l-5.7,3.3V482l5.7-3.3V480.8z M536.3,487.5l-5.7,3.3l0-2.2l5.7-3.3V487.5z M524.8,494.1l-5.7,3.3v-2.2l5.7-3.3V494.1z
								 M513.3,500.7l-5.7,3.3v-2.2l5.7-3.3V500.7z"/>
						</g>
					</g>
					<g>
						<g>
							<polygon class="st32" points="523.9,502.4 521.1,504.1 521.1,501.9 523.9,500.2 							"/>
						</g>
						<g>
							<path class="st32" d="M662.2,422.6l-5.8,3.3v-2.2l5.8-3.3V422.6z M650.7,429.2l-5.8,3.3v-2.2l5.8-3.3V429.2z M639.2,435.9
								l-5.8,3.3V437l5.8-3.3V435.9z M627.7,442.5l-5.8,3.3v-2.2l5.8-3.3V442.5z M616.1,449.2l-5.8,3.3v-2.2l5.8-3.3V449.2z
								 M604.6,455.8l-5.8,3.3V457l5.8-3.3V455.8z M593.1,462.5l-5.8,3.3v-2.2l5.8-3.3V462.5z M581.6,469.2l-5.8,3.3v-2.2l5.8-3.3
								V469.2z M570,475.8l-5.8,3.3v-2.2l5.8-3.3V475.8z M558.5,482.5l-5.8,3.3v-2.2l5.8-3.3V482.5z M547,489.1l-5.8,3.3v-2.2
								l5.8-3.3V489.1z M535.5,495.8l-5.8,3.3v-2.2l5.8-3.3V495.8z"/>
						</g>
					</g>
					<g>
						<g>
							<polygon class="st4" points="524,510.3 521.1,511.9 521.1,509.7 524,508.1 							"/>
						</g>
						<g>
							<path class="st4" d="M680.8,419.7l-5.6,3.2v-2.2l5.6-3.2V419.7z M669.6,426.2l-5.6,3.2v-2.2l5.6-3.2V426.2z M658.4,432.7
								l-5.6,3.2v-2.2l5.6-3.2L658.4,432.7z M647.2,439.1l-5.6,3.2v-2.2l5.6-3.2V439.1z M636,445.6l-5.6,3.2v-2.2l5.6-3.2V445.6z
								 M624.8,452.1l-5.6,3.2v-2.2l5.6-3.2V452.1z M613.6,458.5l-5.6,3.2v-2.2l5.6-3.2V458.5z M602.4,465l-5.6,3.2V466l5.6-3.2V465
								z M591.2,471.5l-5.6,3.2v-2.2l5.6-3.2V471.5z M580,477.9l-5.6,3.2V479l5.6-3.2V477.9z M568.8,484.4l-5.6,3.2v-2.2l5.6-3.2
								V484.4z M557.6,490.9l-5.6,3.2v-2.2l5.6-3.2V490.9z M546.4,497.3l-5.6,3.2v-2.2l5.6-3.2V497.3z M535.2,503.8l-5.6,3.2v-2.2
								l5.6-3.2V503.8z"/>
						</g>
					</g>
					<g>
						<g>
							<polygon class="st4" points="523.9,518.1 521.1,519.8 521.1,517.6 523.9,515.9 							"/>
						</g>
						<g>
							<path class="st4" d="M685.3,425l-5.8,3.3v-2.2l5.8-3.3V425z M673.7,431.6L668,435v-2.2l5.8-3.3V431.6z M662.2,438.3l-5.8,3.3
								v-2.2l5.8-3.3V438.3z M650.7,444.9l-5.8,3.3v-2.2l5.8-3.3V444.9z M639.2,451.6l-5.8,3.3v-2.2l5.8-3.3V451.6z M627.7,458.2
								l-5.8,3.3v-2.2l5.8-3.3V458.2z M616.1,464.9l-5.8,3.3V466l5.8-3.3V464.9z M604.6,471.6l-5.8,3.3v-2.2l5.8-3.3V471.6z
								 M593.1,478.2l-5.8,3.3v-2.2l5.8-3.3V478.2z M581.6,484.9l-5.8,3.3V486l5.8-3.3V484.9z M570,491.5l-5.8,3.3v-2.2l5.8-3.3
								V491.5z M558.5,498.2l-5.8,3.3v-2.2l5.8-3.3V498.2z M547,504.8l-5.8,3.3v-2.2l5.8-3.3V504.8z M535.5,511.5l-5.8,3.3v-2.2
								l5.8-3.3V511.5z"/>
						</g>
					</g>
					<g>
						<g>
							<polygon class="st4" points="524,526 521.1,527.6 521.1,525.4 524,523.8 							"/>
						</g>
						<g>
							<path class="st4" d="M701.9,423.2l-5.6,3.2v-2.2l5.6-3.2V423.2z M690.8,429.6l-5.6,3.2v-2.2l5.6-3.2V429.6z M679.7,436.1
								l-5.6,3.2v-2.2l5.6-3.2L679.7,436.1z M668.6,442.5l-5.6,3.2v-2.2l5.6-3.2V442.5z M657.4,448.9l-5.6,3.2v-2.2l5.6-3.2V448.9z
								 M646.3,455.3l-5.6,3.2l0-2.2l5.6-3.2V455.3z M635.2,461.8l-5.6,3.2v-2.2l5.6-3.2V461.8z M624.1,468.2l-5.6,3.2v-2.2l5.6-3.2
								L624.1,468.2z M612.9,474.6l-5.6,3.2v-2.2l5.6-3.2V474.6z M601.8,481l-5.6,3.2l0-2.2l5.6-3.2L601.8,481z M590.7,487.4
								l-5.6,3.2v-2.2l5.6-3.2L590.7,487.4z M579.6,493.9l-5.6,3.2l0-2.2l5.6-3.2V493.9z M568.4,500.3l-5.6,3.2v-2.2l5.6-3.2V500.3z
								 M557.3,506.7l-5.6,3.2v-2.2l5.6-3.2L557.3,506.7z M546.2,513.1l-5.6,3.2v-2.2l5.6-3.2V513.1z M535.1,519.5l-5.6,3.2v-2.2
								l5.6-3.2V519.5z"/>
						</g>
					</g>
					<g>
						<g>
							<polygon class="st4" points="523.9,533.8 521.1,535.5 521.1,533.3 523.9,531.6 							"/>
						</g>
						<g>
							<path class="st4" d="M713,424.7l-5.6,3.2v-2.2l5.6-3.2V424.7z M701.9,431.1l-5.6,3.2v-2.2l5.6-3.2V431.1z M690.8,437.5
								l-5.6,3.2v-2.2l5.6-3.2V437.5z M679.7,443.9l-5.6,3.2v-2.2l5.6-3.2V443.9z M668.6,450.3l-5.6,3.2v-2.2l5.6-3.2V450.3z
								 M657.4,456.8l-5.6,3.2v-2.2l5.6-3.2V456.8z M646.3,463.2l-5.6,3.2v-2.2l5.6-3.2V463.2z M635.2,469.6l-5.6,3.2v-2.2l5.6-3.2
								V469.6z M624.1,476l-5.6,3.2V477l5.6-3.2V476z M612.9,482.4l-5.6,3.2v-2.2l5.6-3.2V482.4z M601.8,488.9l-5.6,3.2v-2.2
								l5.6-3.2V488.9z M590.7,495.3l-5.6,3.2v-2.2l5.6-3.2V495.3z M579.6,501.7l-5.6,3.2v-2.2l5.6-3.2V501.7z M568.4,508.1
								l-5.6,3.2v-2.2l5.6-3.2V508.1z M557.3,514.6l-5.6,3.2v-2.2l5.6-3.2V514.6z M546.2,521l-5.6,3.2V522l5.6-3.2V521z
								 M535.1,527.4l-5.6,3.2v-2.2l5.6-3.2V527.4z"/>
						</g>
					</g>
					<g>
						<g>
							<polygon class="st31" points="585.5,514 582.6,515.7 582.6,513.5 585.5,511.8 							"/>
						</g>
						<g>
							<path class="st31" d="M743.8,422.6l-5.7,3.3v-2.2l5.7-3.3V422.6z M732.5,429.1l-5.7,3.3v-2.2l5.7-3.3L732.5,429.1z
								 M721.2,435.6l-5.7,3.3v-2.2l5.7-3.3V435.6z M709.9,442.2l-5.7,3.3l0-2.2l5.6-3.3V442.2z M698.6,448.7l-5.7,3.3v-2.2l5.7-3.3
								V448.7z M687.3,455.2l-5.7,3.3v-2.2l5.7-3.3V455.2z M676,461.8l-5.7,3.3v-2.2l5.7-3.3V461.8z M664.7,468.3l-5.7,3.3v-2.2
								l5.7-3.3V468.3z M653.3,474.8l-5.7,3.3v-2.2l5.7-3.3V474.8z M642,481.4l-5.7,3.3v-2.2l5.7-3.3V481.4z M630.7,487.9l-5.7,3.3
								l0-2.2l5.7-3.3V487.9z M619.4,494.4l-5.7,3.3v-2.2l5.7-3.3V494.4z M608.1,501l-5.7,3.3V502l5.7-3.3V501z M596.8,507.5
								l-5.7,3.3v-2.2l5.7-3.3L596.8,507.5z"/>
						</g>
					</g>
					<g>
						<g>
							<polygon class="st32" points="501.8,570.2 498.9,571.8 498.9,569.6 501.8,568 							"/>
						</g>
						<g>
							<path class="st32" d="M754.5,424.3l-5.7,3.3v-2.2l5.7-3.3V424.3z M743,430.9l-5.7,3.3V432l5.7-3.3V430.9z M731.5,437.5
								l-5.7,3.3v-2.2l5.7-3.3V437.5z M720.1,444.2l-5.7,3.3v-2.2l5.7-3.3V444.2z M708.6,450.8l-5.8,3.3v-2.2l5.8-3.3V450.8z
								 M697.1,457.4l-5.7,3.3v-2.2l5.7-3.3V457.4z M685.6,464.1l-5.8,3.3v-2.2l5.8-3.3V464.1z M674.1,470.7l-5.7,3.3v-2.2l5.7-3.3
								V470.7z M662.6,477.3l-5.7,3.3v-2.2l5.7-3.3V477.3z M651.1,484l-5.7,3.3v-2.2l5.7-3.3L651.1,484z M639.6,490.6l-5.7,3.3v-2.2
								l5.7-3.3V490.6z M628.2,497.2l-5.7,3.3v-2.2l5.7-3.3V497.2z M616.7,503.9l-5.7,3.3V505l5.7-3.3V503.9z M605.2,510.5l-5.7,3.3
								v-2.2l5.7-3.3V510.5z M593.7,517.1l-5.7,3.3v-2.2l5.7-3.3V517.1z M582.2,523.8l-5.7,3.3v-2.2l5.7-3.3V523.8z M570.7,530.4
								l-5.7,3.3v-2.2l5.7-3.3V530.4z M559.2,537l-5.7,3.3v-2.2l5.7-3.3V537z M547.7,543.6L542,547v-2.2l5.7-3.3V543.6z
								 M536.3,550.3l-5.7,3.3v-2.2l5.7-3.3V550.3z M524.8,556.9l-5.7,3.3V558l5.7-3.3V556.9z M513.3,563.5l-5.7,3.3v-2.2l5.7-3.3
								V563.5z"/>
						</g>
					</g>
					<g>
						<g>
							<polygon class="st32" points="501.8,578 498.9,579.7 498.9,577.5 501.8,575.8 							"/>
						</g>
						<g>
							<path class="st32" d="M766,425.5l-5.7,3.3v-2.2l5.7-3.3V425.5z M754.5,432.1l-5.7,3.3v-2.2l5.7-3.3V432.1z M743,438.7
								l-5.7,3.3v-2.2l5.7-3.3V438.7z M731.5,445.4l-5.7,3.3v-2.2l5.7-3.3V445.4z M720.1,452l-5.7,3.3v-2.2l5.7-3.3V452z
								 M708.6,458.6l-5.7,3.3v-2.2l5.7-3.3V458.6z M697.1,465.3l-5.7,3.3v-2.2l5.7-3.3V465.3z M685.6,471.9l-5.7,3.3V473l5.7-3.3
								V471.9z M674.1,478.5l-5.7,3.3v-2.2l5.7-3.3L674.1,478.5z M662.6,485.2l-5.7,3.3v-2.2l5.7-3.3V485.2z M651.1,491.8l-5.7,3.3
								v-2.2l5.7-3.3V491.8z M639.6,498.4l-5.7,3.3v-2.2l5.7-3.3V498.4z M628.2,505.1l-5.7,3.3v-2.2l5.7-3.3V505.1z M616.7,511.7
								l-5.7,3.3v-2.2l5.7-3.3V511.7z M605.2,518.3l-5.7,3.3v-2.2l5.7-3.3V518.3z M593.7,525l-5.7,3.3v-2.2l5.7-3.3V525z
								 M582.2,531.6l-5.7,3.3v-2.2l5.7-3.3V531.6z M570.7,538.2l-5.7,3.3v-2.2l5.7-3.3V538.2z M559.2,544.9l-5.7,3.3V546l5.7-3.3
								V544.9z M547.7,551.5l-5.7,3.3v-2.2l5.7-3.3V551.5z M536.3,558.1l-5.7,3.3v-2.2l5.7-3.3V558.1z M524.8,564.8l-5.8,3.3v-2.2
								l5.8-3.3V564.8z M513.3,571.4l-5.7,3.3v-2.2l5.7-3.3V571.4z"/>
						</g>
					</g>
					<g>
						<g>
							<path class="st31" d="M775.5,435.7l-5.7,3.3v-2.2l5.7-3.3V435.7z M764.1,442.2l-5.7,3.3v-2.2l5.7-3.3V442.2z M752.8,448.7
								l-5.7,3.3v-2.2l5.7-3.3V448.7z M741.5,455.3l-5.7,3.3v-2.2l5.7-3.3V455.3z M730.1,461.8l-5.7,3.3v-2.2l5.7-3.3V461.8z
								 M718.8,468.4l-5.7,3.3v-2.2l5.7-3.3V468.4z M707.5,474.9l-5.7,3.3V476l5.7-3.3V474.9z M696.1,481.5l-5.7,3.3l0-2.2l5.7-3.3
								V481.5z M684.8,488l-5.7,3.3v-2.2l5.7-3.3V488z M673.5,494.5l-5.7,3.3v-2.2l5.7-3.3V494.5z M662.2,501.1l-5.7,3.3v-2.2
								l5.7-3.3V501.1z M650.8,507.6l-5.7,3.3v-2.2l5.7-3.3V507.6z M639.5,514.2l-5.7,3.3v-2.2l5.7-3.3V514.2z M628.2,520.7
								l-5.7,3.3v-2.2l5.7-3.3V520.7z M616.8,527.2l-5.7,3.3v-2.2l5.7-3.3L616.8,527.2z"/>
						</g>
						<g>
							<polygon class="st31" points="784,430.7 781.1,432.4 781.1,430.2 784,428.6 							"/>
						</g>
					</g>
					<g>
						<g>
							<path class="st4" d="M775.5,443.5l-5.7,3.3v-2.2l5.7-3.3V443.5z M764.1,450.1l-5.7,3.3v-2.2l5.7-3.3V450.1z M752.8,456.6
								l-5.7,3.3v-2.2l5.7-3.3V456.6z M741.5,463.1l-5.7,3.3v-2.2l5.7-3.3V463.1z M730.1,469.7l-5.7,3.3v-2.2l5.7-3.3V469.7z
								 M718.8,476.2l-5.7,3.3v-2.2l5.7-3.3V476.2z M707.5,482.8l-5.7,3.3v-2.2l5.7-3.3V482.8z M696.1,489.3l-5.7,3.3v-2.2l5.7-3.3
								V489.3z M684.8,495.8l-5.7,3.3v-2.2l5.7-3.3V495.8z M673.5,502.4l-5.7,3.3v-2.2l5.7-3.3V502.4z M662.2,508.9l-5.7,3.3V510
								l5.7-3.3V508.9z M650.8,515.5l-5.7,3.3v-2.2l5.7-3.3V515.5z M639.5,522l-5.7,3.3v-2.2l5.7-3.3V522z M628.2,528.6l-5.7,3.3
								l0-2.2l5.7-3.3V528.6z M616.8,535.1l-5.7,3.3v-2.2l5.7-3.3V535.1z"/>
						</g>
						<g>
							<polygon class="st4" points="784,438.6 781.1,440.2 781.1,438 784,436.4 							"/>
						</g>
					</g>
					<g>
						<g>
							<polygon class="st31" points="501.8,617.1 498.9,618.7 498.9,616.5 501.8,614.9 							"/>
						</g>
						<g>
							<path class="st31" d="M685.6,511l-5.8,3.3v-2.2l5.8-3.3V511z M674.1,517.6l-5.7,3.3v-2.2l5.7-3.3V517.6z M662.6,524.2
								l-5.8,3.3v-2.2l5.7-3.3L662.6,524.2z M651.1,530.9l-5.7,3.3V532l5.7-3.3V530.9z M639.6,537.5l-5.7,3.3v-2.2l5.7-3.3V537.5z
								 M628.2,544.1l-5.7,3.3v-2.2l5.7-3.3V544.1z M616.7,550.8l-5.7,3.3v-2.2l5.7-3.3V550.8z M605.2,557.4l-5.7,3.3v-2.2l5.7-3.3
								V557.4z M593.7,564l-5.7,3.3v-2.2l5.7-3.3V564z M582.2,570.7l-5.7,3.3v-2.2l5.7-3.3V570.7z M570.7,577.3l-5.7,3.3v-2.2
								l5.7-3.3V577.3z M559.2,583.9l-5.7,3.3v-2.2l5.7-3.3V583.9z M547.7,590.6l-5.7,3.3v-2.2l5.7-3.3V590.6z M536.3,597.2
								l-5.7,3.3v-2.2l5.7-3.3V597.2z M524.8,603.8l-5.7,3.3v-2.2l5.7-3.3V603.8z M513.3,610.5l-5.7,3.3v-2.2l5.7-3.3V610.5z"/>
						</g>
					</g>
					<g>
						<g>
							<polygon class="st32" points="501.8,624.9 498.9,626.6 498.9,624.4 501.8,622.8 							"/>
						</g>
						<g>
							<path class="st32" d="M685.6,518.8l-5.7,3.3v-2.2l5.7-3.3V518.8z M674.1,525.5l-5.7,3.3v-2.2l5.7-3.3V525.5z M662.6,532.1
								l-5.7,3.3v-2.2l5.7-3.3V532.1z M651.1,538.7l-5.7,3.3v-2.2l5.7-3.3V538.7z M639.6,545.3l-5.7,3.3v-2.2l5.7-3.3V545.3z
								 M628.2,552l-5.7,3.3v-2.2l5.7-3.3V552z M616.7,558.6l-5.7,3.3v-2.2l5.7-3.3V558.6z M605.2,565.2l-5.7,3.3v-2.2l5.7-3.3
								V565.2z M593.7,571.9l-5.7,3.3V573l5.7-3.3V571.9z M582.2,578.5l-5.7,3.3v-2.2l5.7-3.3V578.5z M570.7,585.1l-5.7,3.3v-2.2
								l5.7-3.3V585.1z M559.2,591.8l-5.7,3.3v-2.2l5.7-3.3V591.8z M547.7,598.4l-5.7,3.3v-2.2l5.7-3.3V598.4z M536.3,605l-5.7,3.3
								v-2.2l5.7-3.3V605z M524.8,611.7L519,615l0-2.2l5.8-3.3V611.7z M513.3,618.3l-5.7,3.3v-2.2l5.7-3.3V618.3z"/>
						</g>
					</g>
					<g>
						<g>
							<polygon class="st4" points="501.8,632.8 498.9,634.4 498.9,632.2 501.8,630.6 							"/>
						</g>
						<g>
							<path class="st4" d="M697.1,520l-5.7,3.3l0-2.2l5.7-3.3V520z M685.6,526.7l-5.8,3.3v-2.2l5.8-3.3V526.7z M674.1,533.3
								l-5.7,3.3v-2.2l5.7-3.3V533.3z M662.6,539.9l-5.7,3.3v-2.2l5.8-3.3L662.6,539.9z M651.1,546.6l-5.7,3.3v-2.2l5.7-3.3V546.6z
								 M639.6,553.2l-5.7,3.3v-2.2l5.7-3.3V553.2z M628.2,559.8l-5.7,3.3V561l5.7-3.3V559.8z M616.7,566.5l-5.7,3.3v-2.2l5.7-3.3
								V566.5z M605.2,573.1l-5.7,3.3v-2.2l5.7-3.3V573.1z M593.7,579.7L588,583v-2.2l5.7-3.3L593.7,579.7z M582.2,586.4l-5.7,3.3
								v-2.2l5.7-3.3V586.4z M570.7,593l-5.7,3.3l0-2.2l5.7-3.3V593z M559.2,599.6l-5.7,3.3v-2.2l5.7-3.3V599.6z M547.7,606.3
								l-5.7,3.3v-2.2l5.7-3.3V606.3z M536.3,612.9l-5.7,3.3l0-2.2l5.7-3.3V612.9z M524.8,619.5l-5.7,3.3v-2.2l5.7-3.3V619.5z
								 M513.3,626.2l-5.7,3.3v-2.2l5.7-3.3V626.2z"/>
						</g>
					</g>
					<g>
						<g>
							<polygon class="st31" points="611.9,584.9 609,586.6 609,584.4 611.9,582.7 							"/>
						</g>
						<g>
							<path class="st31" d="M715.9,524.9l-5.8,3.3V526l5.8-3.3V524.9z M704.4,531.5l-5.8,3.3v-2.2l5.8-3.3V531.5z M692.8,538.2
								l-5.8,3.3v-2.2l5.8-3.3V538.2z M681.3,544.9l-5.8,3.3V546l5.8-3.3L681.3,544.9z M669.7,551.6l-5.8,3.3v-2.2l5.8-3.3V551.6z
								 M658.1,558.2l-5.8,3.3v-2.2l5.8-3.3V558.2z M646.6,564.9l-5.8,3.3v-2.2l5.8-3.3V564.9z M635,571.6l-5.8,3.3v-2.2l5.8-3.3
								V571.6z M623.4,578.3l-5.8,3.3v-2.2l5.8-3.3V578.3z"/>
						</g>
					</g>
					<g>
						<g>
							<polygon class="st32" points="611.9,592.8 609,594.4 609,592.2 611.9,590.6 							"/>
						</g>
						<g>
							<path class="st32" d="M715.9,532.7l-5.8,3.3v-2.2l5.8-3.3L715.9,532.7z M704.4,539.4l-5.8,3.3v-2.2l5.8-3.3V539.4z
								 M692.8,546.1l-5.8,3.3v-2.2l5.8-3.3V546.1z M681.3,552.7l-5.8,3.3v-2.2l5.8-3.3V552.7z M669.7,559.4l-5.8,3.3v-2.2l5.8-3.3
								V559.4z M658.1,566.1l-5.8,3.3v-2.2l5.8-3.3V566.1z M646.6,572.8l-5.8,3.3v-2.2l5.8-3.3V572.8z M635,579.4l-5.8,3.3v-2.2
								l5.8-3.3V579.4z M623.4,586.1l-5.8,3.3v-2.2l5.8-3.3V586.1z"/>
						</g>
					</g>
					<g>
						<g>
							<polygon class="st4" points="611.9,600.6 609,602.3 609,600.1 611.9,598.5 							"/>
						</g>
						<g>
							<path class="st4" d="M715.9,540.6l-5.8,3.3v-2.2l5.8-3.3V540.6z M704.4,547.2l-5.8,3.3v-2.2l5.8-3.3V547.2z M692.8,553.9
								l-5.8,3.3v-2.2l5.8-3.3V553.9z M681.3,560.6l-5.8,3.3v-2.2l5.8-3.3L681.3,560.6z M669.7,567.3l-5.8,3.3v-2.2l5.8-3.3V567.3z
								 M658.1,573.9l-5.8,3.3v-2.2l5.8-3.3V573.9z M646.6,580.6l-5.8,3.3v-2.2l5.8-3.3V580.6z M635,587.3l-5.8,3.3v-2.2l5.8-3.3
								V587.3z M623.4,594l-5.8,3.3v-2.2l5.8-3.3V594z"/>
						</g>
					</g>
					<g>
						<g>
							<polygon class="st4" points="611.9,608.5 609,610.1 609,608 611.9,606.3 							"/>
						</g>
						<g>
							<path class="st4" d="M715.9,548.4l-5.8,3.3v-2.2l5.8-3.3V548.4z M704.4,555.1l-5.8,3.3v-2.2l5.8-3.3V555.1z M692.8,561.8
								l-5.8,3.3v-2.2l5.8-3.3V561.8z M681.3,568.4l-5.8,3.3v-2.2l5.8-3.3V568.4z M669.7,575.1l-5.8,3.3v-2.2l5.8-3.3V575.1z
								 M658.1,581.8l-5.8,3.3v-2.2l5.8-3.3V581.8z M646.6,588.5l-5.8,3.3v-2.2l5.8-3.3V588.5z M635,595.1l-5.8,3.3v-2.2l5.8-3.3
								V595.1z M623.4,601.8l-5.8,3.3V603l5.8-3.3V601.8z"/>
						</g>
					</g>
					<g>
						<g>
							<polygon class="st4" points="611.9,616.4 609,618 609,615.8 611.9,614.2 							"/>
						</g>
						<g>
							<path class="st4" d="M715.9,556.3l-5.8,3.3v-2.2l5.8-3.3V556.3z M704.4,562.9l-5.8,3.3v-2.2l5.8-3.3V562.9z M692.8,569.6
								L687,573v-2.2l5.8-3.3V569.6z M681.3,576.3l-5.8,3.3v-2.2l5.8-3.3L681.3,576.3z M669.7,583l-5.8,3.3v-2.2l5.8-3.3V583z
								 M658.1,589.6l-5.8,3.3v-2.2l5.8-3.3V589.6z M646.6,596.3l-5.8,3.3v-2.2l5.8-3.3V596.3z M635,603l-5.8,3.3v-2.2l5.8-3.3V603z
								 M623.4,609.7l-5.8,3.3v-2.2l5.8-3.3V609.7z"/>
						</g>
					</g>
					<g>
						<g>
							<polygon class="st4" points="611.9,624.2 609,625.8 609,623.7 611.9,622 							"/>
						</g>
						<g>
							<path class="st4" d="M715.9,564.1l-5.8,3.3v-2.2l5.8-3.3L715.9,564.1z M704.4,570.8l-5.8,3.3v-2.2l5.8-3.3V570.8z
								 M692.8,577.5l-5.8,3.3v-2.2l5.8-3.3V577.5z M681.3,584.2l-5.8,3.3v-2.2l5.8-3.3V584.2z M669.7,590.8l-5.8,3.3V592l5.8-3.3
								V590.8z M658.1,597.5l-5.8,3.3v-2.2l5.8-3.3V597.5z M646.6,604.2l-5.8,3.3v-2.2l5.8-3.3V604.2z M635,610.9l-5.8,3.3V612
								l5.8-3.3V610.9z M623.4,617.5l-5.8,3.3v-2.2l5.8-3.3V617.5z"/>
						</g>
					</g>
				</g>
				<polygon class="st23" points="834.6,270.8 834.6,516.4 475.5,723.7 475.5,728.5 838.1,519.2 838.1,268.8 				"/>
			</g>
		</g>
	</g>
	<g>
		<g>
			<polygon class="st33" points="489.1,983.4 584.5,928.2 452.5,847.3 355.7,904.6 			"/>
			<polygon class="st0" points="485.2,976.5 580.7,921.3 580.7,899.9 452.5,847.3 357,902.5 			"/>
			<polygon class="st28" points="452.5,840.4 576,897.7 576,917.2 485.2,969.6 357,895.6 			"/>
			<polygon class="st34" points="452.5,835.4 473,844.9 473,906.3 576,906.3 576,912.2 485.2,964.6 357,890.6 			"/>
			<polygon class="st4" points="452.5,830.9 473,840.4 473,906.3 576,906.3 576,907.6 485.2,960 357,886 			"/>
			<polygon class="st35" points="485.2,955 580.7,899.9 452.5,825.9 357,881 			"/>
		</g>
		<g>
			<polygon class="st36" points="485.2,952.2 580.7,897.1 580.7,875.7 452.5,823.1 357,878.2 			"/>
			<polygon class="st28" points="452.5,816.2 576,873.5 576,892.9 485.2,945.4 357,871.3 			"/>
			<polygon class="st34" points="452.5,811.2 473,820.7 473,882 576,882 576,888 485.2,940.4 357,866.4 			"/>
			<polygon class="st4" points="452.5,806.6 473,816.1 473,882 576,882 576,883.4 485.2,935.8 357,861.8 			"/>
			<polygon class="st37" points="485.2,930.8 580.7,875.7 452.5,801.7 357,856.8 			"/>
		</g>
		<g>
			<polygon class="st38" points="485.2,926.3 580.7,871.2 580.7,849.7 452.5,797.2 357,852.3 			"/>
			<polygon class="st28" points="452.5,790.3 576,847.5 576,867 485.2,919.4 357,845.4 			"/>
			<polygon class="st34" points="452.5,785.3 473,794.8 473,856.1 576,856.1 576,862 485.2,914.5 357,840.5 			"/>
			<polygon class="st4" points="452.5,780.7 473,790.2 473,856.1 576,856.1 576,857.5 485.2,909.9 357,835.9 			"/>
			<polygon class="st39" points="485.2,904.9 580.7,849.7 452.5,775.7 357,830.9 			"/>
		</g>
	</g>
	
		<radialGradient id="SVGID_3_" cx="468.5383" cy="654.3307" r="68.1298" gradientTransform="matrix(0.9696 0 0 0.5753 15.8227 469.666)" gradientUnits="userSpaceOnUse">
		<stop  offset="0" style="stop-color:#7C969E"/>
		<stop  offset="1" style="stop-color:#FFFFFF;stop-opacity:0"/>
	</radialGradient>
	<path class="st40" d="M538.3,846.1c0,22-30.5,39.8-68.2,39.8c-37.6,0-68.1-17.8-68.1-39.8s30.5-39.8,68.1-39.8
		C507.8,806.2,538.3,824.1,538.3,846.1z"/>
	<g>
		<g>
			<path class="st6" d="M1093.8,711.7c-17.7,10.2-46.4,10.2-64.1,0c-17.7-10.2-17.7-26.8,0-37c17.7-10.2,46.4-10.2,64.1,0
				C1111.5,684.9,1111.5,701.5,1093.8,711.7z"/>
			<path class="st25" d="M1093.8,709.4c-17.7,10.2-46.4,10.2-64.1,0c-17.7-10.2-17.7-26.8,0-37c17.7-10.2,46.4-10.2,64.1,0
				C1111.5,682.7,1111.5,699.2,1093.8,709.4z"/>
		</g>
		<g>
			<g>
				<path class="st41" d="M1090.6,685.5c-7.2,0-12.3-5.4-12.3-12.8v-20.6c0-8.6,6.7-17.2,15.2-19.8c1.5-0.5,3.1-0.7,4.6-0.7
					c7.2,0,12.3,5.4,12.3,12.8V665c0,8.6-6.7,17.2-15.2,19.8C1093.6,685.3,1092,685.5,1090.6,685.5z M1097.9,638
					c-0.9,0-1.8,0.1-2.8,0.4c-5.8,1.7-10.7,8-10.7,13.8v20.6c0,4,2.3,6.5,6.1,6.5c0.9,0,1.8-0.1,2.8-0.4c5.8-1.7,10.7-8,10.7-13.8
					v-20.6C1104,640.5,1101.7,638,1097.9,638z"/>
			</g>
			<path class="st42" d="M1088.7,688.3v-50.2h-54v50.2c0,4,2.6,8,7.9,11c10.5,6.1,27.6,6.1,38.2,0
				C1086.1,696.3,1088.7,692.3,1088.7,688.3z"/>
			<path class="st35" d="M1080.8,649.2c-10.5,6.1-27.6,6.1-38.2,0c-10.5-6.1-10.5-16,0-22c10.5-6.1,27.6-6.1,38.2,0
				C1091.4,633.2,1091.4,643.1,1080.8,649.2z"/>
			<path class="st35" d="M1080.8,649.2c-10.5,6.1-27.6,6.1-38.2,0c-10.5-6.1-10.5-16,0-22c10.5-6.1,27.6-6.1,38.2,0
				C1091.4,633.2,1091.4,643.1,1080.8,649.2z"/>
			<path class="st43" d="M1036.5,643.6c1.3,2,3.4,3.9,6.2,5.5c10.5,6.1,27.6,6.1,38.2,0c2.8-1.6,4.9-3.5,6.2-5.5
				c-1.1-2.6-3.4-5-6.8-7c-10.2-5.9-26.7-5.9-36.8,0C1039.9,638.6,1037.6,641.1,1036.5,643.6z"/>
		</g>
	</g>
	<g>
		<g>
			<g>
				<path class="st44" d="M877.9,755.5c-2.2-1.1-22.7-9.9-27.4-15.9c-0.6-1.3-1.1-2.6-1.6-4.2c-3.1-9.8-10-18.7-17.6-21.5
					c-3-1.1-5.6-0.4-4.8,1.4c1.2,2.6,6.9,6.9,6.9,6.9c-11.1-7.3-16.9-10.9-21.5-10.2c-4.6,0.7,0.6,5.1,0.6,5.1s-8.8-4.4-11.8-2.5
					c-3,1.9,3.2,5.9,3.2,5.9s-7.3-2.2-10.2-0.8c-2.8,1.3,1.5,6.5,2.8,7.3c1.3,0.9,16.5,16.6,17.9,19c-11.3-3.6-16-2.8-18.5-2.2
					c-2.5,0.6-6.7,3.1-2.6,5.9c4.1,2.8,8.7,0.6,12.6,3.1c5.9,3.8,16.7,6.9,25.1,8.8c8.4,1.9,15.9,5.8,18.1,7.3l0,0
					c22.4,14.1,78.9,47.7,86.7,60.3l57.3-12.6C971.5,797,921.9,777.9,877.9,755.5z"/>
				<path class="st5" d="M860.8,785.6c-11.4,8.3-71.3,110-82.7,124.5c-5.9,7.5-46.7-47.7-64-70.5c-1.5-4-3.7-11.3-4.3-19.1
					c-0.7-9.7-2.4-22.3-5.7-29.5c-2.1-4.7,1.1-9.5-1.4-14.5c-2.4-5-5.9-0.8-7,1.9c-1.1,2.7-2.8,7.9-0.7,21.1
					c-2.5-2-17.5-21.5-18.3-23.1c-0.7-1.6-5.7-7.3-7.7-4.4c-2,2.9-0.8,11.5-0.8,11.5s-3.5-7.6-6.1-4.5c-2.6,3,0.8,13.6,0.8,13.6
					s-4-6.6-5.6-1.6c-1.5,5,1.5,12.1,7.8,25.7c0,0-3.9-7.1-6.6-8.9c-1.8-1.2-3.1,1.5-2.3,5.1c1.9,8.9,10.6,18.1,21.1,23.2
					c3,1.4,5.4,3,7.4,4.6c26.6,47.8,58.6,121.4,89.8,127.7c31.2,6.2,93.9-90,99.1-93.1c4.7-2.8,35.9,6,45.4,38.2h23.8V777.7
					C904.8,782.8,870.2,778.7,860.8,785.6z"/>
				<g>
					<path class="st5" d="M951.4,622.1c0,0-76.8-17.6-86.9,30.6c-10.1,48.1-1.6,73.7,9.3,94.7c8,15.5,29.4,11.6,44.1,5.9l2.9,9.1
						c0,0,35.7,0.4,48.5-20.7c-6.8-8-8.4-20.6-8.8-28C975.2,689.6,983.1,655.8,951.4,622.1z"/>
					<path class="st45" d="M846.2,623.4c0,0,1.9,40.2,27.7,45.2c9.4,3.1,1.9,12,6.2,15.8c4.3,3.7,8.2,13.5,7.4,20.5
						c4.7,2.3,7,2.3,7,2.3s0.4-9,2.7-14.8c2.3-5.8,16,2.3,14,14.8c-1.9,12.5,3.9,23.9,7.4,27.2c3.5,3.2,38,0.1,44.6-5.7
						c5-14,19-47.2,16.3-71.8c-2.7-24.6-7.3-41.3-30-41.1c-17.2-15-41.8-11.5-49.6-10c-7.8,1.6-23.8-2.3-30-11.3
						c-2.7,4.7,2.3,12.1,5.3,13.6c-4.1,1.6-11.7-2.9-14.8-5.7c-0.4,4.9,3.7,13.3,8.2,14.6c-5.3,0.8-11.7-3.7-13.1-6
						c-0.6,1.8,2.3,12.9,6,13.6c-3.1,0.2-7.6-2.3-9-5.7c-0.8,1,0,8.8,3.5,10.7C852.2,631,848.3,627.1,846.2,623.4z"/>
					<g>
						<path class="st45" d="M949.6,615.8c0,0-10-4.1-11.4-8.7c-0.2-0.8,2.8-11.2-5.9-17.7c-11.4-8.5-20.5,1-22.9,5.1
							c-5.8-12.3-23.2-11-25-5.1c-11.2-17.4-35.8-14.7-38.2,0.4c-10.1-2.8-22.8,16.2-9.1,26.3c-8.1,4.8-7.8,27.1,7.8,29.5
							c-9.1,11.8,4.9,25,16.9,22.1c7.9,14.4,33.5,17.6,46.7,8.8c4.1,13.8,4.5,21.5,4.5,21.5s-14.1,13.4-2.2,25.4
							c-3.3,9.3,6.4,18.7,17.3,12.4c9.1,7,15.4,6.1,19.4-2c7.5,9.9,18.5,3.9,16.7-7.8c6.8,0.8,12.4-5.1,9.9-13
							c12.6-0.3,26.6-16.4,16.1-32.1c9.4-11.8,2.1-24.3-4.7-27.3c14.1-7.3,6.6-36.6-11.4-30.8C976.2,608.4,957.9,605.9,949.6,615.8z
							"/>
						<g>
							<path class="st46" d="M878,690.6c0,12.2,9.9,29.3,20.5,35.4c10.6,6.1,20.5-2.3,20.5-14.5c0-12.2-8.6-27.1-19.2-33.2
								C889.2,672.2,878,678.4,878,690.6z"/>
							<path class="st30" d="M877.1,692.6c0,12.2,8.6,27.1,19.2,33.2c10.6,6.1,19.2,1.1,19.2-11.1c0-12.2-8.6-27.1-19.2-33.2
								C885.7,675.5,877.1,680.4,877.1,692.6z"/>
						</g>
						<path class="st13" d="M949.6,615.6l-11.4-8.5c0,0-55.8-7.4-47.5,83.3c3.2,5,10.3,4.1,10.3,4.1s-1.8-30.2,4.1-47.5
							C910.9,629.8,927.3,613,949.6,615.6z"/>
					</g>
				</g>
				<path class="st47" d="M1034.7,741.9c-1.1-1-2.6-2.6-5-4.9c-9.1-9.1-27.6-11.9-64.2-2.6c-46.7,11.9-93.3,35.9-104.7,44.2
					c-7.2,5.2-35.8,48.8-58.9,84c7.7,23.1,30.2,37,52.1,49.4c15.7-16.6,22.9-26.1,25-27.3c5.2-3.1,8.8,10.1,14,50.7
					c4.8,37.2-15.1,119.9-15.1,145.8c27,27,179.1,24.4,201.7-8.3C1095.1,1001.8,1071.2,780.1,1034.7,741.9z"/>
			</g>
			<path class="st30" d="M883.1,794.5c-2.7-7.8-9.7-15.7-21.1-16.4c-0.3,0.2-0.6,0.4-0.8,0.5c-7.4,5.3-36.9,49.5-60.7,85.2
				c7.9,23.4,31.1,37.5,53.6,50.1c16.2-16.9,23.6-26.4,25.8-27.7c1.6-1,3.1-0.4,4.5,2C895.5,857.6,893.9,823.8,883.1,794.5z"/>
		</g>
		<g>
			<path class="st8" d="M927.2,1264.3c0,0,10.2,2.7,16,0c29.7-13.8,165.7-82,174-117.4c9.1-38.8-2.8-52.6,5.2-119.3
				c8-66.7,40-130.3,30.3-147.8c-20.5-37.3-184.9,56.2-219.7,133.2C898.4,1089.9,903.8,1252.9,927.2,1264.3z"/>
			<path class="st16" d="M943.2,1264.3c0,0,181-78.6,190.1-117.4c9.1-38.8-2.8-52.6,5.2-119.3c8-66.7,23.4-126.5,16.5-145.4
				c-6.8-18.8-171.8,65-206.6,141.9C913.7,1101.1,919.9,1252.9,943.2,1264.3z"/>
		</g>
	</g>
	<g>
		<g>
			<g>
				<path class="st48" d="M838.4,121c0,27.5-19.3,61-43.2,74.8c-23.8,13.8-43.2,2.6-43.2-24.9s19.3-61,43.2-74.8
					C819.1,82.3,838.4,93.5,838.4,121z"/>
				<g>
					<text transform="matrix(0.866 -0.5 0 1 760.8558 185.7441)" class="st4 st49 st50">PHP</text>
				</g>
			</g>
			<g>
				<path class="st39" d="M527.2,304.9c0,27.5-19.3,61-43.2,74.8c-23.8,13.8-43.2,2.6-43.2-24.9c0-27.5,19.3-61,43.2-74.8
					C507.9,266.2,527.2,277.4,527.2,304.9z"/>
				<g>
					<text transform="matrix(0.866 -0.5 0 1 448.4866 370.2809)" class="st4 st49 st50">
&gt;/&lt;</text>
				</g>
			</g>
			<g>
				<path class="st51" d="M629,246.1c0,27.5-19.3,61-43.2,74.8c-23.8,13.8-43.2,2.6-43.2-24.9c0-27.5,19.3-61,43.2-74.8
					C609.7,207.4,629,218.6,629,246.1z"/>
				<g>
					<text transform="matrix(0.866 -0.5 0 1 552.4572 305.5468)" class="st4 st49 st52">HTML</text>
				</g>
			</g>
			<g>
				<path class="st53" d="M733.2,185.9c0,27.5-19.3,61-43.2,74.8c-23.8,13.8-43.2,2.6-43.2-24.9c0-27.5,19.3-61,43.2-74.8
					C713.9,147.3,733.2,158.4,733.2,185.9z"/>
				<g>
					<text transform="matrix(0.866 -0.5 0 1 659.2812 249.298)" class="st4 st49 st50">C++</text>
				</g>
			</g>
			<g>
				<path class="st51" d="M600.4,400.2c0,27.5-19.3,61-43.2,74.8c-23.8,13.8-43.2,2.6-43.2-24.9c0-27.5,19.3-61,43.2-74.8
					C581.1,361.5,600.4,372.6,600.4,400.2z"/>
				<g>
					<g>
						<path class="st4" d="M541.2,445.6c-7-4.1-7-17.3,0-29.5c7-12.2,18.5-18.8,25.6-14.8c7,4.1,7,17.3,0,29.5
							C559.7,443,548.2,449.7,541.2,445.6z M563.5,407c-5.2-3-13.8,1.9-19,11c-5.2,9.1-5.2,19,0,22c5.3,3,13.8-1.9,19-11
							C568.7,419.9,568.7,410,563.5,407z"/>
					</g>
					<g>
						
							<rect x="565.9" y="428.2" transform="matrix(0.4998 -0.8661 0.8661 0.4998 -89.6912 711.5347)" class="st4" width="10.6" height="10.5"/>
					</g>
				</g>
			</g>
		</g>
		<g>
			<path class="st54" d="M806.2,275.6c0,27.5-19.3,61-43.2,74.8c-23.8,13.8-43.2,2.6-43.2-24.9c0-27.5,19.3-61,43.2-74.8
				C786.9,236.9,806.2,248.1,806.2,275.6z"/>
			<g>
				<text transform="matrix(0.866 -0.5 0 1 749.8165 328.434)" class="st4 st49 st50">JS</text>
			</g>
		</g>
		<g>
			<path class="st55" d="M704.3,335.5c0,27.5-19.3,61-43.2,74.8c-23.8,13.8-43.2,2.6-43.2-24.9c0-27.5,19.3-61,43.2-74.8
				C685,296.8,704.3,308,704.3,335.5z"/>
			<g>
				<text transform="matrix(0.866 -0.5 0 1 632.4243 396.9718)" class="st4 st49 st50">CSS</text>
			</g>
		</g>
	</g>
	<g>
		<g>
			<path class="st21" d="M505.1,763.6c-18.5-17.8-48.4-17.8-66.8,0c-18.5,17.9-18.5,46.8,0,64.6c9.2,8.9,21.3,13.4,33.4,13.4
				c12.1,0,24.2-4.5,33.4-13.4c9.2-8.9,13.8-20.6,13.8-32.3C518.9,784.3,514.3,772.6,505.1,763.6z"/>
			<g>
				<path class="st23" d="M521,784.8l-0.4,0.6v3.9l-48.9,5.6l-17.4-10.1h-35.5v10c0,7.9,5.1,15.7,15.5,21.7c10.3,6,23.9,9,37.5,9
					c13.6,0,27.1-3,37.5-9c10.2-5.9,15.4-13.6,15.5-21.4h0v-10.3H521z"/>
				<path class="st26" d="M509.1,763.4c-20.7-12-54.2-12-74.9,0c-20.7,11.9-20.7,31.3,0,43.3c10.3,6,23.9,9,37.5,9
					c13.6,0,27.1-3,37.5-9c10.3-6,15.5-13.8,15.5-21.6C524.7,777.2,519.5,769.4,509.1,763.4z"/>
			</g>
			<g>
				<path class="st21" d="M518.5,773l-0.4,0.6v3.7l-46.5,5.3l-16.6-9.6h-33.8v9.5c0,7.5,4.9,14.9,14.8,20.6
					c9.8,5.7,22.7,8.5,35.6,8.5c12.9,0,25.8-2.8,35.6-8.5c9.7-5.6,14.6-13,14.7-20.3l0,0V773H518.5z"/>
				<path class="st56" d="M507.3,752.7c-19.7-11.4-51.6-11.4-71.2,0c-19.7,11.4-19.7,29.8,0,41.1c9.8,5.7,22.7,8.5,35.6,8.5
					c12.9,0,25.8-2.8,35.6-8.5c9.8-5.7,14.7-13.1,14.7-20.6C522,765.8,517.1,758.3,507.3,752.7z"/>
			</g>
			<g>
				<path class="st23" d="M521,765.9l-0.4,0.6v3.9l-48.9,5.6l-17.4-10.1h-35.5v10c0,7.9,5.1,15.7,15.5,21.7c10.3,6,23.9,9,37.5,9
					c13.6,0,27.1-3,37.5-9c10.2-5.9,15.4-13.6,15.5-21.4h0v-10.3H521z"/>
				<path class="st26" d="M509.1,744.5c-20.7-11.9-54.2-11.9-74.9,0c-20.7,11.9-20.7,31.3,0,43.3c10.3,6,23.9,9,37.5,9
					c13.6,0,27.1-3,37.5-9c10.3-6,15.5-13.8,15.5-21.6C524.7,758.3,519.5,750.5,509.1,744.5z"/>
			</g>
			<g>
				<path class="st21" d="M518.5,754.1l-0.4,0.6v3.7l-46.5,5.3l-16.6-9.6h-33.8v9.5c0,7.5,4.9,14.9,14.8,20.6
					c9.8,5.7,22.7,8.5,35.6,8.5c12.9,0,25.8-2.8,35.6-8.5c9.7-5.6,14.6-13,14.7-20.3l0,0v-9.8H518.5z"/>
				<path class="st56" d="M507.3,733.8c-19.7-11.4-51.6-11.4-71.2,0c-19.7,11.4-19.7,29.8,0,41.1c9.8,5.7,22.7,8.5,35.6,8.5
					c12.9,0,25.8-2.8,35.6-8.5c9.8-5.7,14.7-13.1,14.7-20.6C522,746.9,517.1,739.5,507.3,733.8z"/>
			</g>
			<g>
				<path class="st23" d="M521,747l-0.4,0.6v3.9l-48.9,5.6L454.2,747h-35.5v10c0,7.9,5.1,15.7,15.5,21.7c10.3,6,23.9,9,37.5,9
					c13.6,0,27.1-3,37.5-9c10.2-5.9,15.4-13.6,15.5-21.4h0V747H521z"/>
				<path class="st26" d="M509.1,725.6c-20.7-11.9-54.2-11.9-74.9,0c-20.7,11.9-20.7,31.3,0,43.3c10.3,6,23.9,9,37.5,9
					c13.6,0,27.1-3,37.5-9c10.3-6,15.5-13.8,15.5-21.6C524.7,739.4,519.5,731.6,509.1,725.6z"/>
			</g>
			<g>
				<g>
					<g>
						<path class="st21" d="M518.5,735.2l-0.4,0.6v3.7l-46.5,5.3l-16.6-9.6h-33.8v9.5c0,7.5,4.9,14.9,14.8,20.6
							c9.8,5.7,22.7,8.5,35.6,8.5c12.9,0,25.8-2.8,35.6-8.5c9.7-5.6,14.6-13,14.7-20.3l0,0v-9.8H518.5z"/>
					</g>
				</g>
			</g>
			<path class="st54" d="M561.7,683.8l-90.2,8.4l-90.1-8.4c0,0,28,29,28.2,51.4c0,0,0,0,0,0c-0.1,9.3,5.9,18.6,18.1,25.7
				c12.1,7,28,10.5,43.9,10.5c15.9,0,31.8-3.5,43.9-10.5c12.1-7,18.2-16.2,18.2-25.3c0-0.7-0.1-1.5-0.2-2.2
				C535.2,711.2,561.7,683.8,561.7,683.8z"/>
			<path class="st54" d="M548.4,556.1c-42.4-39.5-111.1-39.5-153.5,0c-42.4,39.5-42.4,103.6,0,143.1c21.2,19.8,49,29.6,76.7,29.6
				c27.8,0,55.5-9.9,76.7-29.6c21.2-19.8,31.8-45.6,31.8-71.6C580.2,601.8,569.6,575.9,548.4,556.1z"/>
			<path class="st57" d="M548.4,556.1c-31.8-29.6-78.3-37-117.5-22.3c-1,0.9-2.1,1.8-3.1,2.8c-34.9,32.5-34.9,85.2,0,117.7
				c17.4,16.2,40.3,24.4,63.1,24.4c22.8,0,45.7-8.1,63.1-24.4c13.2-12.3,21.4-27.5,24.6-43.5C575,590.8,565,571.6,548.4,556.1z"/>
			<path class="st58" d="M541.3,561c-30-26.2-74.6-31.9-111-17.2c30.7-4.4,63.6,2.8,87.3,21.5c19.2,15.2,28.8,35.1,28.8,55.1
				c0,19.9-9.6,39.9-28.8,55.1c-19.2,15.2-44.5,22.8-69.7,22.8c-9.2,0-18.4-1-27.3-3c15.6,8.3,33.3,12.4,51,12.4
				c25.2,0,50.4-8.4,69.7-25.2c19.2-16.8,28.8-38.7,28.8-60.7C570.2,599.7,560.6,577.7,541.3,561z"/>
		</g>
		<g>
			<g>
				<g>
					<g>
						<g>
							<rect x="287.3" y="625.4" class="st59" width="57.8" height="14.1"/>
						</g>
						<g>
							<rect x="595.2" y="625.4" class="st59" width="57.8" height="14.1"/>
						</g>
					</g>
					<g>
						<g>
							<rect x="463.1" y="449.6" class="st59" width="14.1" height="57.8"/>
						</g>
					</g>
				</g>
				<g>
					<g>
						<g>
							
								<rect x="354.2" y="494.7" transform="matrix(0.7071 -0.7071 0.7071 0.7071 -264.4611 408.8318)" class="st59" width="14.1" height="57.8"/>
						</g>
						<g>
							
								<rect x="571.9" y="712.5" transform="matrix(0.7071 -0.7071 0.7071 0.7071 -354.6434 626.5057)" class="st59" width="14.1" height="57.8"/>
						</g>
					</g>
					<g>
						<g>
							
								<rect x="332.4" y="734.3" transform="matrix(0.7071 -0.7071 0.7071 0.7071 -418.4254 472.5893)" class="st59" width="57.8" height="14.1"/>
						</g>
						<g>
							
								<rect x="550.1" y="516.6" transform="matrix(0.7071 -0.7071 0.7071 0.7071 -200.6848 562.78)" class="st59" width="57.8" height="14.1"/>
						</g>
					</g>
				</g>
			</g>
			<g>
				<g>
					<g>
						<g>
							
								<rect x="321.7" y="542.5" transform="matrix(0.3967 -0.918 0.918 0.3967 -326.1884 646.5886)" class="st59" width="14.1" height="57.8"/>
						</g>
						<g>
							
								<rect x="604.4" y="664.7" transform="matrix(0.3967 -0.918 0.918 0.3967 -267.7601 979.7629)" class="st59" width="14.1" height="57.8"/>
						</g>
					</g>
					<g>
						<g>
							
								<rect x="502.3" y="484.1" transform="matrix(0.3968 -0.9179 0.9179 0.3968 -130.4249 783.8766)" class="st59" width="57.8" height="14.1"/>
						</g>
					</g>
				</g>
				<g>
					<g>
						<g>
							
								<rect x="406.3" y="460.5" transform="matrix(0.9296 -0.3686 0.3686 0.9296 -151.2919 186.8456)" class="st59" width="14.1" height="57.8"/>
						</g>
					</g>
					<g>
						<g>
							
								<rect x="298.1" y="682.2" transform="matrix(0.9296 -0.3684 0.3684 0.9296 -230.9527 168.9731)" class="st59" width="57.8" height="14.1"/>
						</g>
						<g>
							
								<rect x="584.4" y="568.7" transform="matrix(0.9296 -0.3685 0.3685 0.9296 -169.0048 266.4864)" class="st59" width="57.8" height="14.1"/>
						</g>
					</g>
				</g>
			</g>
		</g>
	</g>
	<g>
		
			<radialGradient id="SVGID_4_" cx="994.083" cy="-40.2418" r="131.0387" gradientTransform="matrix(0.9696 0 0 0.5753 15.8227 383.7961)" gradientUnits="userSpaceOnUse">
			<stop  offset="0" style="stop-color:#7C969E"/>
			<stop  offset="1" style="stop-color:#FFFFFF;stop-opacity:0"/>
		</radialGradient>
		<path class="st60" d="M1110.8,360.6c0,42.3-58.7,76.6-131.1,76.6c-72.4,0-131.1-34.3-131.1-76.6c0-42.3,58.7-76.6,131.1-76.6
			C1052.1,284,1110.8,318.3,1110.8,360.6z"/>
		<g>
			<g>
				<g>
					<g>
						<path class="st13" d="M888.3,10.6l13.4-9.2l0,0c1.9-1.6,4.9-1.6,8.2,0.3l124.9,72.1c5.8,3.4,10.6,11.6,10.6,18.3v264.9
							c0,3.1-1,5.3-2.6,6.5h0l-14.9,10.2l1.1-13.9L909.9,291c-5.8-3.4-10.6-11.6-10.6-18.3v-252L888.3,10.6z"/>
						<path class="st29" d="M884.8,282.6c0,6.7,4.7,14.9,10.6,18.3l124.9,72.1c5.8,3.4,10.6,0.6,10.6-6.1V101.9
							c0-6.7-4.7-14.9-10.6-18.3L895.3,11.5c-5.8-3.4-10.6-0.6-10.6,6.1V282.6z"/>
						<path class="st13" d="M1008,91.6c0,2.8,1.5,5,3.2,5c1.8,0,3.2-2.2,3.2-5s-1.4-5-3.2-5C1009.4,86.6,1008,88.8,1008,91.6z"/>
						<path class="st13" d="M994.6,84.3c0,1.9,1,3.4,2.2,3.4c1.2,0,2.2-1.5,2.2-3.4c0-1.9-1-3.4-2.2-3.4
							C995.6,81,994.6,82.5,994.6,84.3z"/>
						<g>
							<path class="st61" d="M1035.7,166.9c0,2.1,1.9,3.5,3.7,2.5l-0.5-0.6c1.8-1,3.2-3.5,3.2-5.6l0.9-26c0-2.1-2.3-3.3-4.1-2.2l0,0
								c-1.8,1-3.2,3.5-3.2,5.6V166.9z"/>
							<path class="st12" d="M1036.8,167.6c0,2.1,1.4,2.9,3.2,1.9l0,0c1.8-1,3.2-3.5,3.2-5.6v-26.4c0-2.1-1.4-2.9-3.2-1.9l0,0
								c-1.8,1-3.2,3.5-3.2,5.6V167.6z"/>
						</g>
						<g>
							<path class="st61" d="M1035.7,202.4c0,2.1,1.9,3.6,3.6,2.6l-0.4-0.7c1.8-1,3.2-3.5,3.2-5.6l0.8-26.1c0-2.1-2.2-3.3-4-2.2l0,0
								c-1.8,1-3.2,3.5-3.2,5.6V202.4z"/>
							<path class="st12" d="M1036.8,203.1c0,2.1,1.4,2.9,3.2,1.9l0,0c1.8-1,3.2-3.6,3.2-5.6V173c0-2.1-1.4-2.9-3.2-1.9l0,0
								c-1.8,1-3.2,3.5-3.2,5.6V203.1z"/>
						</g>
						<g>
							<path class="st61" d="M1035.7,343.2c0,2.1,1.9,3.6,3.6,2.6l-0.4-0.7c1.8-1,3.2-3.5,3.2-5.6l0.8-26.1c0-2.1-2.2-3.3-4-2.2l0,0
								c-1.8,1-3.2,3.5-3.2,5.6V343.2z"/>
							<path class="st12" d="M1036.8,344c0,2.1,1.4,2.9,3.2,1.9l0,0c1.8-1,3.2-3.6,3.2-5.6v-26.4c0-2.1-1.4-2.9-3.2-1.9l0,0
								c-1.8,1-3.2,3.6-3.2,5.6V344z"/>
						</g>
						<path class="st62" d="M1018.6,77.1c2,1.1,5.1,1.1,7.1,0c2-1.1,2-3,0-4.1c-2-1.1-5.1-1.1-7.1,0
							C1016.6,74.2,1016.6,76,1018.6,77.1z"/>
						<path class="st62" d="M998.3,65.1c2,1.1,5.1,1.1,7.1,0c2-1.1,2-3,0-4.1c-1.9-1.1-5.1-1.1-7.1,0
							C996.3,62.2,996.3,64,998.3,65.1z"/>
					</g>
				</g>
				<polygon class="st53" points="892.8,253.8 1022.8,328.9 1022.8,112.6 892.8,37.5 				"/>
			</g>
			<g>
				<path class="st39" d="M963.8,230.7c0,5.3-3.7,7.5-8.3,4.8c-4.6-2.7-8.3-9.1-8.3-14.4c0-5.3,3.7-7.5,8.3-4.8
					C960,218.9,963.8,225.4,963.8,230.7z"/>
				<g>
					<path class="st39" d="M955.4,148.8c-20-11.5-38-11.9-50.4-3.2l5.9,10.8c10.9-8,26.8-7.8,44.6,2.4
						c17.8,10.2,33.7,28.5,44.6,49.1l5.8-4.1C993.4,180.7,975.4,160.3,955.4,148.8z"/>
					<path class="st39" d="M955.4,171c-15-8.7-28.4-8.6-37.4-1.4l5.9,10.9c7.4-6.5,18.7-6.9,31.5,0.5c12.8,7.4,24.2,20.9,31.5,35.9
						l5.9-4.1C983.9,195.3,970.5,179.7,955.4,171z"/>
					<path class="st39" d="M955.4,193.3c-10-5.8-18.9-5.1-24.2,0.7l6,11.2c3.6-5.3,10.4-6.4,18.2-1.9c7.8,4.5,14.6,13.5,18.2,22.9
						l6-4.2C974.4,210,965.5,199.1,955.4,193.3z"/>
				</g>
			</g>
			<path class="st63" d="M935.5,47.4c0,3.1,2.2,6.8,4.8,8.3l37.4,21.6c2.6,1.5,4.8,0.3,4.8-2.8l0,0c0-3.1-2.2-6.8-4.8-8.3
				l-37.4-21.6C937.6,43.1,935.5,44.4,935.5,47.4L935.5,47.4z"/>
		</g>
	</g>
</g>
</svg>
