<svg width="2561" height="1232" viewBox="0 0 2561 1232" fill="none" xmlns="http://www.w3.org/2000/svg">
<path d="M461.1 612.3C445.1 626.3 421.4 630.8 401.4 623.5C381.4 616.2 366.1 597.5 362.9 576.6C359.1 551.9 369.6 522.2 352.2 504.3C343.4 495.3 329.5 492.2 322 482.1C315.8 473.6 315.6 462.2 315.7 451.7C315.9 433 316.1 414.2 316.3 395.5C308 385.1 291.2 385.7 281.2 376.9C271.4 368.1 269.2 353.8 267.5 340.8C262.3 302.2 255 263.9 245.6 226.2C274.8 234.8 303.7 244.1 331.4 256.7C346.8 263.8 363 272.4 370.7 287.5C378.5 302.7 376 320.8 375.8 337.9C375.7 343.4 375.9 349.1 378.3 354.1C384.3 367 400.9 370 413.2 377.1C426.8 384.9 436.3 399.5 438 415.2C439.5 429.4 434.9 443.9 437.6 457.9C443.5 489 480.8 503.3 495.6 531.2C511.1 560.4 486 590.5 461.1 612.3Z" fill="#D4DFFF"/>
<path d="M537.8 890C537.3 890 536.8 889.6 536.8 889.1C530.9 855.2 510.5 763.5 474.9 659.2C448.8 582.7 418.6 510.3 385.1 444.2C343.2 361.6 296.1 288.4 245 226.8C244.6 226.3 244.7 225.7 245.1 225.3C245.6 224.9 246.2 225 246.6 225.4C297.8 287.1 345.1 360.4 387 443.2C420.6 509.4 450.8 581.9 477 658.5C512.6 762.9 533.1 854.7 539 888.7C539.1 889.3 538.7 889.8 538.1 889.9C537.9 890 537.8 890 537.8 890Z" fill="#1C056D"/>
<path d="M0 524.8C10 532.9 14.3 545.9 19.4 557.7C24.5 569.5 32.3 581.9 44.8 584.9C58.4 588.2 72.6 579.2 86.3 582.3C97.3 584.8 105.2 594.5 111 604.2C116.8 613.9 121.9 624.5 130.9 631.4C144.9 642 164.3 640.6 181.7 638.2C199.1 635.8 218 633.1 233.2 642C251.7 652.8 258.5 677.2 276.9 688.2C284.7 692.9 293.9 694.6 303 695.3C330 697.3 357.6 690.1 380.1 675C378.8 650.4 370.2 623.8 354.8 604.6C339.3 585.4 316.1 572.1 291.4 570.7C283.5 570.3 275.6 571 267.8 569.8C235.2 564.4 218.2 526.5 188 513.1C175.2 507.4 160.2 506.6 146.8 510.8C133.7 514.9 122 523.7 108.3 525.2C94.9 526.6 82 520.8 69.1 517.2C44.3 510.2 24.2 516 0 524.8Z" fill="#D4DFFF"/>
<path d="M528.6 881.3C528.1 881.3 527.7 881 527.6 880.5C512.1 819.8 477.3 761.7 427.1 712.3C384 669.9 328.6 633.2 262.4 603.2C191.2 570.9 109.2 546.5 4.10007 526.2C3.50007 526.1 3.10007 525.5 3.30007 525C3.40007 524.4 4.00007 524 4.50007 524.2C109.7 544.5 192 569 263.3 601.4C329.7 631.5 385.3 668.3 428.6 710.9C479.1 760.5 514 819 529.6 880.1C529.7 880.7 529.4 881.2 528.8 881.4C528.8 881.2 528.7 881.3 528.6 881.3Z" fill="#1C056D"/>
<path d="M570.4 523.7C554.9 526.7 538.2 522.5 525.9 512.5C513.6 502.5 506.1 487 505.9 471.2C505.7 459.2 509.5 447.5 513.6 436.3C515 432.4 516.5 428.4 516 424.3C515.6 421.1 514 418.1 512.2 415.4C505.5 405.1 496.2 396.2 492.7 384.5C486.5 363.7 500.4 341.3 496 320C494.5 312.6 490.8 305.8 488.2 298.7C479 273.7 483.8 244 500.4 223.1C523.8 232.5 539.1 257.4 539.3 282.7C539.4 295.3 536 308.6 541.3 320C544.5 326.8 550.4 331.9 556 336.9C565.7 345.8 575.1 356 578.5 368.7C583.9 388.7 573.6 410.7 580.3 430.3C586.9 449.7 608.6 461.3 614.5 480.9C616.1 486.2 616.4 491.8 616 497.2C615.3 505.6 612.5 514.3 606.2 519.9C596.2 528.7 583.4 521.2 570.4 523.7Z" fill="#D4DFFF"/>
<path d="M579.2 886.5C578.7 886.5 578.2 886.1 578.1 885.5C573.5 831.5 574.8 776.3 576 722.9C577.7 649 579.4 572.6 565.6 499C558.5 460.9 547 423 536 386.4C520.6 335.4 504.7 282.7 500.2 228.8C500.2 228.2 500.6 227.7 501.2 227.7C501.8 227.7 502.3 228.1 502.3 228.7C506.8 282.4 522.7 335 538 385.8C549.1 422.5 560.5 460.4 567.7 498.6C581.6 572.4 579.8 649 578.1 722.9C576.9 776.2 575.6 831.4 580.2 885.3C580.3 885.9 579.9 886.4 579.2 886.5C579.3 886.5 579.3 886.5 579.2 886.5Z" fill="#1C056D"/>
<path d="M462.3 1226.2C462.3 1226.2 364.1 894.3 379.9 885.5C395.7 876.7 783.4 876.4 783.4 876.4C783.4 876.4 738.9 1225.5 726.6 1226.2C714.3 1227 495 1227.8 462.3 1226.2Z" fill="#1B3D9E"/>
<mask id="mask0_146_213" style="mask-type:luminance" maskUnits="userSpaceOnUse" x="378" y="876" width="406" height="352">
<path d="M462.3 1226.2C462.3 1226.2 364.1 894.3 379.9 885.5C395.7 876.7 783.4 876.4 783.4 876.4C783.4 876.4 738.9 1225.5 726.6 1226.2C714.3 1227 495 1227.8 462.3 1226.2Z" fill="white"/>
</mask>
<g mask="url(#mask0_146_213)">
<path d="M558 850.8C558 850.8 444.6 995.7 451 999.6C457.4 1003.5 776.1 1069.2 775.9 1065.3C775.8 1061.4 808.3 876.5 808.3 876.5L558 850.8Z" fill="#1C056D"/>
</g>
<path d="M1490 941.2H1212.6V1177H1490V941.2Z" fill="#1B3D9E"/>
<path d="M1581.5 1227.1H1127.8C1116.3 1227.1 1106.9 1217.8 1106.9 1206.2V1197.8C1106.9 1186.3 1116.2 1176.9 1127.8 1176.9H1581.5C1593 1176.9 1602.4 1186.2 1602.4 1197.8V1206.2C1602.4 1217.8 1593 1227.1 1581.5 1227.1Z" fill="#1C056D"/>
<path d="M654.3 119C654.9 117.8 656.1 117.1 657.4 117.1C713.4 116.7 1998.6 108.2 2055.6 117.1C2078 120.6 2072.5 975.2 2055.6 1007.8C2043.2 1031.8 671.5 1010.7 655.6 1007.8C635.8 1004.2 626.1 175.1 654.3 119Z" fill="#6880E4"/>
<path d="M688.1 158.3C688.1 158.3 683.7 888 701.3 889.9C718.9 891.9 2000.8 899.9 2011.8 889.9C2022.8 879.9 2027.2 152.3 2011.8 152.3C1996.4 152.3 688.1 158.3 688.1 158.3Z" fill="#D4DFFF"/>
<mask id="mask1_146_213" style="mask-type:luminance" maskUnits="userSpaceOnUse" x="687" y="152" width="1335" height="743">
<path d="M688.1 158.3C688.1 158.3 683.7 888 701.3 889.9C718.9 891.9 2000.8 899.9 2011.8 889.9C2022.8 879.9 2027.2 152.3 2011.8 152.3C1996.4 152.3 688.1 158.3 688.1 158.3Z" fill="white"/>
</mask>
<g mask="url(#mask1_146_213)">
<path opacity="0.46" d="M1530 135.7L1031.8 909.2H663.6L688.1 158.3L1530 135.7Z" fill="#6880E4"/>
</g>
<mask id="mask2_146_213" style="mask-type:luminance" maskUnits="userSpaceOnUse" x="687" y="152" width="1335" height="743">
<path d="M688.1 158.3C688.1 158.3 683.7 888 701.3 889.9C718.9 891.9 2000.8 899.9 2011.8 889.9C2022.8 879.9 2027.2 152.3 2011.8 152.3C1996.4 152.3 688.1 158.3 688.1 158.3Z" fill="white"/>
</mask>
<g mask="url(#mask2_146_213)">
<path opacity="0.46" d="M1145.6 915.5L1624.4 131.6H1834.5L1373.2 911.4L1145.6 915.5Z" fill="#6880E4"/>
</g>
<mask id="mask3_146_213" style="mask-type:luminance" maskUnits="userSpaceOnUse" x="687" y="152" width="1335" height="743">
<path d="M688.1 158.3C688.1 158.3 683.7 888 701.3 889.9C718.9 891.9 2000.8 899.9 2011.8 889.9C2022.8 879.9 2027.2 152.3 2011.8 152.3C1996.4 152.3 688.1 158.3 688.1 158.3Z" fill="white"/>
</mask>
<g mask="url(#mask3_146_213)">
<path opacity="0.46" d="M1923.4 134.5L1459.8 916.2L1747 912.6L2055.4 344.9L2049.2 139.4L1923.4 134.5Z" fill="#6880E4"/>
</g>
<path d="M1364.23 994.456C1381.43 987.333 1389.6 967.619 1382.47 950.423C1375.35 933.228 1355.64 925.062 1338.44 932.185C1321.24 939.308 1313.08 959.022 1320.2 976.217C1327.32 993.413 1347.04 1001.58 1364.23 994.456Z" fill="#1B3D9E"/>
<path d="M1033.3 473.5C1035 465.8 1038.2 459.9 1043 455.9C1047.8 451.9 1053.1 449.8 1058.9 449.7C1064.7 449.6 1070.2 451.3 1075.4 454.9C1080.6 458.5 1084.4 464 1086.6 471.4C1086.9 489.3 1087 507 1087 524.5C1087 542 1087.3 559.6 1087.8 577.2C1099.9 577.2 1111.7 577.1 1123.2 576.8C1134.6 576.5 1145.6 576.4 1156.1 576.4C1163.5 578.6 1169.1 582.1 1172.6 586.9C1176.2 591.7 1177.9 596.8 1177.8 602C1177.7 607.2 1175.6 612.1 1171.6 616.5C1167.6 620.9 1161.7 623.9 1154 625.6C1143.2 625.6 1132.5 625.7 1121.7 625.8C1110.9 625.9 1100.2 625.9 1089.4 625.6C1089.9 639.4 1090.3 654.3 1090.4 670.5C1090.5 686.6 1090.7 701.6 1091 715.4C1090.4 724.5 1087.5 731.3 1082.1 735.7C1076.7 740.1 1070.7 742.3 1064.1 742.3C1057.5 742.3 1051.2 740 1045.3 735.5C1039.4 731 1035.9 724.3 1034.8 715.4C1034.5 701.3 1034.7 686.5 1035.4 670.9C1036.1 655.3 1036.2 640.5 1035.6 626.4C1023.7 626.1 1011 625.5 997.3 624.5C983.7 623.5 970.4 621.5 957.6 618.5C944.8 615.5 933 611.2 922.2 605.7C911.4 600.2 902.8 592.9 896.1 583.8C890 575.3 886.6 566 885.8 556.1C885 546.2 885.9 536 888.7 525.5C891.5 515 895.6 504.4 901.1 493.7C906.6 482.9 912.6 472.6 919.1 462.7C925.6 452.8 932.1 443.5 938.5 434.8C945 426.1 950.7 418.5 955.7 411.8C966.7 396.9 978 382.4 989.6 368.4C1001.2 354.3 1012.8 340.1 1024.3 325.8C1030.4 320.8 1036.6 318.3 1043.1 318.1C1049.6 318 1055.2 319.5 1059.8 322.9C1064.5 326.2 1067.7 330.9 1069.5 337C1071.3 343.1 1070.8 349.8 1068.1 357.3C1058.7 368.9 1047.7 382 1035 396.8C1022.3 411.6 1009.8 427 997.6 443.1C985.3 459.2 974.2 475.6 964.1 492.3C954 509 946.9 525.2 942.8 540.9C941.1 546.4 941.8 551.2 944.7 555.2C947.6 559.2 951.9 562.5 957.5 565.1C963.1 567.7 969.7 569.9 977.1 571.5C984.5 573.2 991.9 574.4 999.2 575.2C1006.5 576 1013.3 576.6 1019.5 577.1C1025.7 577.6 1030.5 577.9 1033.8 578.1C1033.2 560.7 1033 543.3 1033 525.8C1033.3 508.3 1033.3 490.9 1033.3 473.5Z" fill="white"/>
<path d="M1233.9 664.2C1230.3 652.3 1226.7 637.5 1223.1 619.7C1219.5 601.9 1216.8 582.7 1215 562C1213.2 541.3 1212.6 520.1 1213.1 498.3C1213.6 476.5 1216.1 455.7 1220.3 435.9C1224.6 416.1 1231.1 398 1239.9 381.7C1248.7 365.4 1260.4 352.6 1275.1 343.2C1293.3 331.6 1312 323.4 1331.3 318.4C1350.6 313.4 1369.5 311.5 1388 312.6C1406.5 313.7 1424 317.6 1440.7 324.4C1457.4 331.2 1472 340.3 1484.5 351.9C1497 363.5 1507.1 377.4 1514.7 393.7C1522.3 410 1526.3 428.2 1526.9 448.3C1527.2 467.3 1527.9 487.7 1529 509.3C1530.1 530.9 1530.2 552.7 1529.2 574.4C1528.2 596.2 1525.4 617.2 1520.7 637.5C1516 657.8 1508.3 676 1497.5 692.3C1488.4 706.1 1476.2 717.3 1460.9 725.8C1445.6 734.3 1429.1 740.3 1411.3 743.8C1393.5 747.2 1375.3 748.1 1356.5 746.5C1337.7 744.8 1320.2 740.6 1303.8 733.9C1287.4 727.1 1272.9 718 1260.4 706.4C1248 694.8 1239.1 680.7 1233.9 664.2ZM1302.9 390.8C1295.7 396.3 1289.3 404.4 1283.7 415C1278 425.6 1274.8 436.9 1274 448.7C1272.9 465.2 1271.8 482 1270.7 498.9C1269.6 515.9 1269.2 532.6 1269.5 549.1C1269.8 565.6 1271.2 581.9 1273.6 597.9C1276.1 613.9 1280.6 629.2 1287.2 643.8C1291.3 653.5 1297.5 661.6 1305.6 668.2C1313.7 674.8 1322.8 679.9 1332.9 683.5C1343 687.1 1353.6 689.1 1364.9 689.5C1376.2 689.9 1387.2 688.8 1398 686.2C1408.8 683.6 1418.9 679.4 1428.4 673.6C1437.9 667.8 1446 660.4 1452.6 651.3C1457.3 645.5 1461.1 637.4 1464 627.1C1466.9 616.8 1469 605.3 1470.4 592.6C1471.8 579.9 1472.6 566.8 1472.9 553.3C1473.2 539.8 1473.2 527 1472.9 514.8C1472.6 502.7 1472.3 491.8 1472.1 482.3C1471.8 472.8 1471.7 465.8 1471.7 461.4C1472 448.2 1469.8 435.8 1465.3 424.4C1460.8 413 1454.5 403 1446.5 394.4C1438.5 385.9 1429.1 379 1418.2 373.7C1407.3 368.5 1395.6 365.4 1383.1 364.6C1370.6 363.8 1357.5 365.4 1343.8 369.6C1330.1 373.8 1316.5 380.9 1302.9 390.8Z" fill="white"/>
<path d="M1722.3 473.5C1724 465.8 1727.2 459.9 1732 455.9C1736.8 451.9 1742.1 449.8 1747.9 449.7C1753.7 449.6 1759.2 451.3 1764.4 454.9C1769.6 458.5 1773.4 464 1775.6 471.4C1775.9 489.3 1776 507 1776 524.5C1776 542 1776.3 559.6 1776.8 577.2C1788.9 577.2 1800.7 577.1 1812.2 576.8C1823.6 576.5 1834.6 576.4 1845.1 576.4C1852.5 578.6 1858.1 582.1 1861.6 586.9C1865.2 591.7 1866.9 596.8 1866.8 602C1866.7 607.2 1864.6 612.1 1860.6 616.5C1856.6 620.9 1850.7 623.9 1843 625.6C1832.2 625.6 1821.5 625.7 1810.7 625.8C1799.9 625.9 1789.2 625.9 1778.4 625.6C1778.9 639.4 1779.3 654.3 1779.4 670.5C1779.5 686.6 1779.7 701.6 1780 715.4C1779.4 724.5 1776.5 731.3 1771.1 735.7C1765.7 740.1 1759.7 742.3 1753.1 742.3C1746.5 742.3 1740.2 740 1734.3 735.5C1728.4 731 1724.9 724.3 1723.8 715.4C1723.5 701.3 1723.7 686.5 1724.4 670.9C1725.1 655.3 1725.2 640.5 1724.6 626.4C1712.7 626.1 1700 625.5 1686.3 624.5C1672.7 623.5 1659.4 621.5 1646.6 618.5C1633.8 615.5 1622 611.2 1611.2 605.7C1600.4 600.2 1591.8 592.9 1585.1 583.8C1579 575.3 1575.6 566 1574.8 556.1C1574 546.2 1574.9 536 1577.7 525.5C1580.5 515 1584.6 504.4 1590.1 493.7C1595.6 482.9 1601.6 472.6 1608.1 462.7C1614.6 452.8 1621.1 443.5 1627.5 434.8C1634 426.1 1639.7 418.5 1644.7 411.8C1655.7 396.9 1667 382.4 1678.6 368.4C1690.2 354.3 1701.8 340.1 1713.3 325.8C1719.4 320.8 1725.6 318.3 1732.1 318.1C1738.6 318 1744.2 319.5 1748.8 322.9C1753.5 326.2 1756.7 330.9 1758.5 337C1760.3 343.1 1759.8 349.8 1757.1 357.3C1747.7 368.9 1736.7 382 1724 396.8C1711.3 411.6 1698.8 427 1686.6 443.1C1674.3 459.2 1663.2 475.6 1653.1 492.3C1643 509 1635.9 525.2 1631.8 540.9C1630.1 546.4 1630.8 551.2 1633.7 555.2C1636.6 559.2 1640.9 562.5 1646.5 565.1C1652.1 567.7 1658.7 569.9 1666.1 571.5C1673.5 573.2 1680.9 574.4 1688.2 575.2C1695.5 576 1702.3 576.6 1708.5 577.1C1714.7 577.5 1719.5 577.9 1722.8 578.1C1722.2 560.7 1722 543.3 1722 525.8C1722.3 508.3 1722.3 490.9 1722.3 473.5Z" fill="white"/>
<path opacity="0.54" d="M952.7 1013.5L820.1 640.7L853.8 646.1C855.7 646.4 857.3 647.7 857.9 649.5L990.6 1013.8C990.6 1013.9 990.6 1014 990.5 1014L952.7 1013.5Z" fill="#1B3D9E"/>
<path d="M526.4 1029.3C532 1028.3 807.1 637.9 820.1 640.7C833.1 643.6 984.2 1102.4 978.6 1101.5C973 1100.6 512.5 1031.8 526.4 1029.3Z" fill="#FC476A"/>
<path d="M777.3 966.1C775.2 968 773 969.3 770.8 969.8C768.6 970.4 766.5 970.3 764.5 969.7C762.5 969.1 760.7 968 759 966.3C757.4 964.6 756.1 962.5 755.3 959.8C756.6 943.4 757.7 926.7 758.4 909.8C759.1 892.9 760 876 761.1 859.3C762.2 842.6 763.8 826.1 765.9 809.9C768 793.7 771.1 778.1 775.1 763.1C775.4 761.9 776.6 760.8 778.5 759.8C780.4 758.8 782.7 758.1 785.5 757.7C788.2 757.3 791.2 757.1 794.5 757.2C797.7 757.3 800.8 757.7 803.8 758.4C806.8 759.1 809.4 760.1 811.8 761.5C814.1 762.9 815.8 764.6 816.9 766.7C818.6 769.1 819.7 773.2 820 779C820.3 784.8 820.2 791.9 819.6 800.1C819 808.3 817.9 817.4 816.3 827.5C814.7 837.5 812.8 847.8 810.7 858.4C808.5 869 806.1 879.6 803.5 890.2C800.9 900.8 798.1 910.9 795.2 920.4C792.3 929.9 789.4 938.5 786.4 946.3C783.5 954.1 780.6 960.4 777.9 965.1C777.9 965.3 777.7 965.6 777.3 966.1ZM748.8 1028.4C745.8 1026.1 743.4 1023.4 741.5 1020.4C739.7 1017.4 738.6 1014.3 738.3 1011.1C738 1008 738.7 1004.9 740.3 1001.9C741.9 998.9 744.6 996.3 748.3 994.1C753.4 991 758.6 989.8 763.8 990.5C769 991.2 772.9 994.4 775.7 999.9C778.3 1004.7 779.6 1009.8 779.5 1015.4C779.4 1020.9 777 1025.7 772.3 1029.8C768.8 1032.9 764.9 1034.2 760.6 1033.6C756.2 1033.1 752.3 1031.3 748.8 1028.4Z" fill="white"/>
<path d="M2300.8 1225.6H1967.9C1961.2 1225.6 1955.8 1220.2 1955.8 1213.5V824.7C1955.8 818 1961.2 812.6 1967.9 812.6H2300.8C2307.5 812.6 2312.9 818 2312.9 824.7V1213.5C2312.8 1220.2 2307.4 1225.6 2300.8 1225.6Z" fill="#1B3D9E"/>
<mask id="mask4_146_213" style="mask-type:luminance" maskUnits="userSpaceOnUse" x="1955" y="812" width="358" height="414">
<path d="M2300.8 1225.6H1967.9C1961.2 1225.6 1955.8 1220.2 1955.8 1213.5V824.7C1955.8 818 1961.2 812.6 1967.9 812.6H2300.8C2307.5 812.6 2312.9 818 2312.9 824.7V1213.5C2312.8 1220.2 2307.4 1225.6 2300.8 1225.6Z" fill="white"/>
</mask>
<g mask="url(#mask4_146_213)">
<path d="M2322.9 871.1C2322.9 871.1 2183.1 1068 1930 1122.5V1243H2331.7C2331.7 1243 2342.2 878.2 2322.9 871.1Z" fill="#1C056D"/>
</g>
<path d="M2050.2 812.6C2050.2 812.6 2045.5 472.6 2051.8 468.7C2058.1 464.8 2106.3 460.8 2110.2 470.3C2114.1 479.8 2110.2 812.6 2110.2 812.6H2050.2Z" fill="#FC476A"/>
<mask id="mask5_146_213" style="mask-type:luminance" maskUnits="userSpaceOnUse" x="2048" y="464" width="64" height="349">
<path d="M2050.2 812.6C2050.2 812.6 2045.5 472.6 2051.8 468.7C2058.1 464.8 2106.3 460.8 2110.2 470.3C2114.1 479.8 2110.2 812.6 2110.2 812.6H2050.2Z" fill="white"/>
</mask>
<g mask="url(#mask5_146_213)">
<path d="M2091.5 517.2V819.3H2068.9V517.8L2091.5 517.2Z" fill="#D40221"/>
</g>
<mask id="mask6_146_213" style="mask-type:luminance" maskUnits="userSpaceOnUse" x="2048" y="464" width="64" height="349">
<path d="M2050.2 812.6C2050.2 812.6 2045.5 472.6 2051.8 468.7C2058.1 464.8 2106.3 460.8 2110.2 470.3C2114.1 479.8 2110.2 812.6 2110.2 812.6H2050.2Z" fill="white"/>
</mask>
<g mask="url(#mask6_146_213)">
<path d="M2039.1 530.3C2039.1 530.3 2109.2 525 2119 529.9C2119 529.9 2118.5 460 2114.6 458.6C2110.7 457.1 2043.8 456.8 2042.3 464.5C2040.8 472.2 2039.1 530.3 2039.1 530.3Z" fill="#D4DFFF"/>
</g>
<path d="M2285 812.6H2145.5V322C2145.5 319.9 2147.2 318.3 2149.2 318.3H2281.2C2283.3 318.3 2284.9 320 2284.9 322V812.6H2285Z" fill="#D4DFFF"/>
<mask id="mask7_146_213" style="mask-type:luminance" maskUnits="userSpaceOnUse" x="2145" y="318" width="140" height="495">
<path d="M2285 812.6H2145.5V322C2145.5 319.9 2147.2 318.3 2149.2 318.3H2281.2C2283.3 318.3 2284.9 320 2284.9 322V812.6H2285Z" fill="white"/>
</mask>
<g mask="url(#mask7_146_213)">
<path opacity="0.46" d="M2182.1 300.2H2134.3V830.7H2182.1V300.2Z" fill="#6880E4"/>
</g>
<mask id="mask8_146_213" style="mask-type:luminance" maskUnits="userSpaceOnUse" x="2145" y="318" width="140" height="495">
<path d="M2285 812.6H2145.5V322C2145.5 319.9 2147.2 318.3 2149.2 318.3H2281.2C2283.3 318.3 2284.9 320 2284.9 322V812.6H2285Z" fill="white"/>
</mask>
<g mask="url(#mask8_146_213)">
<path d="M2163.1 356.2H2145.5V362.3H2163.1V356.2Z" fill="#6880E4"/>
</g>
<mask id="mask9_146_213" style="mask-type:luminance" maskUnits="userSpaceOnUse" x="2145" y="318" width="140" height="495">
<path d="M2285 812.6H2145.5V322C2145.5 319.9 2147.2 318.3 2149.2 318.3H2281.2C2283.3 318.3 2284.9 320 2284.9 322V812.6H2285Z" fill="white"/>
</mask>
<g mask="url(#mask9_146_213)">
<path d="M2163.1 384.3H2145.5V390.4H2163.1V384.3Z" fill="#6880E4"/>
</g>
<mask id="mask10_146_213" style="mask-type:luminance" maskUnits="userSpaceOnUse" x="2145" y="318" width="140" height="495">
<path d="M2285 812.6H2145.5V322C2145.5 319.9 2147.2 318.3 2149.2 318.3H2281.2C2283.3 318.3 2284.9 320 2284.9 322V812.6H2285Z" fill="white"/>
</mask>
<g mask="url(#mask10_146_213)">
<path d="M2163.1 412.5H2145.5V418.6H2163.1V412.5Z" fill="#6880E4"/>
</g>
<mask id="mask11_146_213" style="mask-type:luminance" maskUnits="userSpaceOnUse" x="2145" y="318" width="140" height="495">
<path d="M2285 812.6H2145.5V322C2145.5 319.9 2147.2 318.3 2149.2 318.3H2281.2C2283.3 318.3 2284.9 320 2284.9 322V812.6H2285Z" fill="white"/>
</mask>
<g mask="url(#mask11_146_213)">
<path d="M2163.1 440.7H2145.5V446.8H2163.1V440.7Z" fill="#6880E4"/>
</g>
<mask id="mask12_146_213" style="mask-type:luminance" maskUnits="userSpaceOnUse" x="2145" y="318" width="140" height="495">
<path d="M2285 812.6H2145.5V322C2145.5 319.9 2147.2 318.3 2149.2 318.3H2281.2C2283.3 318.3 2284.9 320 2284.9 322V812.6H2285Z" fill="white"/>
</mask>
<g mask="url(#mask12_146_213)">
<path d="M2163.1 468.9H2145.5V475H2163.1V468.9Z" fill="#6880E4"/>
</g>
<mask id="mask13_146_213" style="mask-type:luminance" maskUnits="userSpaceOnUse" x="2145" y="318" width="140" height="495">
<path d="M2285 812.6H2145.5V322C2145.5 319.9 2147.2 318.3 2149.2 318.3H2281.2C2283.3 318.3 2284.9 320 2284.9 322V812.6H2285Z" fill="white"/>
</mask>
<g mask="url(#mask13_146_213)">
<path d="M2163.1 497.1H2145.5V503.2H2163.1V497.1Z" fill="#6880E4"/>
</g>
<mask id="mask14_146_213" style="mask-type:luminance" maskUnits="userSpaceOnUse" x="2145" y="318" width="140" height="495">
<path d="M2285 812.6H2145.5V322C2145.5 319.9 2147.2 318.3 2149.2 318.3H2281.2C2283.3 318.3 2284.9 320 2284.9 322V812.6H2285Z" fill="white"/>
</mask>
<g mask="url(#mask14_146_213)">
<path d="M2163.1 525.3H2145.5V531.4H2163.1V525.3Z" fill="#6880E4"/>
</g>
<mask id="mask15_146_213" style="mask-type:luminance" maskUnits="userSpaceOnUse" x="2145" y="318" width="140" height="495">
<path d="M2285 812.6H2145.5V322C2145.5 319.9 2147.2 318.3 2149.2 318.3H2281.2C2283.3 318.3 2284.9 320 2284.9 322V812.6H2285Z" fill="white"/>
</mask>
<g mask="url(#mask15_146_213)">
<path d="M2163.1 553.4H2145.5V559.5H2163.1V553.4Z" fill="#6880E4"/>
</g>
<mask id="mask16_146_213" style="mask-type:luminance" maskUnits="userSpaceOnUse" x="2145" y="318" width="140" height="495">
<path d="M2285 812.6H2145.5V322C2145.5 319.9 2147.2 318.3 2149.2 318.3H2281.2C2283.3 318.3 2284.9 320 2284.9 322V812.6H2285Z" fill="white"/>
</mask>
<g mask="url(#mask16_146_213)">
<path d="M2163.1 581.6H2145.5V587.7H2163.1V581.6Z" fill="#6880E4"/>
</g>
<mask id="mask17_146_213" style="mask-type:luminance" maskUnits="userSpaceOnUse" x="2145" y="318" width="140" height="495">
<path d="M2285 812.6H2145.5V322C2145.5 319.9 2147.2 318.3 2149.2 318.3H2281.2C2283.3 318.3 2284.9 320 2284.9 322V812.6H2285Z" fill="white"/>
</mask>
<g mask="url(#mask17_146_213)">
<path d="M2163.1 609.8H2145.5V615.9H2163.1V609.8Z" fill="#6880E4"/>
</g>
<mask id="mask18_146_213" style="mask-type:luminance" maskUnits="userSpaceOnUse" x="2145" y="318" width="140" height="495">
<path d="M2285 812.6H2145.5V322C2145.5 319.9 2147.2 318.3 2149.2 318.3H2281.2C2283.3 318.3 2284.9 320 2284.9 322V812.6H2285Z" fill="white"/>
</mask>
<g mask="url(#mask18_146_213)">
<path d="M2163.1 638H2145.5V644.1H2163.1V638Z" fill="#6880E4"/>
</g>
<mask id="mask19_146_213" style="mask-type:luminance" maskUnits="userSpaceOnUse" x="2145" y="318" width="140" height="495">
<path d="M2285 812.6H2145.5V322C2145.5 319.9 2147.2 318.3 2149.2 318.3H2281.2C2283.3 318.3 2284.9 320 2284.9 322V812.6H2285Z" fill="white"/>
</mask>
<g mask="url(#mask19_146_213)">
<path d="M2163.1 666.2H2145.5V672.3H2163.1V666.2Z" fill="#6880E4"/>
</g>
<mask id="mask20_146_213" style="mask-type:luminance" maskUnits="userSpaceOnUse" x="2145" y="318" width="140" height="495">
<path d="M2285 812.6H2145.5V322C2145.5 319.9 2147.2 318.3 2149.2 318.3H2281.2C2283.3 318.3 2284.9 320 2284.9 322V812.6H2285Z" fill="white"/>
</mask>
<g mask="url(#mask20_146_213)">
<path d="M2163.1 694.4H2145.5V700.5H2163.1V694.4Z" fill="#6880E4"/>
</g>
<mask id="mask21_146_213" style="mask-type:luminance" maskUnits="userSpaceOnUse" x="2145" y="318" width="140" height="495">
<path d="M2285 812.6H2145.5V322C2145.5 319.9 2147.2 318.3 2149.2 318.3H2281.2C2283.3 318.3 2284.9 320 2284.9 322V812.6H2285Z" fill="white"/>
</mask>
<g mask="url(#mask21_146_213)">
<path d="M2163.1 722.5H2145.5V728.6H2163.1V722.5Z" fill="#6880E4"/>
</g>
<mask id="mask22_146_213" style="mask-type:luminance" maskUnits="userSpaceOnUse" x="2145" y="318" width="140" height="495">
<path d="M2285 812.6H2145.5V322C2145.5 319.9 2147.2 318.3 2149.2 318.3H2281.2C2283.3 318.3 2284.9 320 2284.9 322V812.6H2285Z" fill="white"/>
</mask>
<g mask="url(#mask22_146_213)">
<path d="M2163.1 750.7H2145.5V756.8H2163.1V750.7Z" fill="#6880E4"/>
</g>
<mask id="mask23_146_213" style="mask-type:luminance" maskUnits="userSpaceOnUse" x="2145" y="318" width="140" height="495">
<path d="M2285 812.6H2145.5V322C2145.5 319.9 2147.2 318.3 2149.2 318.3H2281.2C2283.3 318.3 2284.9 320 2284.9 322V812.6H2285Z" fill="white"/>
</mask>
<g mask="url(#mask23_146_213)">
<path d="M2163.1 778.9H2145.5V785H2163.1V778.9Z" fill="#6880E4"/>
</g>
<mask id="mask24_146_213" style="mask-type:luminance" maskUnits="userSpaceOnUse" x="2145" y="318" width="140" height="495">
<path d="M2285 812.6H2145.5V322C2145.5 319.9 2147.2 318.3 2149.2 318.3H2281.2C2283.3 318.3 2284.9 320 2284.9 322V812.6H2285Z" fill="white"/>
</mask>
<g mask="url(#mask24_146_213)">
<path opacity="0.17" d="M2254.8 299.6C2216.1 332.8 2202.5 392.1 2222.9 438.8C2232.6 461 2249.2 480.8 2252.4 504.9C2255.4 528.2 2245.2 550.9 2237 573C2229 594.8 2222.8 617.8 2224.5 640.9C2227.2 678.7 2250.4 714.1 2246.6 751.8C2243 788 2214.8 819.6 2216.4 856C2216.9 856 2215.9 857.6 2216.4 857.6H2307V297.3L2318.1 297.4L2254.8 299.6Z" fill="#6880E4"/>
</g>
<path d="M2556 1231.4H266.5C264.2 1231.4 262.2 1229.5 262.2 1227.1C262.2 1224.7 264.1 1222.8 266.5 1222.8H2556C2558.3 1222.8 2560.3 1224.7 2560.3 1227.1C2560.3 1229.5 2558.3 1231.4 2556 1231.4Z" fill="#1C056D"/>
<path d="M964.6 59.8999L911.6 66.7999C882.4 53.0999 854.2 44.2999 827.9 46.9999C801.4 49.7999 786.3 77.4999 792.8 96.0999C798.5 112.5 846.1 129.3 866.7 129.7C887.2 130.1 918.4 125.4 929.9 115.2H964.7V59.8999H964.6Z" fill="#FE8E9C"/>
<mask id="mask25_146_213" style="mask-type:luminance" maskUnits="userSpaceOnUse" x="791" y="46" width="174" height="84">
<path d="M964.6 59.8999L911.6 66.7999C882.4 53.0999 854.2 44.2999 827.9 46.9999C801.4 49.7999 786.3 77.4999 792.8 96.0999C798.5 112.5 846.1 129.3 866.7 129.7C887.2 130.1 918.4 125.4 929.9 115.2H964.7V59.8999H964.6Z" fill="white"/>
</mask>
<g mask="url(#mask25_146_213)">
<path d="M848.2 132.3C848.2 132.3 858.4 112.4 857.9 97.1C857.4 81.8 836.4 58 836.4 58L819 58.9C819 58.9 824.7 114.7 819.6 124.6L848.2 132.3Z" fill="#E57492"/>
</g>
<path d="M929.8 115.3C929.8 115.3 940.3 99.1999 915.9 82.8999C915.9 82.8999 937.7 86.3999 945.1 100.9C952.6 115.4 951 115.6 951 115.6L929.8 115.3Z" fill="#E57492"/>
<path d="M911.6 66.8C911.6 66.8 894.6 68.3 891.3 68.4C879.4 68.7 867.5 69.3 867.5 69.3C867.5 69.3 860.1 45.3001 849.2 50.2001C833.2 57.4001 851.5 68.7001 851.5 68.7001C851.5 68.7001 823.1 64 820.3 63.8C817.5 63.6 841.6 114.4 815.9 129.8C790.2 145.2 761.6 137.1 758.1 97.1001C754.6 57.1001 795.5 18.8 833.2 20.1C870.8 21.4 911.6 66.8 911.6 66.8Z" fill="#1B3D9E"/>
<mask id="mask26_146_213" style="mask-type:luminance" maskUnits="userSpaceOnUse" x="757" y="20" width="155" height="118">
<path d="M911.6 66.8C911.6 66.8 894.6 68.3 891.3 68.4C879.4 68.7 867.5 69.3 867.5 69.3C867.5 69.3 860.1 45.3001 849.2 50.2001C833.2 57.4001 851.5 68.7001 851.5 68.7001C851.5 68.7001 823.1 64 820.3 63.8C817.5 63.6 841.6 114.4 815.9 129.8C790.2 145.2 761.6 137.1 758.1 97.1001C754.6 57.1001 795.5 18.8 833.2 20.1C870.8 21.4 911.6 66.8 911.6 66.8Z" fill="white"/>
</mask>
<g mask="url(#mask26_146_213)">
<path d="M794.1 137.1C794.1 137.1 813.6 120.7 812.7 102.6C811.7 84.5001 805.9 56.2 808.8 54.3C811.7 52.4 841.8 64.4001 841.8 64.4001C841.8 64.4001 836.3 56.3001 845.9 52.1001C845.9 52.1001 861.2 68.8001 860.1 70.6001C859 72.4001 823.9 68.8 823.9 68.8C823.9 68.8 837.7 102.7 827.8 122.7C817.8 142.8 794.1 137.1 794.1 137.1Z" fill="#1C056D"/>
</g>
<path d="M910.5 115.6C910.5 115.6 902.4 113.3 902.4 99.2C902.4 85.1 902.4 97.8 902.4 97.8C902.4 97.8 910.6 112.8 910.5 115.6Z" fill="#F6F9FF"/>
<path d="M844.7 98.4999C844.7 98.4999 877 116 880 114.2C883 112.4 877.6 92.6999 877.6 92.6999C877.6 92.6999 881.1 92.4999 881.9 95.5999C882.7 98.6999 887.3 117.3 881.9 117.6C876.5 117.9 849.9 104.8 844.7 98.4999Z" fill="#E57492"/>
<path d="M1031.3 431.8C1031.3 431.8 1023.4 442.4 1020.8 447.7C1018.2 453 1017.3 479.3 1017.9 479.2C1018.4 479.1 1024.3 478.8 1025.5 475.3L1032 453.1C1032 453.1 1032.4 476.9 1031.7 478.6C1030.9 480.3 1017.2 507.6 1018.4 508.5C1019.6 509.4 1024.8 512.5 1028.9 505.7C1033 498.9 1042.5 481.2 1043.7 478.4C1044.9 475.6 1024.9 515.6 1025.7 515.9C1026.5 516.2 1031.6 518.9 1033.6 516.3C1035.6 513.7 1053.5 485.3 1054.1 483C1054.7 480.7 1043 510.2 1043.6 510.2C1044.2 510.2 1046.5 513.2 1049.7 509.2C1052.9 505.2 1063.6 483.5 1064.1 482.4C1064.6 481.3 1064.5 467.5 1064.5 467.5C1064.5 467.5 1067.2 483.7 1066.5 485.8C1065.8 487.9 1061 500.2 1063.2 500.6C1064.9 500.9 1067.9 497.6 1070.3 493.3C1072.7 489 1075.7 482.4 1075.4 476.3C1075.2 470.1 1063.8 435.5 1063.8 435.5L1031.3 431.8Z" fill="#FE8E9C"/>
<mask id="mask27_146_213" style="mask-type:luminance" maskUnits="userSpaceOnUse" x="1017" y="431" width="59" height="87">
<path d="M1031.3 431.8C1031.3 431.8 1023.4 442.4 1020.8 447.7C1018.2 453 1017.3 479.3 1017.9 479.2C1018.4 479.1 1024.3 478.8 1025.5 475.3L1032 453.1C1032 453.1 1032.4 476.9 1031.7 478.6C1030.9 480.3 1017.2 507.6 1018.4 508.5C1019.6 509.4 1024.8 512.5 1028.9 505.7C1033 498.9 1042.5 481.2 1043.7 478.4C1044.9 475.6 1024.9 515.6 1025.7 515.9C1026.5 516.2 1031.6 518.9 1033.6 516.3C1035.6 513.7 1053.5 485.3 1054.1 483C1054.7 480.7 1043 510.2 1043.6 510.2C1044.2 510.2 1046.5 513.2 1049.7 509.2C1052.9 505.2 1063.6 483.5 1064.1 482.4C1064.6 481.3 1064.5 467.5 1064.5 467.5C1064.5 467.5 1067.2 483.7 1066.5 485.8C1065.8 487.9 1061 500.2 1063.2 500.6C1064.9 500.9 1067.9 497.6 1070.3 493.3C1072.7 489 1075.7 482.4 1075.4 476.3C1075.2 470.1 1063.8 435.5 1063.8 435.5L1031.3 431.8Z" fill="white"/>
</mask>
<g mask="url(#mask27_146_213)">
<path d="M1014.8 457C1015.3 458.8 1039.6 445.3 1072.6 450.5C1072.6 450.5 1068.2 430.4 1064.6 428.6C1061 426.8 1032.6 426.8 1028.3 428.8C1023.9 430.9 1012.5 448.7 1014.8 457Z" fill="#E57492"/>
</g>
<path d="M1327.8 36.9999C1327.8 34.8999 1326.3 33.1 1324.2 32.7L1152.3 1.79993C1008.1 -10.5001 964.6 53.2999 964.6 53.2999V115.3L981.5 115.2C994 151.7 1029.5 256.2 1033.1 275.2C1037.5 298.3 1009.1 437.3 1012.1 439.1C1015 440.9 1078.7 448.8 1084.6 447.8C1090.5 446.8 1119.9 293.8 1117.9 275.3C1116.4 261.1 1112 163.7 1101.2 114.8L1327.8 113.9V36.9999Z" fill="#FC476A"/>
<path d="M1101.1 114.7C1101.1 114.7 1096.8 92 1077.7 76.2C1077.7 76.2 1179.6 96.5999 1209.2 98.5999C1238.8 100.6 1327.7 92.7 1327.7 92.7V113.8L1101.1 114.7Z" fill="#D40221"/>
<path d="M1838.9 175.9C1838.9 175.9 1874.7 167.4 1875.6 169C1876.5 170.6 1881.6 187.1 1879.6 193C1877.7 199 1842.4 211.8 1842.4 211.8L1838.9 175.9Z" fill="#E57492"/>
<path d="M1866.8 66.9C1866.8 66.9 1527.4 39.1 1457 24.3C1386.5 9.49999 1327.8 41.7 1327.8 41.7V113.8C1327.8 113.8 1510.2 269.2 1591.9 271.2C1673.7 273.2 1844.7 227.6 1846.1 220.1C1847.5 212.6 1846.1 168.3 1839.3 165.6C1832.5 162.9 1606.2 188.8 1602.1 184C1599.4 180.9 1561.1 142.4 1527.5 113.8H1866.7V66.9H1866.8Z" fill="#1B3D9E"/>
<mask id="mask28_146_213" style="mask-type:luminance" maskUnits="userSpaceOnUse" x="1327" y="20" width="540" height="252">
<path d="M1866.8 66.9C1866.8 66.9 1527.4 39.1 1457 24.3C1386.5 9.49999 1327.8 41.7 1327.8 41.7V113.8C1327.8 113.8 1510.2 269.2 1591.9 271.2C1673.7 273.2 1844.7 227.6 1846.1 220.1C1847.5 212.6 1846.1 168.3 1839.3 165.6C1832.5 162.9 1606.2 188.8 1602.1 184C1599.4 180.9 1561.1 142.4 1527.5 113.8H1866.7V66.9H1866.8Z" fill="white"/>
</mask>
<g mask="url(#mask28_146_213)">
<path d="M1608.6 230.3C1607.4 230.3 1606.4 230.3 1605.7 230.2C1605.5 230.2 1605.3 230.2 1605.1 230.1C1604.2 229.9 1603.7 229.1 1603.8 228.3C1604 227.4 1604.8 226.8 1605.6 227C1605.7 227 1605.9 227 1606 227.1C1607 227.2 1608.6 227.2 1610.6 227.2C1611.5 227.2 1612.2 227.9 1612.2 228.7C1612.2 229.6 1611.5 230.3 1610.7 230.3C1609.9 230.2 1609.2 230.3 1608.6 230.3ZM1616 229.9C1615.2 229.9 1614.5 229.3 1614.4 228.4C1614.3 227.5 1615 226.8 1615.9 226.7C1617.5 226.6 1619.3 226.4 1621.2 226.3C1622.1 226.2 1622.9 226.9 1622.9 227.7C1623 228.6 1622.3 229.4 1621.5 229.4C1619.6 229.6 1617.8 229.7 1616.2 229.8C1616.1 229.9 1616 229.9 1616 229.9ZM1626.6 229C1625.8 229 1625.1 228.4 1625 227.6C1624.9 226.7 1625.5 225.9 1626.4 225.9C1628.1 225.7 1629.9 225.5 1631.7 225.3C1632.6 225.2 1633.4 225.8 1633.5 226.7C1633.6 227.6 1633 228.4 1632.1 228.5C1630.3 228.7 1628.5 228.9 1626.8 229.1C1626.7 229 1626.7 229 1626.6 229ZM1600.3 228.4C1600.1 228.4 1599.9 228.4 1599.7 228.3C1598.3 227.7 1596.6 226.9 1594.8 226C1594 225.6 1593.7 224.6 1594.1 223.9C1594.5 223.1 1595.5 222.8 1596.2 223.2C1598 224.1 1599.6 224.8 1600.9 225.4C1601.7 225.7 1602.1 226.7 1601.7 227.5C1601.5 228 1600.9 228.4 1600.3 228.4ZM1637.2 227.9C1636.4 227.9 1635.7 227.3 1635.6 226.5C1635.5 225.6 1636.1 224.8 1637 224.7C1638.7 224.5 1640.5 224.3 1642.3 224.1C1643.2 224 1644 224.6 1644.1 225.5C1644.2 226.4 1643.6 227.2 1642.7 227.3C1640.9 227.5 1639.1 227.7 1637.4 227.9C1637.3 227.8 1637.3 227.9 1637.2 227.9ZM1647.8 226.6C1647 226.6 1646.3 226 1646.2 225.2C1646.1 224.3 1646.7 223.5 1647.6 223.4C1649.3 223.2 1651.1 223 1652.9 222.7C1653.8 222.6 1654.6 223.2 1654.7 224.1C1654.8 225 1654.2 225.8 1653.3 225.9C1651.5 226.1 1649.7 226.4 1648 226.6C1647.9 226.6 1647.9 226.6 1647.8 226.6ZM1658.4 225.2C1657.6 225.2 1656.9 224.6 1656.8 223.8C1656.7 222.9 1657.3 222.1 1658.2 222C1659.9 221.8 1661.7 221.5 1663.5 221.3C1664.4 221.2 1665.2 221.8 1665.3 222.7C1665.4 223.6 1664.8 224.4 1663.9 224.5C1662.1 224.7 1660.4 225 1658.6 225.2C1658.5 225.2 1658.4 225.2 1658.4 225.2ZM1668.9 223.8C1668.1 223.8 1667.4 223.2 1667.3 222.4C1667.2 221.5 1667.8 220.7 1668.7 220.6L1674 219.9C1674.9 219.8 1675.7 220.4 1675.8 221.3C1675.9 222.2 1675.3 223 1674.4 223.1L1669.1 223.8C1669.1 223.8 1669 223.8 1668.9 223.8ZM1590.7 223.7C1590.4 223.7 1590.2 223.6 1589.9 223.5C1588.4 222.7 1586.9 221.8 1585.2 220.9C1584.4 220.5 1584.2 219.5 1584.6 218.7C1585 217.9 1586 217.7 1586.8 218.1C1588.4 219 1590 219.9 1591.4 220.7C1592.2 221.1 1592.5 222.1 1592 222.9C1591.9 223.4 1591.3 223.7 1590.7 223.7ZM1679.5 222.4C1678.7 222.4 1678 221.8 1677.9 221C1677.8 220.1 1678.4 219.3 1679.3 219.2L1684.6 218.5C1685.5 218.4 1686.3 219 1686.4 219.9C1686.5 220.8 1685.9 221.6 1685 221.7L1679.7 222.4C1679.6 222.4 1679.5 222.4 1679.5 222.4ZM1690 220.9C1689.2 220.9 1688.5 220.3 1688.4 219.5C1688.3 218.6 1688.9 217.8 1689.8 217.7L1695.1 217C1696 216.9 1696.8 217.5 1696.9 218.4C1697 219.3 1696.4 220.1 1695.5 220.2L1690.2 220.9C1690.2 220.9 1690.1 220.9 1690 220.9ZM1700.5 219.4C1699.7 219.4 1699 218.8 1698.9 218C1698.8 217.1 1699.4 216.3 1700.3 216.2L1705.6 215.4C1706.5 215.3 1707.3 215.9 1707.4 216.7C1707.5 217.6 1706.9 218.4 1706.1 218.5L1700.8 219.3C1700.7 219.4 1700.6 219.4 1700.5 219.4ZM1581.5 218.4C1581.2 218.4 1580.9 218.3 1580.7 218.2C1579.2 217.3 1577.7 216.4 1576.1 215.5C1575.3 215 1575.1 214.1 1575.6 213.3C1576.1 212.5 1577 212.3 1577.8 212.8C1579.4 213.7 1580.9 214.7 1582.4 215.5C1583.2 215.9 1583.4 216.9 1583 217.7C1582.6 218.1 1582 218.4 1581.5 218.4ZM1711.1 217.9C1710.3 217.9 1709.6 217.3 1709.5 216.5C1709.4 215.6 1710 214.8 1710.8 214.7L1716.1 213.9C1717 213.8 1717.8 214.4 1717.9 215.2C1718 216.1 1717.4 216.9 1716.6 217L1711.3 217.8C1711.2 217.9 1711.2 217.9 1711.1 217.9ZM1721.6 216.4C1720.8 216.4 1720.1 215.8 1720 215C1719.9 214.1 1720.5 213.3 1721.3 213.2L1726.6 212.4C1727.5 212.3 1728.3 212.9 1728.4 213.7C1728.5 214.6 1727.9 215.4 1727.1 215.5L1721.8 216.3C1721.8 216.4 1721.7 216.4 1721.6 216.4ZM1732.2 214.8C1731.4 214.8 1730.7 214.2 1730.6 213.4C1730.5 212.5 1731.1 211.7 1731.9 211.6L1737.2 210.8C1738.1 210.7 1738.9 211.3 1739 212.1C1739.1 213 1738.5 213.8 1737.7 213.9L1732.4 214.7C1732.3 214.8 1732.2 214.8 1732.2 214.8ZM1742.7 213.2C1741.9 213.2 1741.2 212.6 1741.1 211.8C1741 210.9 1741.6 210.1 1742.4 210L1747.7 209.2C1748.6 209.1 1749.4 209.7 1749.5 210.5C1749.6 211.4 1749 212.2 1748.2 212.3L1742.9 213.1C1742.8 213.2 1742.8 213.2 1742.7 213.2ZM1572.4 212.9C1572.1 212.9 1571.8 212.8 1571.6 212.7C1570.1 211.8 1568.6 210.9 1567.1 209.9C1566.4 209.4 1566.1 208.4 1566.6 207.7C1567.1 207 1568 206.7 1568.8 207.2C1570.3 208.2 1571.8 209.1 1573.3 210C1574.1 210.5 1574.3 211.4 1573.8 212.2C1573.4 212.6 1572.9 212.9 1572.4 212.9ZM1753.2 211.6C1752.4 211.6 1751.7 211 1751.6 210.2C1751.5 209.3 1752.1 208.5 1752.9 208.4L1758.2 207.6C1759.1 207.5 1759.9 208.1 1760 208.9C1760.1 209.8 1759.5 210.6 1758.7 210.7L1753.4 211.5C1753.4 211.6 1753.3 211.6 1753.2 211.6ZM1763.7 210C1762.9 210 1762.2 209.4 1762.1 208.6C1762 207.7 1762.6 206.9 1763.4 206.8L1768.7 206C1769.6 205.9 1770.4 206.5 1770.5 207.3C1770.6 208.2 1770 209 1769.2 209.1L1763.9 209.9C1763.9 210 1763.8 210 1763.7 210ZM1774.2 208.4C1773.4 208.4 1772.7 207.8 1772.6 207C1772.5 206.1 1773.1 205.3 1773.9 205.2L1779.2 204.4C1780.1 204.3 1780.9 204.9 1781 205.7C1781.1 206.6 1780.5 207.4 1779.7 207.5L1774.4 208.3C1774.4 208.4 1774.3 208.4 1774.2 208.4ZM1563.3 207.3C1563 207.3 1562.7 207.2 1562.4 207.1C1560.9 206.2 1559.4 205.2 1557.9 204.2C1557.2 203.7 1556.9 202.7 1557.4 202C1557.9 201.3 1558.9 201 1559.6 201.5C1561.1 202.5 1562.6 203.4 1564.1 204.4C1564.8 204.9 1565.1 205.9 1564.6 206.6C1564.4 207 1563.8 207.3 1563.3 207.3ZM1784.8 206.8C1784 206.8 1783.3 206.2 1783.2 205.4C1783.1 204.5 1783.7 203.7 1784.5 203.6L1789.8 202.8C1790.7 202.7 1791.5 203.3 1791.6 204.1C1791.7 205 1791.1 205.8 1790.3 205.9L1785 206.7C1784.9 206.8 1784.8 206.8 1784.8 206.8ZM1795.3 205.2C1794.5 205.2 1793.8 204.6 1793.7 203.9C1793.6 203 1794.2 202.2 1795 202.1L1800.3 201.3C1801.2 201.2 1802 201.8 1802.1 202.6C1802.2 203.5 1801.6 204.3 1800.8 204.4L1795.5 205.2C1795.4 205.2 1795.4 205.2 1795.3 205.2ZM1805.8 203.5C1805 203.5 1804.4 202.9 1804.2 202.2C1804.1 201.3 1804.7 200.5 1805.5 200.4L1810.8 199.6C1811.7 199.5 1812.5 200.1 1812.6 200.9C1812.7 201.8 1812.1 202.6 1811.3 202.7L1806 203.5C1806 203.5 1805.9 203.5 1805.8 203.5ZM1816.3 201.9C1815.5 201.9 1814.9 201.3 1814.7 200.6C1814.6 199.7 1815.2 198.9 1816 198.8L1821.3 198C1822.2 197.9 1823 198.5 1823.1 199.3C1823.2 200.2 1822.6 201 1821.8 201.1L1816.5 201.9C1816.5 201.9 1816.4 201.9 1816.3 201.9ZM1554.4 201.5C1554.1 201.5 1553.8 201.4 1553.5 201.2C1552 200.2 1550.5 199.3 1549 198.3C1548.3 197.8 1548.1 196.8 1548.5 196.1C1549 195.4 1550 195.2 1550.7 195.6C1552.2 196.6 1553.7 197.5 1555.2 198.5C1555.9 199 1556.2 200 1555.7 200.7C1555.4 201.3 1554.9 201.5 1554.4 201.5ZM1826.9 200.2C1826.1 200.2 1825.5 199.6 1825.3 198.9C1825.2 198 1825.8 197.2 1826.6 197.1L1831.9 196.3C1832.8 196.2 1833.6 196.8 1833.7 197.6C1833.8 198.5 1833.2 199.3 1832.4 199.4L1827.1 200.2C1827 200.2 1826.9 200.2 1826.9 200.2ZM1837.4 198.5C1836.6 198.5 1836 197.9 1835.8 197.2C1835.7 196.3 1836.3 195.5 1837.1 195.4L1842.4 194.6C1843.3 194.5 1844.1 195.1 1844.2 195.9C1844.3 196.8 1843.7 197.6 1842.9 197.7L1837.6 198.5C1837.6 198.5 1837.5 198.5 1837.4 198.5ZM1847.9 196.8C1847.1 196.8 1846.5 196.2 1846.3 195.5C1846.2 194.6 1846.8 193.8 1847.6 193.7L1852.9 192.8C1853.8 192.7 1854.6 193.2 1854.7 194.1C1854.8 195 1854.3 195.8 1853.4 195.9L1848.1 196.8C1848.1 196.8 1848 196.8 1847.9 196.8ZM1545.4 195.7C1545.1 195.7 1544.8 195.6 1544.5 195.4C1543 194.4 1541.5 193.5 1540.1 192.5C1539.4 192 1539.2 191 1539.6 190.3C1540.1 189.6 1541.1 189.4 1541.8 189.8C1543.3 190.8 1544.8 191.8 1546.2 192.7C1546.9 193.2 1547.1 194.2 1546.7 194.9C1546.5 195.5 1546 195.7 1545.4 195.7ZM1536.5 189.8C1536.2 189.8 1535.9 189.7 1535.6 189.5C1534.1 188.5 1532.7 187.5 1531.2 186.5C1530.5 186 1530.3 185 1530.8 184.3C1531.3 183.6 1532.3 183.4 1533 183.9C1534.5 184.9 1536 185.9 1537.4 186.8C1538.1 187.3 1538.3 188.3 1537.8 189C1537.6 189.6 1537.1 189.8 1536.5 189.8ZM1527.7 183.9C1527.4 183.9 1527.1 183.8 1526.8 183.6L1522.4 180.6C1521.7 180.1 1521.5 179.1 1522 178.4C1522.5 177.7 1523.5 177.5 1524.2 178L1528.6 181C1529.3 181.5 1529.5 182.5 1529 183.2C1528.7 183.7 1528.2 183.9 1527.7 183.9ZM1518.9 178C1518.6 178 1518.3 177.9 1518 177.7L1513.6 174.7C1512.9 174.2 1512.7 173.2 1513.2 172.5C1513.7 171.8 1514.7 171.6 1515.4 172.1L1519.8 175.1C1520.5 175.6 1520.7 176.6 1520.2 177.3C1519.9 177.7 1519.4 178 1518.9 178ZM1510.1 172C1509.8 172 1509.5 171.9 1509.2 171.7L1504.8 168.7C1504.1 168.2 1503.9 167.2 1504.4 166.5C1504.9 165.8 1505.9 165.6 1506.6 166.1L1511 169.1C1511.7 169.6 1511.9 170.6 1511.4 171.3C1511.1 171.8 1510.6 172 1510.1 172ZM1501.3 166C1501 166 1500.7 165.9 1500.4 165.7L1496 162.7C1495.3 162.2 1495.1 161.2 1495.6 160.5C1496.1 159.8 1497.1 159.6 1497.8 160.1L1502.2 163.1C1502.9 163.6 1503.1 164.6 1502.6 165.3C1502.3 165.8 1501.8 166 1501.3 166ZM1492.5 160C1492.2 160 1491.9 159.9 1491.6 159.7L1487.2 156.7C1486.5 156.2 1486.3 155.2 1486.8 154.5C1487.3 153.8 1488.3 153.6 1489 154.1L1493.4 157.1C1494.1 157.6 1494.3 158.6 1493.8 159.3C1493.5 159.7 1493 160 1492.5 160ZM1483.8 153.9C1483.5 153.9 1483.2 153.8 1482.9 153.6L1478.5 150.6C1477.8 150.1 1477.6 149.1 1478.1 148.4C1478.6 147.7 1479.6 147.5 1480.3 148L1484.7 151C1485.4 151.5 1485.6 152.5 1485.1 153.2C1484.8 153.7 1484.3 153.9 1483.8 153.9ZM1475 147.8C1474.7 147.8 1474.4 147.7 1474.1 147.5L1469.7 144.5C1469 144 1468.8 143 1469.3 142.3C1469.8 141.6 1470.8 141.4 1471.5 141.9L1475.9 144.9C1476.6 145.4 1476.8 146.4 1476.3 147.1C1476 147.6 1475.5 147.8 1475 147.8ZM1466.3 141.7C1466 141.7 1465.7 141.6 1465.4 141.4L1461.1 138.4C1460.4 137.9 1460.2 136.9 1460.7 136.2C1461.2 135.5 1462.2 135.3 1462.9 135.8L1467.3 138.8C1468 139.3 1468.2 140.3 1467.7 141C1467.3 141.5 1466.8 141.7 1466.3 141.7ZM1457.6 135.6C1457.3 135.6 1457 135.5 1456.7 135.3L1452.3 132.2C1451.6 131.7 1451.4 130.7 1451.9 130C1452.4 129.3 1453.4 129.1 1454.1 129.6L1458.5 132.7C1459.2 133.2 1459.4 134.2 1458.9 134.9C1458.6 135.4 1458.1 135.6 1457.6 135.6ZM1448.9 129.5C1448.6 129.5 1448.3 129.4 1448 129.2L1443.6 126.1C1442.9 125.6 1442.7 124.6 1443.2 123.9C1443.7 123.2 1444.7 123 1445.4 123.5L1449.8 126.6C1450.5 127.1 1450.7 128.1 1450.2 128.8C1449.9 129.3 1449.4 129.5 1448.9 129.5ZM1440.2 123.4C1439.9 123.4 1439.6 123.3 1439.3 123.1L1434.9 120C1434.2 119.5 1434 118.5 1434.5 117.8C1435 117.1 1436 116.9 1436.7 117.4L1441.1 120.5C1441.8 121 1442 122 1441.5 122.7C1441.1 123.2 1440.7 123.4 1440.2 123.4ZM1431.5 117.3C1431.2 117.3 1430.9 117.2 1430.6 117L1426.3 113.9C1425.6 113.4 1425.4 112.4 1425.9 111.7C1426.4 111 1427.4 110.8 1428.1 111.3L1432.4 114.4C1433.1 114.9 1433.3 115.9 1432.8 116.6C1432.4 117 1432 117.3 1431.5 117.3ZM1422.8 111.1C1422.5 111.1 1422.2 111 1421.9 110.8L1417.6 107.7C1416.9 107.2 1416.7 106.2 1417.2 105.5C1417.7 104.8 1418.7 104.6 1419.4 105.1L1423.7 108.2C1424.4 108.7 1424.6 109.7 1424.1 110.4C1423.7 110.9 1423.3 111.1 1422.8 111.1ZM1414.1 105C1413.8 105 1413.5 104.9 1413.2 104.7L1408.8 101.6C1408.1 101.1 1407.9 100.1 1408.4 99.4001C1408.9 98.7001 1409.9 98.5001 1410.6 99.0001L1415 102.1C1415.7 102.6 1415.9 103.6 1415.4 104.3C1415 104.7 1414.6 105 1414.1 105ZM1405.4 98.8001C1405.1 98.8001 1404.8 98.7001 1404.5 98.5001L1400.1 95.4001C1399.4 94.9001 1399.2 93.9001 1399.7 93.2001C1400.2 92.5001 1401.2 92.3001 1401.9 92.8001L1406.3 95.9001C1407 96.4001 1407.2 97.4001 1406.7 98.1001C1406.3 98.6001 1405.9 98.8001 1405.4 98.8001ZM1396.6 92.6001C1396.3 92.6001 1396 92.5001 1395.7 92.3001C1393.7 90.9001 1392.2 89.9001 1391.3 89.3001C1390.6 88.8001 1390.4 87.8001 1390.9 87.1001C1391.4 86.4001 1392.4 86.2001 1393.1 86.7001C1394 87.3001 1395.5 88.3001 1397.6 89.8001C1398.3 90.3001 1398.5 91.3001 1398 92.0001C1397.6 92.4001 1397.1 92.6001 1396.6 92.6001Z" fill="#1C056D"/>
</g>
<mask id="mask29_146_213" style="mask-type:luminance" maskUnits="userSpaceOnUse" x="1327" y="20" width="540" height="252">
<path d="M1866.8 66.9C1866.8 66.9 1527.4 39.1 1457 24.3C1386.5 9.49999 1327.8 41.7 1327.8 41.7V113.8C1327.8 113.8 1510.2 269.2 1591.9 271.2C1673.7 273.2 1844.7 227.6 1846.1 220.1C1847.5 212.6 1846.1 168.3 1839.3 165.6C1832.5 162.9 1606.2 188.8 1602.1 184C1599.4 180.9 1561.1 142.4 1527.5 113.8H1866.7V66.9H1866.8Z" fill="white"/>
</mask>
<g mask="url(#mask29_146_213)">
<path d="M1339.8 32.2C1339.8 32.2 1342.8 127.4 1341.3 128.9C1339.8 130.4 1323 118.1 1323 118.1C1323 118.1 1321 42.1999 1322.6 37.3999C1324.2 32.6999 1339.8 32.2 1339.8 32.2Z" fill="#1C056D"/>
</g>
<mask id="mask30_146_213" style="mask-type:luminance" maskUnits="userSpaceOnUse" x="1327" y="20" width="540" height="252">
<path d="M1866.8 66.9C1866.8 66.9 1527.4 39.1 1457 24.3C1386.5 9.49999 1327.8 41.7 1327.8 41.7V113.8C1327.8 113.8 1510.2 269.2 1591.9 271.2C1673.7 273.2 1844.7 227.6 1846.1 220.1C1847.5 212.6 1846.1 168.3 1839.3 165.6C1832.5 162.9 1606.2 188.8 1602.1 184C1599.4 180.9 1561.1 142.4 1527.5 113.8H1866.7V66.9H1866.8Z" fill="white"/>
</mask>
<g mask="url(#mask30_146_213)">
<path d="M1527.6 113.8C1527.6 113.8 1454.6 53.7 1443.4 50.8C1443.4 50.8 1517.1 67.4001 1574.1 83.7001C1631.1 99.9001 1872.5 96.6001 1872.5 96.6001V120.7L1527.6 113.8Z" fill="#1C056D"/>
</g>
<path d="M1874.3 168.8C1874.3 168.8 1880.1 159.5 1890.9 158C1901.7 156.5 1905.3 158 1905.3 158C1905.3 158 1934.4 236.9 1929.1 238.6C1923.8 240.3 1911.9 240.5 1908.3 237.2C1904.7 233.9 1877.3 195.7 1877.3 195.7C1877.3 195.7 1879 175.1 1874.3 168.8Z" fill="#1B3D9E"/>
<mask id="mask31_146_213" style="mask-type:luminance" maskUnits="userSpaceOnUse" x="1874" y="157" width="56" height="83">
<path d="M1874.3 168.8C1874.3 168.8 1880.1 159.5 1890.9 158C1901.7 156.5 1905.3 158 1905.3 158C1905.3 158 1934.4 236.9 1929.1 238.6C1923.8 240.3 1911.9 240.5 1908.3 237.2C1904.7 233.9 1877.3 195.7 1877.3 195.7C1877.3 195.7 1879 175.1 1874.3 168.8Z" fill="white"/>
</mask>
<g mask="url(#mask31_146_213)">
<path d="M1882.5 206.2C1882.5 206.2 1890.2 197.4 1894 197.6C1896.3 197.7 1897.3 199.3 1897.7 200.5C1898 201.2 1897.8 202.1 1897.3 202.7C1895.1 205.2 1888.8 212.2 1887.5 211.9C1885.7 211.4 1882.5 206.2 1882.5 206.2Z" fill="#1C056D"/>
</g>
<mask id="mask32_146_213" style="mask-type:luminance" maskUnits="userSpaceOnUse" x="1874" y="157" width="56" height="83">
<path d="M1874.3 168.8C1874.3 168.8 1880.1 159.5 1890.9 158C1901.7 156.5 1905.3 158 1905.3 158C1905.3 158 1934.4 236.9 1929.1 238.6C1923.8 240.3 1911.9 240.5 1908.3 237.2C1904.7 233.9 1877.3 195.7 1877.3 195.7C1877.3 195.7 1879 175.1 1874.3 168.8Z" fill="white"/>
</mask>
<g mask="url(#mask32_146_213)">
<path d="M1890.3 217.7C1890.3 217.7 1898 208.9 1901.8 209.1C1904.1 209.2 1905.1 210.8 1905.5 212C1905.8 212.7 1905.6 213.6 1905.1 214.2C1902.9 216.7 1896.6 223.7 1895.3 223.4C1893.5 222.9 1890.3 217.7 1890.3 217.7Z" fill="#1C056D"/>
</g>
<mask id="mask33_146_213" style="mask-type:luminance" maskUnits="userSpaceOnUse" x="1874" y="157" width="56" height="83">
<path d="M1874.3 168.8C1874.3 168.8 1880.1 159.5 1890.9 158C1901.7 156.5 1905.3 158 1905.3 158C1905.3 158 1934.4 236.9 1929.1 238.6C1923.8 240.3 1911.9 240.5 1908.3 237.2C1904.7 233.9 1877.3 195.7 1877.3 195.7C1877.3 195.7 1879 175.1 1874.3 168.8Z" fill="white"/>
</mask>
<g mask="url(#mask33_146_213)">
<path d="M1897.4 156.1C1897.4 156.1 1924.7 237.9 1924.5 241.3C1924.5 241.3 1933.6 240.7 1933.6 238.5C1933.6 236.2 1911.2 156.5 1908.4 156.2C1905.6 155.9 1897.4 156.1 1897.4 156.1Z" fill="#1C056D"/>
</g>
<path d="M1866.8 83.2C1866.8 83.2 1900.3 87.8999 1901 89.4999C1901.6 91.1999 1901.8 113.8 1901.8 113.8L1866.9 113.9V83.2H1866.8Z" fill="#E57492"/>
<path d="M1899.6 88.8C1899.6 88.8 1903.5 78.9 1915.1 78.2C1926.6 77.6 1953.6 91.9 1956 92.9C1958.4 93.9 1990.9 102.7 1991.5 102.9C1998.5 106.4 1992.3 114.7 1992.3 114.7L1901.8 113.6L1899.6 88.8Z" fill="#1B3D9E"/>
<mask id="mask34_146_213" style="mask-type:luminance" maskUnits="userSpaceOnUse" x="1899" y="78" width="96" height="37">
<path d="M1899.6 88.8C1899.6 88.8 1903.5 78.9 1915.1 78.2C1926.6 77.6 1953.6 91.9 1956 92.9C1958.4 93.9 1990.9 102.7 1991.5 102.9C1998.5 106.4 1992.3 114.7 1992.3 114.7L1901.8 113.6L1899.6 88.8Z" fill="white"/>
</mask>
<g mask="url(#mask34_146_213)">
<path d="M1908.8 78.3001C1909.9 79.3001 1948.8 97.8001 1954.6 98.6001C1960.4 99.3001 1996 108.9 1996 108.9C1996 108.9 1997.9 104 1994.8 102.2C1991.6 100.4 1957.2 92.2001 1954.5 90.6001C1951.8 89.1001 1918.6 75.7001 1915.8 76.1001C1913.1 76.6001 1908.8 78.3001 1908.8 78.3001Z" fill="#1C056D"/>
</g>
<mask id="mask35_146_213" style="mask-type:luminance" maskUnits="userSpaceOnUse" x="1899" y="78" width="96" height="37">
<path d="M1899.6 88.8C1899.6 88.8 1903.5 78.9 1915.1 78.2C1926.6 77.6 1953.6 91.9 1956 92.9C1958.4 93.9 1990.9 102.7 1991.5 102.9C1998.5 106.4 1992.3 114.7 1992.3 114.7L1901.8 113.6L1899.6 88.8Z" fill="white"/>
</mask>
<g mask="url(#mask35_146_213)">
<path d="M1918.7 115.7C1919.4 113.1 1922 100.7 1923.9 100.3C1925.8 99.9 1930.5 101.2 1930.4 101.9C1930.3 102.6 1929.3 116.2 1926.1 116.2C1922.9 116.1 1918.7 115.7 1918.7 115.7Z" fill="#1C056D"/>
</g>
<mask id="mask36_146_213" style="mask-type:luminance" maskUnits="userSpaceOnUse" x="1899" y="78" width="96" height="37">
<path d="M1899.6 88.8C1899.6 88.8 1903.5 78.9 1915.1 78.2C1926.6 77.6 1953.6 91.9 1956 92.9C1958.4 93.9 1990.9 102.7 1991.5 102.9C1998.5 106.4 1992.3 114.7 1992.3 114.7L1901.8 113.6L1899.6 88.8Z" fill="white"/>
</mask>
<g mask="url(#mask36_146_213)">
<path d="M1937.1 119.2C1937.8 116.6 1940.4 104.2 1942.3 103.8C1944.2 103.4 1948.9 104.7 1948.8 105.4C1948.7 106.1 1947.7 119.7 1944.5 119.7C1941.3 119.7 1937.1 119.2 1937.1 119.2Z" fill="#1C056D"/>
</g>
</svg>
