<?xml version="1.0" encoding="utf-8"?>
<!-- Generator: Adobe Illustrator 23.0.2, SVG Export Plug-In . SVG Version: 6.00 Build 0)  -->
<svg version="1.1" id="Layer_1" xmlns="http://www.w3.org/2000/svg" xmlns:xlink="http://www.w3.org/1999/xlink" x="0px" y="0px"
	 viewBox="0 0 512 512" style="enable-background:new 0 0 512 512;" xml:space="preserve">
<path d="M320,256.7c-13.4-14.5-32.2-23.1-52-23.1h-21.5c-6.4,0-12.9-2.7-17.2-7.5c-4.3-4.8-6.4-11.3-5.9-18.2
	c1.1-11.8,12.3-20.9,24.7-20.9h24.7c7,0,12.9,4.8,14.5,11.8c1.1,4.3,4.8,7.5,9.7,7.5h27.9c2.7,0,5.4-1.1,7.5-3.2
	c1.6-2.1,2.7-4.8,2.7-7.5c-2.7-29-25.2-51.5-53.6-55.2v-23.6c0-5.4-4.3-9.7-9.7-9.7h-27.4c-5.4,0-9.7,4.3-9.7,9.7v24.1
	c-35.9,6.4-60.6,39.7-56.8,76.2c3.2,35.4,35.4,63.3,72.9,63.3H268c6.4,0,12.9,2.7,17.2,7.5s6.4,11.3,5.9,18.2
	c-1.1,11.8-11.8,20.9-24.7,20.9h-24.7c-7,0-12.9-4.8-14.5-11.8c-1.1-4.3-4.8-7.5-9.7-7.5h-27.9c-2.7,0-5.4,1.1-7.5,3.2
	c-1.6,2.1-2.7,4.8-2.1,7.5c2.7,29,25.2,51.5,53.6,55.2v23.6c0,5.4,4.3,9.7,9.7,9.7h27.4c5.4,0,9.7-4.3,9.7-9.7v-24.7
	c31.1-6.4,54.7-31.6,57.4-61.7C339.8,291,333.4,271.7,320,256.7z"/>
<path d="M257.3,2.5C116.7,2.5,2.5,116.7,2.5,257.3S116.7,512,257.3,512S512,397.8,512,257.3S397.8,2.5,257.3,2.5z M48.6,257.3
	c0-49.3,17.2-94.4,45.6-130.3l60.1,60.1c3.8-16.1,11.8-30.6,23.1-41.8l-50.4-50.4c35.4-28.4,81-45.6,129.8-45.6
	c114.8,0,208.6,93.3,208.6,208.6c0,49.3-17.2,94.4-45.6,129.8l-59.5-60.1c-3.8,16.1-11.8,30-23.6,41.8l50.4,51
	c-35.4,28.4-81,45.6-129.8,45.6C142.5,465.9,48.6,372,48.6,257.3z"/>
</svg>
