<?xml version="1.0" encoding="utf-8"?>
<!-- Generator: Adobe Illustrator 23.0.2, SVG Export Plug-In . SVG Version: 6.00 Build 0)  -->
<svg version="1.1" id="Layer_1" xmlns="http://www.w3.org/2000/svg" xmlns:xlink="http://www.w3.org/1999/xlink" x="0px" y="0px"
	 viewBox="0 0 4000 4000" style="enable-background:new 0 0 4000 4000;" xml:space="preserve">
<style type="text/css">
	.st0{fill:#3D3144;}
	.st1{fill:#61ED46;}
	.st2{opacity:0.3;}
	.st3{fill:#000072;}
	.st4{fill:#4D5A6A;}
	.st5{opacity:0.55;}
	.st6{fill:#FFFFFF;}
	.st7{opacity:0.4;}
	.st8{fill:#FDBD91;}
	.st9{fill:#AC3D50;}
	.st10{opacity:0.2;}
	.st11{fill:#FEFEFE;}
	.st12{filter:url(#Adobe_OpacityMaskFilter);}
	.st13{filter:url(#Adobe_OpacityMaskFilter_1_);}
	.st14{mask:url(#SVGID_1_);fill:url(#SVGID_2_);}
	.st15{opacity:0.5;fill:url(#SVGID_3_);}
	.st16{fill:#C6D3E3;}
	.st17{opacity:0.75;}
	.st18{fill-rule:evenodd;clip-rule:evenodd;fill:#FFFFFF;}
	.st19{fill-rule:evenodd;clip-rule:evenodd;fill:#000072;}
</style>
<g>
	<g>
		<circle class="st0" cx="2000" cy="1585.5" r="1569"/>
	</g>
	<g>
		<g>
			<path class="st1" d="M3209.4,939.7h-302.1c-11.6,0-21.1-9.4-21.1-21.1c0-11.6,9.4-21.1,21.1-21.1h302.1
				c11.6,0,21.1,9.4,21.1,21.1C3230.5,930.2,3221.1,939.7,3209.4,939.7z"/>
		</g>
		<g>
			<path class="st1" d="M2615.8,939.7H1379c-11.6,0-21.1-9.4-21.1-21.1c0-11.6,9.4-21.1,21.1-21.1h1236.8c11.6,0,21.1,9.4,21.1,21.1
				C2636.9,930.2,2627.5,939.7,2615.8,939.7z"/>
		</g>
		<g>
			<path class="st1" d="M1183.9,939.7H842.1c-11.6,0-21.1-9.4-21.1-21.1c0-11.6,9.4-21.1,21.1-21.1h341.9c11.6,0,21.1,9.4,21.1,21.1
				C1205,930.2,1195.6,939.7,1183.9,939.7z"/>
		</g>
		<g>
			<path class="st1" d="M3209.4,1115.3h-259.9c-11.6,0-21.1-9.4-21.1-21.1c0-11.6,9.4-21.1,21.1-21.1h259.9
				c11.6,0,21.1,9.4,21.1,21.1C3230.5,1105.9,3221.1,1115.3,3209.4,1115.3z"/>
		</g>
		<g>
			<path class="st1" d="M2790.3,1115.3H1237c-11.6,0-21.1-9.4-21.1-21.1c0-11.6,9.4-21.1,21.1-21.1h1553.2
				c11.6,0,21.1,9.4,21.1,21.1C2811.3,1105.9,2801.9,1115.3,2790.3,1115.3z"/>
		</g>
		<g>
			<path class="st1" d="M1021.5,1115.3H842.1c-11.6,0-21.1-9.4-21.1-21.1c0-11.6,9.4-21.1,21.1-21.1h179.4
				c11.6,0,21.1,9.4,21.1,21.1C1042.5,1105.9,1033.1,1115.3,1021.5,1115.3z"/>
		</g>
		<g>
			<path class="st1" d="M3209.4,1290.9H842.1c-11.6,0-21.1-9.4-21.1-21.1s9.4-21.1,21.1-21.1h2367.4c11.6,0,21.1,9.4,21.1,21.1
				S3221.1,1290.9,3209.4,1290.9z"/>
		</g>
		<g>
			<path class="st1" d="M3209.4,1466.5H1207.3c-11.6,0-21.1-9.4-21.1-21.1c0-11.6,9.4-21.1,21.1-21.1h2002.1
				c11.6,0,21.1,9.4,21.1,21.1C3230.5,1457.1,3221.1,1466.5,3209.4,1466.5z"/>
		</g>
		<g>
			<path class="st1" d="M1021.5,1466.5H842.1c-11.6,0-21.1-9.4-21.1-21.1c0-11.6,9.4-21.1,21.1-21.1h179.4
				c11.6,0,21.1,9.4,21.1,21.1C1042.5,1457.1,1033.1,1466.5,1021.5,1466.5z"/>
		</g>
		<g>
			<path class="st1" d="M3209.4,1642.2h-151c-11.6,0-21.1-9.4-21.1-21.1c0-11.6,9.4-21.1,21.1-21.1h151c11.6,0,21.1,9.4,21.1,21.1
				C3230.5,1632.7,3221.1,1642.2,3209.4,1642.2z"/>
		</g>
		<g>
			<path class="st1" d="M2907.4,1642.2H842.1c-11.6,0-21.1-9.4-21.1-21.1c0-11.6,9.4-21.1,21.1-21.1h2065.3
				c11.6,0,21.1,9.4,21.1,21.1C2928.4,1632.7,2919,1642.2,2907.4,1642.2z"/>
		</g>
		<g>
			<path class="st1" d="M3209.4,1817.8H842.1c-11.6,0-21.1-9.4-21.1-21.1c0-11.6,9.4-21.1,21.1-21.1h2367.4
				c11.6,0,21.1,9.4,21.1,21.1C3230.5,1808.3,3221.1,1817.8,3209.4,1817.8z"/>
		</g>
		<g>
			<path class="st1" d="M3209.4,1993.4H3039c-11.6,0-21.1-9.4-21.1-21.1c0-11.6,9.4-21.1,21.1-21.1h170.5c11.6,0,21.1,9.4,21.1,21.1
				C3230.5,1984,3221.1,1993.4,3209.4,1993.4z"/>
		</g>
		<g>
			<path class="st1" d="M2860,1993.4H1301c-11.6,0-21.1-9.4-21.1-21.1c0-11.6,9.4-21.1,21.1-21.1h1559c11.6,0,21.1,9.4,21.1,21.1
				C2881.1,1984,2871.7,1993.4,2860,1993.4z"/>
		</g>
		<g>
			<path class="st1" d="M1043.4,1993.4H842.1c-11.6,0-21.1-9.4-21.1-21.1c0-11.6,9.4-21.1,21.1-21.1h201.4
				c11.6,0,21.1,9.4,21.1,21.1C1064.5,1984,1055.1,1993.4,1043.4,1993.4z"/>
		</g>
		<g>
			<path class="st1" d="M3209.4,2169h-380.3c-11.6,0-21.1-9.4-21.1-21.1s9.4-21.1,21.1-21.1h380.3c11.6,0,21.1,9.4,21.1,21.1
				S3221.1,2169,3209.4,2169z"/>
		</g>
		<g>
			<path class="st1" d="M2532.7,2169H842.1c-11.6,0-21.1-9.4-21.1-21.1s9.4-21.1,21.1-21.1h1690.6c11.6,0,21.1,9.4,21.1,21.1
				S2544.3,2169,2532.7,2169z"/>
		</g>
	</g>
	<g class="st2">
		<path class="st3" d="M512,3886.7c499.6,129,2476.2,129,2975.8,0c46.2-11.9,34.9-65.5-13.7-65.5H525.8
			C477.1,3821.3,465.8,3874.8,512,3886.7z"/>
	</g>
	<g>
		<path class="st3" d="M651.9,3814.1c56.2-11,112.3-13.9,168.5-15.1c56.2-1.5,112.3-0.7,168.5,0.1c56.2,0.7,112.3,0.8,168.5,0.7
			h168.5h674h674h337l84.2,0c28.1,0,56.2-1,84.3-1.4c56.2-0.3,112.3,0.4,168.5,15.7c3.9,1.1,6.3,5.1,5.2,9.1
			c-0.7,2.6-2.8,4.5-5.2,5.2c-56.2,15.3-112.3,16-168.5,15.7c-28.1-0.5-56.2-1.4-84.3-1.4l-84.2,0h-337h-674h-674h-168.5
			c-56.2-0.1-112.3,0.1-168.5,0.7c-56.2,0.8-112.3,1.6-168.5,0.1c-56.2-1.2-112.3-4.1-168.5-15.1c-3.9-0.8-6.5-4.6-5.7-8.5
			C646.7,3816.9,649.1,3814.7,651.9,3814.1z"/>
	</g>
	<g>
		<g>
			<g>
				<path class="st4" d="M2694.7,3668.9l8.9-1.1c247.5-29.4,416.9-264.2,366.8-508.3l-93-453.1c-42.4-206.8-224.4-355.2-435.5-355.2
					h-541h15.3h-541c-211.1,0-393.1,148.4-435.5,355.2l-93,453.1c-50.1,244.1,119.3,478.9,366.8,508.3l8.9,1.1H2694.7z"/>
			</g>
			<g>
				<path class="st3" d="M2694.9,3672.3H1322.4l-9.3-1.1c-118.9-14.1-227.3-77.9-297.3-175c-70.1-97.1-96.4-220-72.4-337.3l93-453.1
					c42.6-207.4,227.1-357.9,438.8-357.9h1066.7c211.7,0,396.3,150.5,438.8,357.9l93,453.1c24.1,117.3-2.3,240.2-72.4,337.3
					c-70.1,97.1-178.4,160.9-297.3,175L2694.9,3672.3z M1475.2,2354.7c-208.5,0-390.3,148.2-432.2,352.5l-93,453.1
					c-23.7,115.4,2.3,236.4,71.2,332c68.9,95.6,175.6,158.3,292.6,172.3l8.9,1.1l1371.7,0l8.7-1c117-13.9,223.7-76.7,292.6-172.3
					c69-95.6,94.9-216.6,71.2-332l-93-453.1c-41.9-204.2-223.7-352.5-432.1-352.5H1475.2z"/>
			</g>
		</g>
		<g class="st2">
			<path class="st3" d="M2703.6,3667.9l-8.8,1H1322.4l-8.9-1c-158.3-18.8-284.7-121.8-342.1-257.3c62.8,56.5,143.1,94.9,234,105.8
				l8.8,1h1372.3l8.8-1c247.5-29.4,416.9-264.2,366.8-508.3l-92.9-453.1c-6.3-30.5-15.6-59.6-27.5-87.2
				c67.4,61.5,116.2,144,135.6,238.7l93,453.1C3120.4,3403.7,2951,3638.5,2703.6,3667.9z"/>
		</g>
		<g class="st5">
			<path class="st6" d="M2761.2,2409.2c-50.7-20-105.7-30.8-162.8-30.8H1531.8c-211.1,0-393.1,148.4-435.5,355.2l-93,453.1
				c-38.2,186.2,51.3,366.9,205.7,455.3c-188.4-73.3-304.9-274.4-262.3-482.3l93-453.1c42.4-206.7,224.4-355.2,435.5-355.2h1066.6
				C2621,2351.3,2696.1,2372.1,2761.2,2409.2z"/>
		</g>
		<g>
			<path class="st3" d="M2694.7,3691.1H1322.4c-0.9,0-1.7,0-2.6-0.2l-8.9-1.1c-124.1-14.8-237.2-81.3-310.3-182.7
				c-73.1-101.3-100.6-229.7-75.5-352.1l93-453.1c44.3-216.1,236.6-372.9,457.2-372.9h1066.7c220.6,0,412.8,156.8,457.2,372.9
				l93,453.1c25.1,122.4-2.4,250.7-75.5,352.1c-73.1,101.3-186.2,167.9-310.3,182.7l-8.9,1.1
				C2696.4,3691,2695.6,3691.1,2694.7,3691.1z M1323.7,3646.8h1369.7l7.6-0.9c111.8-13.3,213.7-73.3,279.6-164.6
				c65.9-91.3,90.7-207,68.1-317.3l-93-453.1c-40.1-195.6-214.2-337.5-413.8-337.5H1475.2c-199.7,0-373.7,141.9-413.8,337.5
				l-93,453.1c-22.6,110.3,2.2,226,68.1,317.3c65.9,91.3,167.8,151.3,279.6,164.6L1323.7,3646.8z"/>
		</g>
		<g>
			<g>
				<path class="st4" d="M2796.4,2016.6c-1.3,5.2-2.7,10.4-4.1,15.5c-1.1,3.9-2.2,7.7-3.3,11.6c-0.4,1.5-0.8,2.9-1.3,4.4
					c-0.9,3.2-1.9,6.3-2.9,9.4c-1.3,4.1-2.6,8-3.9,12c-0.6,1.8-1.2,3.5-1.8,5.2c-1.9,5.8-3.9,11.4-6,17c-2.2,6.2-4.6,12.3-7,18.4
					c-2.4,6.1-4.9,12.2-7.4,18.2c-2.5,6-5.2,12-7.9,17.9c-2.6,5.8-5.2,11.4-8,17.1c-0.4,0.7-0.7,1.5-1.1,2.2
					c-2.5,5.3-5.2,10.5-7.9,15.8c-0.1,0.1-0.1,0.3-0.2,0.4c-2.9,5.8-6,11.5-9.1,17.3c-3.7,6.8-7.4,13.5-11.4,20.1
					c-2.7,4.6-5.4,9.2-8.1,13.8c-0.1,0.1-0.2,0.3-0.2,0.4c-3.4,5.6-6.9,11.1-10.4,16.7c-5.9,9.2-11.9,18.4-18.2,27.4
					c-2.7,4-5.5,7.9-8.3,11.8c-2.4,3.3-4.7,6.6-7.2,9.9c-3.6,4.9-7.3,9.8-11,14.7c-3.6,4.7-7.2,9.3-10.9,13.9
					c-2.1,2.6-4.1,5.2-6.2,7.7c-1.3,1.6-2.7,3.2-4,4.9c-2.5,2.9-4.9,5.9-7.4,8.9c-6.8,8-13.7,15.9-20.8,23.7
					c-3.4,3.8-6.9,7.6-10.5,11.4c-2.6,2.7-5.2,5.5-7.7,8.3c-3.7,3.8-7.3,7.6-11.1,11.3c-5.3,5.4-10.8,10.8-16.2,16.1
					c-4.4,4.3-8.9,8.5-13.3,12.6c-0.7,0.7-1.3,1.3-2,1.8c-4.6,4.4-9.2,8.6-13.9,12.8c-8.6,7.7-17.4,15.3-26.3,22.7
					c-2.2,1.8-4.4,3.7-6.7,5.6c-4.5,3.7-9.1,7.4-13.7,11.1c-16.1,12.8-32.5,25.1-49.3,36.9c-0.3,0.2-0.7,0.4-1,0.7
					c-65.6,46.2-136.9,80.5-210.9,103c-25.7,7.8-51.7,14.2-78,19.2c-116.3,22.1-236.8,16.3-350.9-17.3
					c-76.7-22.6-150.5-57.7-218.3-105.5c-5.3-3.8-10.6-7.6-15.9-11.4c-0.5-0.4-1-0.8-1.6-1.2c-5.2-3.9-10.5-7.8-15.6-11.7
					c-5.4-4.1-10.8-8.3-16.2-12.6h-0.1c-5.3-4.3-10.5-8.6-15.8-12.8c-5.3-4.4-10.5-8.8-15.6-13.2c-5.2-4.4-10.3-8.9-15.3-13.3
					c-5.1-4.6-10.1-9.1-15-13.7c-4.9-4.6-9.8-9.2-14.7-13.9c-4.9-4.6-9.7-9.4-14.4-14.2c-4.7-4.8-9.4-9.6-14.1-14.5
					c-4.6-4.9-9.3-9.9-13.9-14.9c-4.4-4.9-8.8-9.7-13.1-14.8c-3.4-3.8-6.8-7.7-10.1-11.7c-9.7-11.4-19.1-23.1-28.2-35
					c-3.7-4.9-7.4-9.7-11-14.7c-0.5-0.6-1-1.3-1.4-1.8c-2.5-3.3-4.9-6.7-7.3-10.1c-5.5-7.7-10.8-15.3-15.9-23.2
					c-2.9-4.3-5.8-8.6-8.5-13c-4.2-6.6-8.3-13.1-12.4-19.8c-2.8-4.7-5.7-9.5-8.5-14.3c-3.8-6.7-7.6-13.6-11.4-20.4
					c-2.7-5.2-5.5-10.3-8.1-15.5c-2.7-5.2-5.4-10.5-7.9-15.9c-0.4-0.7-0.8-1.5-1.1-2.2c-5.6-11.4-10.8-23-15.7-34.7
					c-0.3-0.5-0.5-1-0.7-1.5c-2.4-5.8-4.8-11.5-7.1-17.3c-2.4-6-4.8-12.2-7-18.4c-2.3-6.1-4.5-12.3-6.6-18.5
					c-1.5-4.6-3.1-9.2-4.6-13.9c-1.2-3.7-2.3-7.4-3.4-11.1c-0.5-1.6-1-3.3-1.5-4.9c-1.1-3.6-2.1-7.2-3.1-10.8
					c-1.5-5.3-2.9-10.6-4.3-16c-55.2-389.4,298.9-821.2,652.7-1006.4c90-47.1,197.7-47.1,287.6,0c8,4.1,15.9,8.6,23.8,13.1l0.1,0.1
					C2513.3,1222,2850.3,1636,2796.4,2016.6z"/>
			</g>
			<g>
				<g class="st7">
					<path class="st3" d="M2136,2645.4c10-2.6,20-5.4,29.9-8.4c74-22.5,145.4-56.8,210.9-103c0.3-0.2,0.7-0.4,1-0.7
						c16.8-11.9,33.3-24.2,49.3-36.9c4.6-3.7,9.2-7.4,13.7-11.1c2.3-1.9,4.5-3.8,6.7-5.6c8.9-7.5,17.7-15,26.3-22.7
						c4.7-4.2,9.4-8.4,13.9-12.8c0.7-0.5,1.3-1.2,2-1.8c4.5-4.1,8.9-8.3,13.3-12.6c5.5-5.3,10.9-10.7,16.2-16.1
						c3.8-3.7,7.4-7.5,11.1-11.3c2.6-2.7,5.2-5.5,7.7-8.3c3.5-3.8,7.1-7.5,10.5-11.4c7.1-7.8,14-15.7,20.8-23.7
						c2.5-2.9,4.9-5.9,7.5-8.9c1.3-1.6,2.7-3.2,4-4.9c2.1-2.5,4.1-5.1,6.2-7.7c3.7-4.6,7.3-9.2,10.9-13.9c3.7-4.9,7.4-9.7,11-14.7
						c2.4-3.3,4.8-6.6,7.2-9.9c2.8-3.9,5.6-7.8,8.3-11.8c6.3-9.1,12.3-18.2,18.2-27.4c3.5-5.5,7-11.1,10.4-16.7
						c0-0.1,0.1-0.2,0.2-0.4c2.7-4.6,5.5-9.1,8.1-13.8c3.9-6.6,7.7-13.3,11.4-20.1c3.1-5.8,6.1-11.4,9.1-17.3
						c0.1-0.1,0.2-0.3,0.2-0.4c2.7-5.2,5.4-10.5,7.9-15.8c0.4-0.7,0.7-1.5,1.1-2.2c2.7-5.7,5.4-11.4,8-17.1
						c2.7-5.9,5.4-11.9,7.9-17.9c2.6-6,5.1-12.1,7.4-18.2c2.4-6,4.8-12.2,7-18.4c2.1-5.6,4.1-11.3,6-17c0.6-1.7,1.2-3.5,1.8-5.2
						c1.3-4,2.7-8,3.9-12c1-3.1,2-6.3,2.9-9.4c0.5-1.5,0.9-2.9,1.3-4.4c1.1-3.8,2.2-7.7,3.3-11.6c1.4-5.1,2.8-10.3,4.1-15.5
						c53.3-376-274.9-784.4-616.1-985.8c240,218.3,421.6,524.2,381,811.1c-1.3,5.2-2.7,10.4-4.1,15.5c-1.1,3.9-2.2,7.7-3.3,11.6
						c-0.4,1.5-0.8,2.9-1.3,4.4c-0.9,3.2-1.9,6.3-2.9,9.4c-1.3,4.1-2.6,8-3.9,12c-0.6,1.8-1.2,3.5-1.8,5.2c-1.9,5.8-3.9,11.4-6,17
						c-2.2,6.2-4.6,12.3-7,18.4c-2.4,6.1-4.9,12.2-7.4,18.2c-2.5,6-5.2,12-7.9,17.9c-2.6,5.8-5.2,11.4-8,17.1
						c-0.4,0.7-0.7,1.5-1.1,2.2c-2.5,5.3-5.2,10.5-7.9,15.8c-0.1,0.1-0.1,0.3-0.2,0.4c-2.9,5.8-6,11.5-9.1,17.3
						c-3.7,6.8-7.4,13.5-11.4,20.1c-2.7,4.6-5.4,9.2-8.1,13.8c-0.1,0.1-0.2,0.3-0.2,0.4c-3.4,5.6-6.9,11.1-10.4,16.7
						c-5.9,9.2-11.9,18.4-18.2,27.4c-2.7,4-5.5,7.9-8.3,11.8c-2.4,3.3-4.7,6.6-7.2,9.9c-3.6,4.9-7.3,9.8-11,14.7
						c-3.6,4.7-7.2,9.3-10.9,13.9c-2.1,2.6-4.1,5.2-6.2,7.7c-1.3,1.6-2.7,3.2-4,4.9c-2.5,2.9-4.9,5.9-7.4,8.9
						c-6.8,8-13.7,15.9-20.8,23.7c-3.4,3.8-6.9,7.6-10.5,11.4c-2.6,2.7-5.2,5.5-7.7,8.3c-3.7,3.8-7.3,7.6-11.1,11.3
						c-5.3,5.4-10.8,10.8-16.2,16.1c-4.4,4.3-8.8,8.5-13.3,12.6c-0.7,0.7-1.3,1.3-2,1.8c-4.6,4.4-9.2,8.6-13.9,12.8
						c-8.6,7.7-17.4,15.3-26.3,22.7c-2.2,1.8-4.4,3.7-6.7,5.6c-4.5,3.7-9.1,7.4-13.7,11.1c-16.1,12.8-32.5,25.1-49.3,36.9
						c-0.3,0.2-0.7,0.4-1,0.7c-65.6,46.2-136.9,80.5-210.9,103c-25.7,7.8-51.7,14.2-78,19.2c-43.6,8.3-87.8,12.7-132.1,13.1
						c44.2-0.4,88.4-4.8,132.1-13.1c1.3-0.2,2.5-0.5,3.8-0.8c-15.9,4.1-31.9,7.8-48,10.9c-96.2,18.3-195.3,17.4-291.3-2.5
						c-1.1-0.9-2.2-1.7-3.4-2.6c5.3,4.2,10.6,8.3,15.8,12.4c5.2,3.9,10.4,7.8,15.6,11.7c0.6,0.4,1.1,0.7,1.6,1.2
						c5.3,3.8,10.6,7.7,15.9,11.4c67.8,47.8,141.6,83,218.3,105.5c114.1,33.6,234.6,39.5,350.9,17.3c13.7-2.6,27.4-5.6,41-9
						C2160.9,2640.2,2148.5,2643,2136,2645.4z"/>
				</g>
			</g>
			<g class="st5">
				<path class="st6" d="M2294.1,1110.5c-27.2-18.4-54.7-35.6-82.2-51.5l-0.1-0.1c-8-4.6-15.9-9-23.8-13.1
					c-90-47.1-197.7-47.1-287.6,0c-353.8,185.2-707.9,617.1-652.7,1006.5c1.4,5.4,2.8,10.7,4.3,16c1,3.6,2,7.2,3.1,10.8
					c0.4,1.6,1,3.3,1.5,4.9c1.1,3.7,2.2,7.4,3.4,11.1c1.5,4.6,3,9.3,4.6,13.9c2.1,6.2,4.3,12.4,6.6,18.5c2.2,6.2,4.6,12.3,7,18.4
					c2.3,5.8,4.6,11.6,7.1,17.3c0.1,0.5,0.4,1,0.7,1.5c4.9,11.7,10.1,23.2,15.7,34.7c0.3,0.7,0.7,1.5,1.1,2.2
					c2.5,5.3,5.2,10.6,7.9,15.9c2.7,5.2,5.4,10.3,8.1,15.5c3.8,6.9,7.5,13.7,11.4,20.4c2.8,4.8,5.7,9.6,8.5,14.3
					c4.1,6.7,8.2,13.3,12.4,19.8c2.7,4.4,5.6,8.7,8.5,13c5.2,7.8,10.5,15.5,15.9,23.2c2.4,3.4,4.8,6.8,7.3,10.1
					c0.4,0.6,0.9,1.3,1.4,1.8c3.5,4.9,7.3,9.8,11,14.7c9.1,11.9,18.6,23.5,28.2,35c3.3,3.9,6.7,7.8,10.1,11.7
					c4.4,5,8.7,9.9,13.1,14.8c4.6,5,9.3,10,13.9,14.9c4.6,4.9,9.4,9.7,14.1,14.5c4.7,4.8,9.5,9.5,14.4,14.2
					c4.9,4.7,9.7,9.4,14.7,13.9c4.9,4.6,10,9.1,15,13.7c5,4.5,10.1,8.9,15.3,13.3c5.2,4.4,10.3,8.9,15.6,13.2
					c5.2,4.3,10.5,8.6,15.8,12.8h0.1c5.4,4.3,10.8,8.5,16.2,12.6c4.8,3.6,9.7,7.2,14.5,10.9c-6.1-4-12.2-8.1-18.2-12.4
					c-5.3-3.8-10.6-7.6-15.9-11.4c-0.5-0.4-1-0.8-1.6-1.2c-5.2-3.9-10.5-7.8-15.6-11.7c-5.4-4.1-10.8-8.3-16.2-12.6h-0.1
					c-5.3-4.3-10.5-8.6-15.8-12.8c-5.3-4.4-10.5-8.8-15.6-13.2c-5.2-4.4-10.3-8.9-15.3-13.3c-5.1-4.6-10.1-9.1-15-13.7
					c-4.9-4.6-9.8-9.2-14.7-13.9c-4.9-4.6-9.7-9.4-14.4-14.2c-4.7-4.8-9.4-9.6-14.1-14.5c-4.6-4.9-9.3-9.9-13.9-14.9
					c-4.4-4.9-8.8-9.7-13.1-14.8c-3.4-3.8-6.8-7.7-10.1-11.7c-9.7-11.4-19.1-23.1-28.2-35c-3.7-4.9-7.4-9.7-11-14.7
					c-0.5-0.6-1-1.3-1.4-1.8c-2.5-3.3-4.9-6.7-7.3-10.1c-5.5-7.7-10.8-15.3-15.9-23.2c-2.9-4.3-5.8-8.6-8.5-13
					c-4.2-6.6-8.3-13.1-12.4-19.8c-2.8-4.7-5.7-9.5-8.5-14.3c-3.8-6.7-7.6-13.6-11.4-20.4c-2.7-5.2-5.5-10.3-8.1-15.5
					c-2.7-5.2-5.4-10.5-7.9-15.9c-0.4-0.7-0.8-1.5-1.1-2.2c-5.6-11.4-10.8-23-15.7-34.7c-0.3-0.5-0.5-1-0.7-1.5
					c-2.4-5.8-4.8-11.5-7.1-17.3c-2.4-6-4.8-12.2-7-18.4c-2.3-6.1-4.5-12.3-6.6-18.5c-1.5-4.6-3.1-9.2-4.6-13.9
					c-1.2-3.7-2.3-7.4-3.4-11.1c-0.5-1.6-1-3.3-1.5-4.9c-1.1-3.6-2.1-7.2-3.1-10.8c-1.5-5.3-2.9-10.6-4.3-16
					c-55.2-389.4,298.9-821.3,652.7-1006.5c90-47.1,197.7-47.1,287.6,0c8,4.1,15.9,8.6,23.8,13.1l0.1,0.1
					C2215.1,1056.2,2255,1082.1,2294.1,1110.5z"/>
			</g>
			<g>
				<path class="st3" d="M1999.9,2681.3c-155,0-310-46.6-442.3-139.9c-5.4-3.8-10.8-7.7-16.1-11.6c-0.3-0.2-0.6-0.4-0.8-0.6
					c-0.4-0.2-0.7-0.5-1.1-0.8c-5.6-4.2-10.7-8-15.8-11.8c-5.2-4-10.4-8-15.5-12.1c-0.4-0.3-0.8-0.6-1.2-0.9
					c-5.2-4.2-10.3-8.4-15.4-12.5c-6-4.9-11.2-9.4-16.5-13.9c-5.3-4.5-10.5-9.1-15.6-13.7l-0.7-0.7c-5-4.5-9.9-8.9-14.7-13.4
					c-4.9-4.6-9.9-9.3-14.9-14.2c-4.9-4.7-9.9-9.6-14.7-14.5c-5-5.1-9.7-9.9-14.3-14.7c-4.8-5.1-9.5-10.1-14.2-15.1
					c-4.7-5.2-9.2-10.2-13.6-15.3c-3.4-3.8-6.9-7.8-10.3-11.9c-10.1-12-19.8-24-28.9-35.8l-2.4-3.2c-2.9-3.8-5.8-7.6-8.6-11.5
					c-0.5-0.6-1-1.3-1.5-1.9c-2.7-3.6-5.3-7.2-7.9-10.9c-5.9-8.3-11.3-16.1-16.2-23.6c-2.9-4.3-5.9-8.9-8.8-13.4
					c-4.2-6.6-8.4-13.3-12.6-20.2l-2.6-4.4c-2-3.4-4.1-6.8-6-10.2c-3.8-6.7-7.4-13.3-11.1-19.9l-0.6-1.1c-2.9-5.5-5.7-10.8-8.4-16
					c-2.7-5.1-5.3-10.4-7.8-15.7c-0.6-1.1-1.2-2.2-1.6-3.4c-6-12.3-11.1-23.5-15.6-34.3c-0.4-0.9-0.9-1.9-1.3-3.1
					c-2.4-5.7-4.7-11.4-7-17.1c-2.5-6.1-4.9-12.5-7.2-19c-2.3-6.1-4.6-12.5-6.7-19c-1.6-4.6-3.2-9.4-4.7-14.2
					c-1.2-3.8-2.3-7.6-3.5-11.4c-0.5-1.6-1.1-3.6-1.6-5.5c-1-3.3-2.1-7.1-3.1-11c-1.4-5.2-2.9-10.6-4.3-16.1
					c-0.2-0.8-0.4-1.6-0.5-2.5c-33.4-235.8,77.7-454,176.8-595.6c125.2-178.9,302.9-336.9,487.6-433.5c96.5-50.5,211.7-50.5,308.1,0
					c184.6,96.7,362.4,254.7,487.6,433.5c99.1,141.6,210.2,359.8,176.8,595.6c-0.1,0.8-0.3,1.6-0.5,2.4c-1.4,5.3-2.8,10.6-4.2,15.8
					l-3.8,13.2c-0.3,1.1-0.7,2.3-1,3.4c-0.7,2.3-1.4,4.7-2.1,7l-0.8,2.4c-1.2,3.9-2.5,7.8-3.8,11.6l-0.3,0.9
					c-0.6,1.9-1.3,3.8-1.9,5.5c-1.9,5.8-4,11.7-6.3,17.6c-2.1,6-4.6,12.4-7.2,18.8c-2.3,6-4.9,12.3-7.6,18.6
					c-2.6,6.1-5.3,12.4-8.2,18.5c-2.6,5.7-5.3,11.5-8.1,17.4l-1.3,2.6c-2.4,5.1-5.2,10.6-8,16.1c-3.1,6.2-6.2,12-9.4,18
					c-3.8,7.1-7.7,14-11.8,20.9c-2.6,4.5-5.4,9.2-8.2,13.9c0,0-0.1,0.1-0.1,0.1c-0.1,0.1-0.1,0.2-0.2,0.3
					c-3.5,5.8-7.1,11.4-10.7,17.1c-6.5,10.1-12.6,19.3-18.6,28.1c-2.8,4-5.7,8.1-8.6,12.1c-2.4,3.3-4.8,6.7-7.3,10.1
					c-3.7,5-7.4,10-11.2,15c-3.8,4.9-7.5,9.6-11.2,14.3c-2.2,2.7-4.3,5.4-6.4,8l-11.6,14c-6.9,8.1-14.1,16.3-21.3,24.2
					c-3.3,3.7-6.9,7.5-10.5,11.3l-8.1,8.6c-4,4.2-7.8,8.1-11.6,11.9c-5.1,5.2-10.7,10.7-16.3,16.1c-4.5,4.4-9,8.6-13.5,12.8
					c-0.8,0.8-1.7,1.6-2.6,2.4c-4.6,4.3-9.2,8.5-14,12.8c-9.2,8.2-18.2,15.9-26.9,23.2l-6.7,5.6c-4.8,3.9-9.5,7.7-14.2,11.4
					c-16.3,12.9-33.2,25.6-50.3,37.7c-0.1,0.1-0.6,0.4-0.8,0.6c-0.1,0-0.1,0.1-0.2,0.1C2309.2,2634.9,2154.5,2681.3,1999.9,2681.3z
					 M1568,2494.4c5.1,3.7,10.1,7.3,15.2,10.9c248.8,175.6,583.4,175.8,832.6,0.6v0c0.3-0.2,0.7-0.5,0.9-0.7
					c16.4-11.6,32.7-23.8,48.3-36.2c4.5-3.6,9-7.2,13.4-10.8l6.6-5.5c8.3-6.9,17-14.4,25.8-22.3c4.5-4,9-8.1,13.4-12.2
					c0.4-0.4,0.8-0.7,1.2-1.1l0.4-0.4c0.2-0.2,0.5-0.4,0.7-0.7c4.4-4,8.6-8.1,12.9-12.2c5.3-5.2,10.7-10.4,15.8-15.7
					c3.8-3.8,7.3-7.3,10.7-10.9l7.7-8.3c3.6-3.8,6.8-7.3,10-10.8c7.1-7.8,13.9-15.6,20.5-23.4l11.1-13.3c2.1-2.5,4.1-5,6.1-7.5
					c3.6-4.5,7.1-9,10.6-13.6c3.5-4.7,7.2-9.5,10.7-14.3c2.4-3.2,4.7-6.4,7-9.6c2.8-3.8,5.5-7.6,8.1-11.5
					c5.8-8.4,11.6-17.2,17.8-26.9c3.4-5.4,6.8-10.7,10.1-16.2c0.1-0.1,0.1-0.2,0.2-0.3l0,0c2.7-4.5,5.3-8.9,7.9-13.4
					c3.9-6.7,7.6-13.1,11.1-19.7c3-5.5,5.9-11,8.8-16.7c0-0.1,0.3-0.6,0.3-0.7c2.6-5,5.1-9.9,7.5-15l1.4-2.7
					c2.5-5.1,5-10.6,7.5-16.2c2.7-5.9,5.3-11.7,7.7-17.4c2.5-5.9,4.9-11.7,7.2-17.6c2.5-6.1,4.7-11.9,6.8-17.9
					c2.2-5.8,4.1-11.1,5.9-16.6l2-6.1c1.2-3.6,2.4-7.1,3.5-10.7l0.8-2.6c0.6-2.1,1.3-4.1,1.9-6.2c0.1-0.5,0.3-0.9,0.4-1.4
					c0.2-0.6,0.4-1.2,0.6-1.8l3.7-12.8c1.2-4.4,2.5-9.1,3.7-13.8c24-172.6-36.1-372.4-169.4-562.8
					c-121.3-173.3-293.3-326.2-471.8-419.7c-83.6-43.8-183.5-43.8-267.1,0c-178.6,93.5-350.6,246.5-471.8,419.7
					c-133.3,190.4-193.4,390.2-169.4,562.8c1.3,4.8,2.5,9.6,3.9,14.4c1,3.6,1.9,6.9,2.9,10.2c0.5,2,1,3.4,1.4,4.7
					c1.2,3.9,2.2,7.4,3.4,11c1.4,4.5,3,9,4.5,13.5c2,6,4.1,12,6.3,17.9c2.2,6.2,4.5,12.1,6.8,17.9c2.3,5.8,4.6,11.4,6.9,17
					c0,0.1,0.1,0.2,0.1,0.3c0.2,0.4,0.4,0.8,0.6,1.2c4.3,10.4,9.3,21.4,15.2,33.6c0.1,0.3,0.3,0.6,0.4,0.9c0.3,0.5,0.5,1,0.8,1.5
					c2.4,5.1,4.9,10.1,7.5,15.1c2.7,5.2,5.4,10.3,8,15.4l0.4,0.8c3.5,6.4,7,12.8,10.6,19c1.8,3.1,3.8,6.4,5.7,9.7l2.6,4.3
					c3.9,6.4,7.9,12.8,12,19.2c2.7,4.3,5.5,8.5,8.2,12.6c4.8,7.2,9.8,14.6,15.6,22.7c2.3,3.3,4.6,6.5,6.9,9.6
					c0.1,0.1,0.6,0.8,0.7,0.9l-0.3-0.3c0.5,0.6,1,1.1,1.4,1.8c2.7,3.7,5.5,7.4,8.2,11.1l2.4,3.1c8.5,11.1,17.8,22.6,27.5,34
					c3.2,3.8,6.5,7.6,9.8,11.3c4.4,5.1,8.6,9.8,12.9,14.5c4.5,4.8,9.1,9.7,13.7,14.6c4.4,4.6,8.9,9.2,13.4,13.8
					c4.9,4.9,9.5,9.5,14.2,14c4.9,4.7,9.6,9.3,14.4,13.7c4.7,4.4,9.4,8.6,14.1,12.9l0.7,0.6c4.9,4.4,9.8,8.7,14.9,13
					c5,4.3,10.1,8.6,15.3,12.9c5.1,4.2,9.8,8,14.6,11.9c0.3,0.2,0.7,0.5,1,0.8c5.3,4.2,10.6,8.3,15.9,12.4
					c4.8,3.6,9.8,7.4,14.8,11.1C1566.4,2493.1,1567.2,2493.7,1568,2494.4z M1540.1,2528.7
					C1540.1,2528.7,1540.1,2528.7,1540.1,2528.7C1540.1,2528.7,1540.1,2528.7,1540.1,2528.7z M2525.9,2416.7c-0.1,0-0.1,0.1-0.2,0.1
					C2525.8,2416.8,2525.9,2416.8,2525.9,2416.7z M1262.2,2121.4C1262.2,2121.4,1262.2,2121.4,1262.2,2121.4
					C1262.2,2121.4,1262.2,2121.4,1262.2,2121.4z M1260.8,2118C1260.8,2118,1260.8,2118,1260.8,2118
					C1260.8,2118,1260.8,2118,1260.8,2118z M2796.4,2016.6L2796.4,2016.6L2796.4,2016.6z"/>
			</g>
			<g>
				<g>
					<g>
						<g>
							<path class="st8" d="M2619.7,2128.4c-1.4,4.1-2.8,8.3-4.4,12.7c-41,105-121.4,161-170.1,97.6l29.1-142.7l19.8-97
								C2570,1947.1,2671.3,1970.4,2619.7,2128.4z"/>
						</g>
						<g>
							<path class="st3" d="M2493.9,2268c-19.3,0-36.8-9.5-50.8-27.8l-0.7-1l49.3-241.9l0.9-0.6c41.5-28.3,88.2-33.2,116.2-12.2
								c18.2,13.7,44.2,50.6,13.5,144.6l0,0c-1.4,4.2-2.8,8.4-4.4,12.7c-27.4,70.2-72.6,119.4-115.2,125.5
								C2499.7,2267.8,2496.8,2268,2493.9,2268z M2448,2238c14.8,18.7,33.4,27.1,53.9,24.2c40.7-5.8,84.3-53.7,111-122.1
								c1.5-4.2,3-8.4,4.3-12.5l0,0c22-67.3,17.8-116.6-11.7-138.7c-26-19.5-69.7-14.7-109.1,11.8L2448,2238z"/>
						</g>
					</g>
					<g class="st2">
						<path class="st3" d="M2619.7,2128.4c-1.4,4.1-2.8,8.3-4.4,12.7c-41,105-121.4,161-170.1,97.6l29.1-142.7
							c6.8-0.5,10.9-0.8,10.9-0.8c29.5,92.4,72.4,100.6,128.7,24.6C2613.8,2119.8,2616,2122.9,2619.7,2128.4z"/>
					</g>
					<g>
						<path class="st3" d="M2494,2283.1c-24,0-46-11.7-62.9-33.6c-3.1-4.1-4.3-9.3-3.3-14.4l48.8-239.7c0.9-4.5,3.6-8.5,7.4-11.1
							c47.4-32.4,101.5-36.9,134.7-11.1c22.2,17.2,53.6,62.8,13.3,173.9c-29.9,76.7-78.6,128.4-127.2,135.3
							C2501.1,2282.9,2497.6,2283.1,2494,2283.1z M2464.3,2233.7c10.4,10.9,22.1,15.3,35.5,13.5c34.9-5,74.6-50.2,99-112.6
							c23.6-65.3,23-114-1.9-133.3c-19.4-15.1-54.5-11.4-87,8.6L2464.3,2233.7z"/>
					</g>
					<g>
						<g>
							<path class="st8" d="M1380.3,2128.4c1.4,4.1,2.8,8.3,4.4,12.7c41,105,121.4,161,170.1,97.6l-29.1-142.7l-19.8-97
								C1430,1947.1,1328.7,1970.4,1380.3,2128.4z"/>
						</g>
						<g>
							<path class="st3" d="M1506.1,2269.1c-2.9,0-5.9-0.2-8.9-0.6c-42.9-6.1-88.4-55.6-116-126.1c-1.6-4.5-3.1-8.7-4.5-12.9v0
								c-30.9-94.6-4.6-131.9,13.9-145.8c28.3-21.3,75.5-16.4,117.4,12.2l1.2,0.8l49.5,242.8l-1,1.3
								C1543.5,2259.5,1525.8,2269.1,1506.1,2269.1z M1383.8,2127.2c1.3,4.1,2.8,8.3,4.3,12.6c26.5,67.9,69.8,115.6,110.1,121.4
								c20.2,2.9,37.9-5,52.6-23.4l-48.2-236.5c-38.9-26.1-82-30.7-107.5-11.6C1366,2011.5,1362,2060.4,1383.8,2127.2L1383.8,2127.2
								z"/>
						</g>
					</g>
					<g class="st5">
						<path class="st6" d="M1489.2,2263.6c-37.6-12.5-76.3-57.9-101-120.9c-1.5-4.3-3-8.5-4.4-12.7
							c-51.6-157.9,49.7-181.3,125.7-129.4l0.4,1.8c-68.7-26-138,10.1-93.5,146.3c1.4,4.1,2.8,8.3,4.4,12.7
							C1438.2,2206.3,1462.9,2242.2,1489.2,2263.6z"/>
					</g>
					<g>
						<path class="st3" d="M1506,2283.1c-3.6,0-7.1-0.3-10.8-0.8c-48.6-6.9-97.3-58.6-127.1-134.9c-40.4-111.5-9.1-157,13.2-174.3
							c33.2-25.7,87.3-21.2,134.7,11.1c3.8,2.6,6.5,6.6,7.4,11.1l48.8,239.7c1,5-0.2,10.3-3.3,14.4
							C1552,2271.4,1530,2283.1,1506,2283.1z M1433.9,1992c-12.1,0-22.8,3-30.8,9.2c-24.9,19.3-25.5,68-1.7,133.7
							c24.2,62,64,107.3,98.8,112.2c13.3,1.9,25-2.5,35.5-13.5l-45.6-223.9C1471,1998.1,1451,1992,1433.9,1992z"/>
					</g>
					<g>
						<g>
							<path class="st8" d="M2483.3,2099.6v82c0,141.1-67.5,274.9-183.8,354.8c-1.7,1.1-3.3,2.2-4.9,3.3
								c-177.3,118.9-409.5,118.9-586.9,0.1c-1.6-1.1-3.3-2.2-4.9-3.4c-116.3-79.8-183.9-213.6-183.9-354.8v-82
								c0,0,0.3-5.3,0.9-14.7c4.4-74.9,24.2-410.7,27.4-419.3C1652.8,1381.4,2708.2,1451,2483.3,2099.6z"/>
						</g>
						<g>
							<path class="st3" d="M2001.1,2633c-102.9,0-205.7-30.1-295.4-90.2c-1.5-1.1-3-2.1-4.4-3.1c-116.6-80-186-213.8-186-358.1v-82
								c0-0.2,0.3-5.5,0.9-15c7.2-123.5,24.4-411.6,27.6-420.4c27.7-74.6,121.6-129.9,257.7-151.6c131.4-21,284.4-6.8,409.3,38.1
								c124.7,44.8,401.2,188,276.2,549.5v81.4c0,144.3-69.3,278-185.4,357.8l-1.9,1.3c-1,0.7-2,1.3-3,2
								C2206.9,2602.9,2104,2633,2001.1,2633z M1926,1510.5c-42.2,0-83.7,3.1-123.3,9.4c-133.4,21.3-225.2,74.9-252,146.9
								c-2.6,9.4-16.2,231.2-27.2,418.2c-0.6,9.5-0.9,14.7-0.9,14.7l0,81.8c0,141.9,68.1,273.4,182.3,351.7c2,1.3,3.5,2.4,4.9,3.4
								c177,118.6,405.7,118.5,582.7-0.1c1-0.7,2-1.4,3.1-2.1l1.8-1.2c114.1-78.4,182.2-209.8,182.2-351.7l0.2-83.2
								c123.4-355.7-148.8-496.6-271.5-540.7C2122.1,1526.7,2022.5,1510.5,1926,1510.5z"/>
						</g>
					</g>
					<g class="st2">
						<path class="st3" d="M2483.3,2099.6v82c0,141.1-67.5,274.9-183.8,354.8c-1.7,1.1-3.3,2.2-4.9,3.3
							c-177.3,118.9-409.5,118.9-586.9,0.1c-1.6-1.1-3.3-2.2-4.9-3.4c-3.7-2.5-7.3-5.1-10.9-7.8c166.9,81.1,366.9,69.1,523.9-36.2
							c1.6-1.1,3.3-2.2,4.9-3.3c116.3-79.9,183.8-213.7,183.8-354.8l7-103.4c76.3-220.1-1.8-352.1-133.2-447.6
							C2457,1671.4,2573.8,1838.6,2483.3,2099.6z"/>
					</g>
					<g class="st2">
						<path class="st3" d="M2483.3,2099.6v33.3c-53-78.1-63.3-291.3-63.3-291.3c-46.4,50.3-306.7,108.4-489.4,11.3
							c-9.9-5.2-20.7,5.2-15.7,15.2c2.2,4.5,3.1,6,3.1,6c-24,14.9-137.2,0.4-198.6-35.4c-17.1-9.9-38.9,0.8-41.9,20.3
							c-13.8,87.8-57.5,148.9-151,240.4c-2.3-4.9-4.6-9.8-6.7-14.7c4.4-74.9,24.2-410.7,27.4-419.3
							C1652.8,1381.4,2708.2,1451,2483.3,2099.6z"/>
					</g>
					<g class="st5">
						<path class="st6" d="M2201.2,2589.4c-160.4,65.7-345.9,49.2-493.5-49.7c-1.6-1.1-3.3-2.2-4.9-3.4
							c-116.3-79.8-183.9-213.6-183.9-354.8v-82c0,0,24.7-424.4,28.3-434c22.2-59.7,86.3-103.8,171.7-130.2
							c-64.2,26.8-111.4,65.6-129.8,115c-3.6,9.7-28.3,434-28.3,434v82c0,141.1,67.5,274.9,183.9,354.8c1.7,1.1,3.5,2,5,3.3
							C1864.8,2628.8,2051.1,2636.6,2201.2,2589.4z"/>
					</g>
					<g>
						<path class="st3" d="M2001.1,2647.1c-105.6,0-211.2-30.9-303.3-92.6c-1.7-1.1-3.4-2.3-5.1-3.5
							c-120-82.3-191.6-220.4-191.6-369.4v-82c0-0.3,0-0.7,0-1c24.8-426.7,28.3-436.2,29.4-439.2l0,0c65-174.8,431-213.1,685-121.8
							c121,43.5,212.7,112.4,265,199.4c61.6,102.3,68.5,225.4,20.5,365.7v79c0,149-71.6,287.1-191.5,369.4l-5.1,3.4
							C2212.3,2616.2,2106.7,2647.1,2001.1,2647.1z M1536.7,2100.1v81.5c0,137.3,65.9,264.5,176.2,340.1c1.6,1.1,3.2,2.2,4.8,3.2
							c172.3,115.5,394.9,115.4,567.1,0l4.7-3.2c110.3-75.7,176.1-202.9,176.1-340.1v-82c0-2,0.3-3.9,1-5.8
							c119.3-343.8-144.1-480.2-262.9-522.8c-257.5-92.5-585.1-41.3-639.2,99.5C1561.1,1693.4,1546.1,1938.3,1536.7,2100.1z
							 M1563.9,1671.7C1563.8,1671.7,1563.8,1671.7,1563.9,1671.7C1563.8,1671.7,1563.8,1671.7,1563.9,1671.7z M1564,1671.4
							c0,0.1-0.1,0.2-0.1,0.3C1563.9,1671.6,1563.9,1671.5,1564,1671.4z M1547.2,1665.5L1547.2,1665.5L1547.2,1665.5z"/>
					</g>
					<g>
						<g>
							<path class="st9" d="M2477.7,1491.6c133.1,170.1,116.6,466.2,4.4,621.3c-85.8-47.3-91.5-271.3-91.5-271.3
								c-203.1,55.3-408.6,21.5-594.9-139c-4,63.1,48.9,121.6,48.9,121.6c-24-0.7-45.4-4.2-64.7-10c-67.4-20.2-107.5-69-132.1-130.4
								c-23.7,213-25.1,260.4-128.9,415.7c-103.6-221.9-122.6-495.6,50-577.4c-240.7-82.8-151.9-250.5,55.2-101.6
								c-101.6-146,26.6-202.3,53.3-41.4c149.8-273.6,807.7-177.5,896.9,133.1l-96.3-20.7
								C2477.8,1491.6,2477.7,1491.6,2477.7,1491.6z"/>
						</g>
						<g>
							<path class="st3" d="M2483.2,2117.7l-2.9-1.6c-80.7-44.5-91.9-236.3-93.2-269.7c-215.7,57.3-413.5,11.6-587.9-135.9
								c0.6,57.9,47.6,110.8,48.1,111.3l5.8,6.4l-8.6-0.3c-23.5-0.7-45.6-4.1-65.7-10.2c-58.3-17.5-100.6-56.6-128.9-119.5
								l-1.3,11.7c-21.1,190.7-26.7,242-126.6,391.7l-3.6,5.4l-2.8-5.9c-104.3-223.5-121.6-491.5,43.9-578.4
								c-97.2-35.3-135.4-82.8-138.6-116.1c-1.7-17.4,5.8-31.8,21-40.5c28.5-16.4,87.2-13.4,168.8,40.7
								c-34.2-55.9-33.2-96.4-20.9-114.9c7.2-10.9,18.6-15.6,31-12.9c20.8,4.5,46.4,30.4,58.4,89.6
								c82.4-136.8,281.1-167.1,442-149.2c191.7,21.3,407.3,119.8,456.7,291.9l1.7,5.9l-92.8-19.9
								c129.2,174.7,106.8,467.9-1.5,617.8L2483.2,2117.7z M2394.2,1836.9l0.1,4.7c0.1,2.2,6.5,217.3,86.7,266.5
								c106.7-150.9,126.9-444-6.3-614.2l-4.7-6l9,0.3l89.8,19.2c-51.7-165.1-261.6-259.9-448.6-280.7
								c-161.9-18-362.4,13.1-439.7,154.2l-5.1,9.4l-1.7-10.5c-10.4-62.6-35.8-89.5-54.5-93.6c-9.5-2-17.7,1.4-23.3,9.8
								c-12.2,18.3-11.4,61.4,31.2,122.5l12.3,17.7l-17.5-12.6c-86.9-62.5-149.4-66.6-176.4-51.1c-12.6,7.2-18.7,19.1-17.4,33.4
								c2.9,30.5,41.8,78.3,141.9,112.8l8.6,2.9l-8.2,3.9c-168,79.7-152.9,344.1-51,566.6c95.4-143.9,101.2-195.9,121.8-382.9
								l4.5-40.3l5.5,13.7c27.3,68.3,69.8,110.3,129.7,128.2c17.1,5.1,35.7,8.3,55.5,9.5c-13.7-17.2-47.7-65.5-44.4-117.8l0.5-7.4
								l5.6,4.8c175.1,150.9,374.2,197.4,591.6,138.2L2394.2,1836.9z"/>
						</g>
					</g>
					<g class="st2">
						<path class="st3" d="M1623.2,1646.8c8.8,17,16.9,36.2,22.2,59c-21.5,194.6-26.4,243.9-126.5,393.8
							c-11.7-25.1-22.4-50.9-31.7-77c82.2-127.5,91.8-199.4,110.8-371.2C1599.4,1638.2,1617.1,1635,1623.2,1646.8z"/>
					</g>
					<g class="st5">
						<path class="st6" d="M1585,1395.3c-130.3-55.2-177.5,40.2-50.5,113.5C1351.3,1428.9,1416.6,1298.8,1585,1395.3z"/>
					</g>
					<g class="st5">
						<path class="st6" d="M1564.8,1524.2c0.1,0.1,0.2,0.1,0.4,0.2c16.4,7.3,19.9,28.8,6.1,40.2c-117.9,97.8-113.4,317.7-35.6,509.5
							c-5.2,8.2-10.8,16.7-16.7,25.5C1416.2,1879.5,1396.6,1608.4,1564.8,1524.2z"/>
					</g>
					<g class="st5">
						<path class="st6" d="M1616,1418.2l-0.4-0.2c-68.8-105.9-6.2-166.8,35.6-118c-23.1,3.4-36.8,39.1-11.2,95.6
							C1646.9,1410.5,1630.5,1426.1,1616,1418.2z"/>
					</g>
					<g class="st5">
						<path class="st6" d="M2443.7,1352.5c-113.4-52.3-265.2-87.3-403-87.9c-21.2,40.8-92.8,38.8-123,9.8
							c-77.5,13.9-143.1,43.3-184.1,92.2c-11.7,14-34.6,13.1-43.8-2.7c-0.5-0.8-1-1.7-1.4-2.7
							C1816.8,1197.4,2249.9,1183.9,2443.7,1352.5z"/>
					</g>
					<g>
						<path class="st3" d="M2482.2,2130.7c-2.9,0-5.9-0.7-8.6-2.2c-78.3-43.2-95.8-202.7-99.6-264.2
							c-202.1,49-388.4,8.8-554.8-119.6c12,37.7,38.3,67.3,38.6,67.7c4.7,5.3,5.9,12.9,2.9,19.3c-2.9,6.3-9.2,10.3-16.1,10.3
							c-0.2,0-0.4,0-0.5,0c-81.5-2.5-143.5-35.4-185.1-98c-18.7,167.4-29.4,221.9-125.3,365.5c-3.6,5.3-9.7,8.3-16.1,7.8
							c-6.4-0.5-12-4.4-14.7-10.2c-101.8-218.1-121.4-478.1,25.4-581.7c-83.9-36.5-118-83.3-121.3-117.5c-2.2-22.9,8-42.6,28-54.1
							c26.9-15.4,76.2-16.6,142.5,17.1c-14.6-39.8-10.8-69.7,0.7-86.9c10.5-15.7,27.5-22.7,45.6-18.8c26.1,5.6,47.7,31,61.1,70.3
							c93.9-120.5,283-147.3,437.8-130.1c196.4,21.8,417.5,123.7,468.6,302c1.7,6,0.2,12.5-4.1,17c-4.3,4.6-10.6,6.5-16.7,5.2
							l-52.8-11.3c48.1,78.8,73.4,179.9,71.9,289.8c-1.6,120.6-35.5,235.5-93.1,315.2C2493.1,2128.1,2487.7,2130.7,2482.2,2130.7z
							 M2390.7,1823.9c3.8,0,7.5,1.2,10.6,3.5c4.4,3.3,7,8.3,7.1,13.8c1.4,55.2,16.8,198.5,69.3,246.7
							c96.7-149.9,112-424.4-14-585.4c-4.6-5.9-5-14-1.1-20.4c4-6.3,11.4-9.5,18.8-7.9l65.5,14.1
							c-61.5-144.7-254.8-228.3-428.2-247.6c-197.8-22-364.9,35.7-425.8,147c-3.6,6.6-11.1,10.3-18.5,9c-7.5-1.3-13.3-7.1-14.5-14.6
							c-9.9-59.7-32.8-79.8-43.5-82.1c-2.6-0.6-5.7-0.6-8.6,3.8c-7.3,11-10.2,47.4,31,106.7c4.9,7.1,4,16.7-2.1,22.8
							c-6.2,6.1-15.8,6.8-22.8,1.8c-76.3-54.9-135.9-64.8-161.1-50.3c-7.8,4.5-11.2,11-10.4,19.9c2.7,28.4,44.7,70.6,132.4,100.8
							c6.8,2.3,11.5,8.6,11.9,15.8c0.4,7.2-3.6,13.9-10.1,17c-92.8,44-115.7,144.4-118.4,220.8c-3.3,90.6,19.8,199.7,63.8,303.6
							c80-124.7,85.7-176.1,105.4-355l2.8-25.7c0.9-8.1,7.2-14.5,15.3-15.6c8.1-1.1,15.8,3.4,18.9,11
							c28.6,71.5,75.5,112.7,142.9,125.3c-15.3-25.2-31.6-61.9-29.1-101c0.4-6.7,4.6-12.6,10.8-15.3c6.2-2.6,13.4-1.5,18.5,2.9
							c171.4,147.6,366.1,193.2,578.7,135.3C2387.6,1824.1,2389.1,1823.9,2390.7,1823.9z"/>
					</g>
					<g>
						<path class="st3" d="M2390.7,1859.4c-7.8,0-15-5.2-17.1-13.1c-2.6-9.5,3.1-19.2,12.5-21.8c22-5.9,44.3-13,66.3-21.2
							c9.2-3.4,19.4,1.3,22.8,10.5c3.4,9.2-1.3,19.4-10.5,22.8c-22.9,8.5-46.3,15.9-69.4,22.2
							C2393.8,1859.2,2392.2,1859.4,2390.7,1859.4z"/>
					</g>
					<g class="st2">
						<path class="st3" d="M2482.2,2112.9c-85.8-47.3-91.5-271.3-91.5-271.3c-203.1,55.3-408.6,21.5-594.9-139
							c-4,63.1,48.9,121.6,48.9,121.6c-24-0.7-45.4-4.2-64.7-10c-97.2-160.1-55.8-197.9,83.9-148.6c387.7,125.1,670,144.7,613.9-174
							C2610.9,1661.7,2594.3,1957.8,2482.2,2112.9z"/>
					</g>
					<g class="st10">
						<path class="st11" d="M2383.7,1639.5c0,26.9-52.7,48.7-117.6,48.7c-64.9,0-117.6-21.8-117.6-48.7c0-26.9,52.7-27.6,117.6-27.6
							C2331.1,1611.9,2383.7,1612.6,2383.7,1639.5z"/>
					</g>
					<g>
						<g>
							<path class="st3" d="M2063.3,2427.9c0,0-25.5,16.3-91.8,16.3c-14.4,1-55.6-1.3-107.7-48.8c0,0,24.1,69.3,106.1,69.3
								C1970,2464.6,2016.6,2468.9,2063.3,2427.9z"/>
						</g>
					</g>
					<g>
						<path class="st3" d="M1686.6,2119.8c5.6-18.1,18.9-33.2,35.3-43.4c16.5-10.2,36.3-15.5,56-15.3c19.7,0.1,39.2,5.8,55.5,16
							c16.3,10.2,29.6,24.9,35.9,42.7c-17.9-6.1-33.1-11-48.1-14.2c-14.9-3.2-29.3-4.8-43.7-5c-14.4-0.1-28.7,1.1-43.5,4.3
							C1719.2,2107.9,1704.1,2112.9,1686.6,2119.8z"/>
					</g>
					<g>
						<path class="st3" d="M2322.8,2119.8c-17.6-6.8-32.6-11.9-47.5-14.9c-14.8-3.1-29.1-4.4-43.5-4.3c-14.4,0.2-28.7,1.8-43.7,5
							c-15,3.2-30.2,8.1-48.1,14.2c6.2-17.9,19.6-32.5,35.9-42.7c16.3-10.2,35.9-15.8,55.5-16c19.6-0.2,39.4,5,56,15.3
							C2303.9,2086.6,2317.2,2101.7,2322.8,2119.8z"/>
					</g>
					<g>
						<ellipse class="st3" cx="1795.7" cy="2227.9" rx="61" ry="80.5"/>
					</g>
					<g>
						<g>
							<ellipse class="st6" cx="1811.3" cy="2209.3" rx="18.4" ry="27"/>
						</g>
						<g>
							<path class="st3" d="M1811.3,2240c-12.4,0-22.1-13.5-22.1-30.7c0-17.2,9.7-30.7,22.1-30.7c12.4,0,22.1,13.5,22.1,30.7
								C1833.5,2226.5,1823.7,2240,1811.3,2240z M1811.3,2185.9c-8,0-14.8,10.7-14.8,23.3c0,12.7,6.8,23.3,14.8,23.3
								s14.7-10.7,14.7-23.3C1826.1,2196.6,1819.3,2185.9,1811.3,2185.9z"/>
						</g>
					</g>
					<g>
						<ellipse class="st3" cx="2217.7" cy="2227.9" rx="61" ry="80.5"/>
					</g>
					<g>
						<g>
							<ellipse class="st6" cx="2202.1" cy="2209.3" rx="18.4" ry="27"/>
						</g>
						<g>
							<path class="st3" d="M2202.1,2240c-12.4,0-22.1-13.5-22.1-30.7c0-17.2,9.7-30.7,22.1-30.7c12.4,0,22.1,13.5,22.1,30.7
								C2224.2,2226.5,2214.5,2240,2202.1,2240z M2202.1,2185.9c-8,0-14.8,10.7-14.8,23.3c0,12.7,6.8,23.3,14.8,23.3
								s14.7-10.7,14.7-23.3C2216.9,2196.6,2210.1,2185.9,2202.1,2185.9z"/>
						</g>
					</g>
				</g>
			</g>
		</g>
		<defs>
			<filter id="Adobe_OpacityMaskFilter" filterUnits="userSpaceOnUse" x="822.6" y="1885.5" width="2384.3" height="1818.6">
				<feFlood  style="flood-color:white;flood-opacity:1" result="back"/>
				<feBlend  in="SourceGraphic" in2="back" mode="normal"/>
			</filter>
		</defs>
		<mask maskUnits="userSpaceOnUse" x="822.6" y="1885.5" width="2384.3" height="1818.6" id="SVGID_1_">
			<g class="st12">
				<defs>
					<filter id="Adobe_OpacityMaskFilter_1_" filterUnits="userSpaceOnUse" x="822.6" y="1885.5" width="2384.3" height="1818.6">
						<feFlood  style="flood-color:white;flood-opacity:1" result="back"/>
						<feBlend  in="SourceGraphic" in2="back" mode="normal"/>
					</filter>
				</defs>
				<mask maskUnits="userSpaceOnUse" x="822.6" y="1885.5" width="2384.3" height="1818.6" id="SVGID_1_">
					<g class="st13">
					</g>
				</mask>
				<linearGradient id="SVGID_2_" gradientUnits="userSpaceOnUse" x1="2014.7729" y1="1893.8219" x2="2002.1675" y2="3708.9219">
					<stop  offset="0" style="stop-color:#000000"/>
					<stop  offset="1" style="stop-color:#FFFFFF"/>
				</linearGradient>
				<polygon class="st14" points="2726,3704.1 1308.3,3704.1 822.6,1885.5 3206.9,1906.3 				"/>
			</g>
		</mask>
		<linearGradient id="SVGID_3_" gradientUnits="userSpaceOnUse" x1="2014.7729" y1="1893.8219" x2="2002.1675" y2="3708.9219">
			<stop  offset="0" style="stop-color:#40E6FF"/>
			<stop  offset="1" style="stop-color:#40E6FF"/>
		</linearGradient>
		<polygon class="st15" points="2726,3704.1 1308.3,3704.1 822.6,1885.5 3206.9,1906.3 		"/>
		<g>
			<g>
				<g>
					<path class="st16" d="M2892.3,3660.2c-9.5,46.8-34.8,87.1-69.7,115.6c-34.9,28.5-79.4,45.4-127.2,45.4H1338.8
						c-95.5,0-177.9-67.4-196.9-161H2892.3z"/>
				</g>
				<g>
					<path class="st3" d="M2695.4,3824.9H1338.8c-96.9,0-181.2-69-200.5-164l-0.9-4.4h1759.4l-0.9,4.4c-9.3,46.1-34.5,87.9-71,117.8
						C2788.5,3808.5,2742.5,3824.9,2695.4,3824.9z M1146.5,3663.9c20.3,89.3,100.4,153.6,192.3,153.6h1356.6
						c45.4,0,89.7-15.8,124.9-44.5c34-27.8,57.8-66.4,67.5-109.1H1146.5z"/>
				</g>
			</g>
			<g>
				<path class="st3" d="M2695.4,3843.4H1338.8c-105.7,0-197.6-75.2-218.6-178.7c-1.3-6.5,0.4-13.3,4.6-18.4
					c4.2-5.1,10.5-8.1,17.1-8.1h1750.3c6.6,0,12.9,3,17.1,8.1c4.2,5.1,5.9,11.9,4.6,18.4C2893,3768.2,2801.1,3843.4,2695.4,3843.4z
					 M1171.2,3682.4c25.6,69,92.3,116.7,167.6,116.7h1356.6c75.4,0,142-47.7,167.6-116.7H1171.2z"/>
			</g>
			<g class="st2">
				<path class="st3" d="M2892.3,3660.2c-9.5,46.8-34.8,87.1-69.7,115.6c-34.9,28.5-79.4,45.4-127.2,45.4h-839.1
					c137.9-6.5,260.1-44.6,365.3-117.1c0,0,7.2-17.7,23.3-43.9H2892.3z"/>
			</g>
			<g>
				<g>
					<path class="st16" d="M2891.8,2809.6L2821,3617c-4.3,49.3-45.6,87.1-95,87.1H1308.3c-49.4,0-90.6-37.8-95-87.1l-70.7-807.4
						c-7-79.3,55.5-147.6,135.1-147.6h1479c26,0,50.3,7.3,70.8,19.9C2869.7,2707.9,2896.5,2756.3,2891.8,2809.6z"/>
				</g>
				<g>
					<path class="st3" d="M2725.9,3707.8H1308.3c-51.7,0-94.1-38.9-98.7-90.4l-70.7-807.4c-3.4-38.8,9.7-77.6,36.1-106.3
						c26.3-28.7,63.8-45.2,102.7-45.2h1479c25.7,0,50.9,7.1,72.7,20.5c45.4,27.9,70.8,78.2,66.1,131.1v0l-70.8,807.4
						C2820.1,3668.9,2777.7,3707.8,2725.9,3707.8z M1277.6,2665.7c-36.9,0-72.3,15.6-97.3,42.8c-24.9,27.2-37.4,63.9-34.1,100.7
						l70.7,807.4c4.2,47.7,43.5,83.7,91.4,83.7h1417.6c47.9,0,87.2-36,91.4-83.7l70.8-807.4c4.4-50.2-19.6-97.8-62.6-124.2
						c-20.7-12.7-44.5-19.4-68.9-19.4H1277.6z"/>
				</g>
			</g>
			<g class="st17">
				<path class="st6" d="M2869.2,2722c-17.3-8.1-36.6-12.6-57.1-12.6h-1479c-79.6,0-142.1,68.3-135.1,147.6l70.7,807.4
					c1.1,12.6,4.6,24.4,10.1,35c-35.5-11.5-62.1-43.3-65.6-82.4l-70.7-807.4c-7-79.3,55.5-147.6,135.1-147.6h1479
					C2803.7,2662.1,2844.9,2686,2869.2,2722z"/>
			</g>
			<g>
				<path class="st3" d="M2726,3726.2H1308.3c-61.4,0-111.7-46.1-117.1-107.2l-70.8-807.4c-3.9-44,11-87.8,40.8-120.4
					c29.8-32.5,72.2-51.2,116.3-51.2h1479c44.1,0,86.5,18.7,116.3,51.2c29.8,32.5,44.7,76.4,40.8,120.4L2843,3619
					C2837.7,3680.1,2787.3,3726.2,2726,3726.2z M1277.6,2684.2c-32.2,0-62,13.1-83.7,36.8c-21.8,23.8-32.2,54.5-29.4,86.6
					l70.8,807.4c3.3,38.1,34.7,66.9,73,66.9H2726c38.3,0,69.6-28.7,73-66.9l70.8-807.4c2.8-32.1-7.6-62.9-29.4-86.6
					c-21.8-23.8-51.5-36.8-83.7-36.8H1277.6z"/>
			</g>
			<g class="st2">
				<path class="st3" d="M2891.8,2809.6L2821,3617c-4.3,49.3-45.6,87.1-95,87.1H1447.2c786.9-61.9,1273.7-379.8,1380-1022.2l0.3,0.1
					C2869.7,2707.9,2896.5,2756.3,2891.8,2809.6z"/>
			</g>
			<g class="st2">
				<path class="st6" d="M1499.3,3339.8l-88.8,8.3c-23,2.2-43.4-14.8-45.6-37.8l-30.5-326c-2.2-23,14.8-43.4,37.8-45.6l88.8-8.3
					c23-2.2,43.4,14.8,45.6,37.8l30.5,326C1539.3,3317.2,1522.3,3337.6,1499.3,3339.8z"/>
			</g>
			<g>
				<g>
					<path class="st18" d="M2139.8,3361.6l-16.2,13l-1.9,41.2c-0.5,11.1-10.4,19.7-22.1,19.4l-0.1,0c-11.7-0.3-20.8-9.5-20.5-20.5
						l0.6-17.4c0.1-3.4-2.7-6.2-6.3-6.3l0,0c-3.6-0.1-6.5,2.6-6.6,6l-0.5,17.4c-0.3,11.1-10,19.7-21.6,19.4h0
						c-11.6-0.3-21-9.5-20.8-20.5l0.2-14.5c0.1-5-4.1-9.1-9.3-9.2l0,0c-5.2-0.1-9.5,3.8-9.5,8.8l-0.1,14.5
						c-0.1,11.1-9.5,19.7-21.2,19.4l0,0c-11.6-0.3-21.1-9.4-21.2-20.5l-0.2-17.4c0-3.4-2.9-6.2-6.5-6.3l0,0c-3.6-0.1-6.4,2.6-6.4,6
						l0.2,17.4c0.1,11-9.1,19.7-20.7,19.4l-0.1,0c-11.6-0.3-21.2-9.4-21.5-20.5l-1.2-41l-15.8-13.7c-41-35.6-66.7-87.1-69.7-142.1
						c-6.3-113.3,81.8-210.5,197.2-208.7c116.1,1.8,203.7,102.8,195.2,216.9C2209.1,3277,2182.1,3327.7,2139.8,3361.6L2139.8,3361.6
						z"/>
				</g>
				<g>
					<path class="st3" d="M2014.9,3004.7c1.1,0,2.1,0,3.2,0c116.1,1.8,203.7,102.8,195.2,216.9c-4.1,55.3-31.2,106-73.4,139.9
						l-16.2,13l-1.9,41.2c-0.5,10.9-10.1,19.4-21.5,19.4c-0.2,0-0.4,0-0.6,0l-0.1,0c-11.7-0.3-20.8-9.5-20.5-20.5l0.6-17.4
						c0.1-3.4-2.7-6.2-6.3-6.3h0c-0.1,0-0.1,0-0.2,0c-3.5,0-6.4,2.7-6.5,6l-0.5,17.4c-0.3,10.9-9.7,19.4-21,19.4c-0.2,0-0.4,0-0.6,0
						c-11.6-0.3-21-9.5-20.8-20.5l0.2-14.5c0.1-5-4.1-9.1-9.3-9.2c-0.1,0-0.2,0-0.3,0c-5.1,0-9.2,3.9-9.2,8.8l-0.1,14.5
						c-0.1,10.9-9.2,19.4-20.6,19.4c-0.2,0-0.4,0-0.6,0c-11.6-0.3-21.1-9.4-21.2-20.5l-0.2-17.4c0-3.4-2.9-6.2-6.5-6.3
						c-0.1,0-0.1,0-0.2,0c-3.5,0-6.2,2.7-6.2,6l0.2,17.4c0.2,10.9-8.8,19.4-20.1,19.4c-0.2,0-0.4,0-0.6,0l-0.1,0
						c-11.6-0.3-21.2-9.4-21.5-20.5l-1.2-41l-15.8-13.7c-41-35.6-66.7-87.1-69.7-142C1814.6,3101.2,1901,3004.7,2014.9,3004.7
						 M2014.9,2968.9L2014.9,2968.9c-63.6,0-122.5,25.3-166.1,71.4c-44.1,46.6-67.3,110.4-63.7,175.1c3.5,64,33.4,124.9,82,167.1
						l4,3.4l0.7,25.3c0.8,30.1,25.6,54.4,56.3,55.2c0.6,0,1.1,0,1.6,0c9.2,0,18-2.1,25.8-6.1c8.1,4.6,17.4,7.3,27.3,7.5
						c0.5,0,1,0,1.5,0c10.6,0,20.5-2.9,29-7.9c8.7,5.7,19.1,9.2,30.2,9.5c0.5,0,1,0,1.5,0c9.5,0,18.4-2.2,26.2-6.2
						c8.2,4.7,17.5,7.3,27.3,7.6c0.6,0,1.1,0,1.6,0c30.7,0,55.8-23.5,57.2-53.5l1.2-25l3.7-2.9c50.3-40.3,81.9-100.5,86.7-165.1
						c4.9-65.6-17.7-130.9-62-179.4c-43.8-48-103.6-74.9-168.3-76C2017.4,2969,2016.1,2968.9,2014.9,2968.9L2014.9,2968.9z"/>
				</g>
				<g>
					<g>
						<path class="st19" d="M1939.9,3166.7c-30.7-0.2-54.3,24.9-52.8,55.7c1.5,30.1,26.7,54.2,56.5,54.5c29.8,0.2,53.5-23.6,53-53.8
							C1996,3192.3,1970.6,3166.9,1939.9,3166.7L1939.9,3166.7z"/>
					</g>
					<g>
						<path class="st19" d="M2093.2,3165.1c-31-0.2-56.1,25-56.3,55.9c-0.1,30.2,24,54.4,54,54.6c30,0.2,55.3-23.7,56.4-54
							C2148.4,3190.8,2124.2,3165.3,2093.2,3165.1L2093.2,3165.1z"/>
					</g>
				</g>
			</g>
		</g>
	</g>
</g>
</svg>
